999
"DXF R12 Output" (www.mydxf.blogspot.com)
 0 
SECTION
 2 
HEADER
 9 
$ACADVER
 1 
AC1009
 9 
$EXTMIN
 10 
 0 
 20 
 0 
 9 
$EXTMAX
 10 
 8.5 
 20 
 11 
 0 
ENDSEC
 0 
SECTION
 2 
ENTITIES
0
LINE
8
Layer 1
10
0.846666
20
214.145000
11
-0.846666
21
212.451000
0
LINE
8
Layer 1
10
0.000000
20
214.709000
11
0.000000
21
211.887000
0
LINE
8
Layer 1
10
2.257780
20
212.169000
11
1.128890
21
211.040110
0
LINE
8
Layer 1
10
1.693330
20
212.734000
11
0.564440
21
211.605110
0
LINE
8
Layer 1
10
1.128890
20
213.298000
11
0.000000
21
212.169110
0
LINE
8
hello_you v6_Sketch1
10
432.042000
20
95.636300
11
432.006722
21
95.697403
0
LINE
8
hello_you v6_Sketch1
10
432.006722
20
95.697403
11
431.936167
21
95.697403
0
LINE
8
hello_you v6_Sketch1
10
431.936167
20
95.697403
11
431.900889
21
95.636300
0
LINE
8
hello_you v6_Sketch1
10
431.900889
20
95.636300
11
431.936167
21
95.575197
0
LINE
8
hello_you v6_Sketch1
10
431.936167
20
95.575197
11
432.006722
21
95.575197
0
LINE
8
hello_you v6_Sketch1
10
432.006722
20
95.575197
11
432.042000
21
95.636300
0
LINE
8
hello_you v6_Sketch1
10
432.042000
20
95.636300
11
432.042000
21
95.636300
0
LINE
8
hello_you v6_Sketch1
10
0.070555
20
-103.502000
11
0.035278
21
-103.440897
0
LINE
8
hello_you v6_Sketch1
10
0.035278
20
-103.440897
11
-0.035278
21
-103.440897
0
LINE
8
hello_you v6_Sketch1
10
-0.035278
20
-103.440897
11
-0.070555
21
-103.502000
0
LINE
8
hello_you v6_Sketch1
10
-0.070555
20
-103.502000
11
-0.035278
21
-103.563103
0
LINE
8
hello_you v6_Sketch1
10
-0.035278
20
-103.563103
11
0.035278
21
-103.563103
0
LINE
8
hello_you v6_Sketch1
10
0.035278
20
-103.563103
11
0.070555
21
-103.502000
0
LINE
8
hello_you v6_Sketch1
10
0.070555
20
-103.502000
11
0.070555
21
-103.502000
0
LINE
8
hello_you v6_Sketch1
10
590.525000
20
-121.514000
11
590.489722
21
-121.452897
0
LINE
8
hello_you v6_Sketch1
10
590.489722
20
-121.452897
11
590.419167
21
-121.452897
0
LINE
8
hello_you v6_Sketch1
10
590.419167
20
-121.452897
11
590.383889
21
-121.514000
0
LINE
8
hello_you v6_Sketch1
10
590.383889
20
-121.514000
11
590.419167
21
-121.575103
0
LINE
8
hello_you v6_Sketch1
10
590.419167
20
-121.575103
11
590.489722
21
-121.575103
0
LINE
8
hello_you v6_Sketch1
10
590.489722
20
-121.575103
11
590.525000
21
-121.514000
0
LINE
8
hello_you v6_Sketch1
10
590.525000
20
-121.514000
11
590.525000
21
-121.514000
0
LINE
8
hello_you v6_Sketch1
10
520.082000
20
-159.444000
11
520.046722
21
-159.382897
0
LINE
8
hello_you v6_Sketch1
10
520.046722
20
-159.382897
11
519.976167
21
-159.382897
0
LINE
8
hello_you v6_Sketch1
10
519.976167
20
-159.382897
11
519.940889
21
-159.444000
0
LINE
8
hello_you v6_Sketch1
10
519.940889
20
-159.444000
11
519.976167
21
-159.505103
0
LINE
8
hello_you v6_Sketch1
10
519.976167
20
-159.505103
11
520.046722
21
-159.505103
0
LINE
8
hello_you v6_Sketch1
10
520.046722
20
-159.505103
11
520.082000
21
-159.444000
0
LINE
8
hello_you v6_Sketch1
10
520.082000
20
-159.444000
11
520.082000
21
-159.444000
0
LINE
8
hello_you v6_Sketch1
10
435.484000
20
257.902000
11
432.821192
21
257.478344
0
LINE
8
hello_you v6_Sketch1
10
432.821192
20
257.478344
11
430.257760
21
256.809819
0
LINE
8
hello_you v6_Sketch1
10
430.257760
20
256.809819
11
427.805020
21
255.909762
0
LINE
8
hello_you v6_Sketch1
10
427.805020
20
255.909762
11
425.474286
21
254.791511
0
LINE
8
hello_you v6_Sketch1
10
425.474286
20
254.791511
11
423.276875
21
253.468404
0
LINE
8
hello_you v6_Sketch1
10
423.276875
20
253.468404
11
421.224101
21
251.953777
0
LINE
8
hello_you v6_Sketch1
10
421.224101
20
251.953777
11
419.327280
21
250.260969
0
LINE
8
hello_you v6_Sketch1
10
419.327280
20
250.260969
11
417.597727
21
248.403317
0
LINE
8
hello_you v6_Sketch1
10
417.597727
20
248.403317
11
416.046758
21
246.394159
0
LINE
8
hello_you v6_Sketch1
10
416.046758
20
246.394159
11
414.685687
21
244.246832
0
LINE
8
hello_you v6_Sketch1
10
414.685687
20
244.246832
11
413.525830
21
241.974673
0
LINE
8
hello_you v6_Sketch1
10
413.525830
20
241.974673
11
412.578502
21
239.591021
0
LINE
8
hello_you v6_Sketch1
10
412.578502
20
239.591021
11
411.855019
21
237.109212
0
LINE
8
hello_you v6_Sketch1
10
411.855019
20
237.109212
11
411.366696
21
234.542584
0
LINE
8
hello_you v6_Sketch1
10
411.366696
20
234.542584
11
411.124847
21
231.904475
0
LINE
8
hello_you v6_Sketch1
10
411.124847
20
231.904475
11
411.140789
21
229.208223
0
LINE
8
hello_you v6_Sketch1
10
411.140789
20
229.208223
11
411.418594
21
226.526272
0
LINE
8
hello_you v6_Sketch1
10
411.418594
20
226.526272
11
411.946323
21
223.930196
0
LINE
8
hello_you v6_Sketch1
10
411.946323
20
223.930196
11
412.711276
21
221.432020
0
LINE
8
hello_you v6_Sketch1
10
412.711276
20
221.432020
11
413.700752
21
219.043770
0
LINE
8
hello_you v6_Sketch1
10
413.700752
20
219.043770
11
414.902051
21
216.777471
0
LINE
8
hello_you v6_Sketch1
10
414.902051
20
216.777471
11
416.302472
21
214.645149
0
LINE
8
hello_you v6_Sketch1
10
416.302472
20
214.645149
11
417.889314
21
212.658831
0
LINE
8
hello_you v6_Sketch1
10
417.889314
20
212.658831
11
419.649877
21
210.830542
0
LINE
8
hello_you v6_Sketch1
10
419.649877
20
210.830542
11
421.571461
21
209.172308
0
LINE
8
hello_you v6_Sketch1
10
421.571461
20
209.172308
11
423.641364
21
207.696154
0
LINE
8
hello_you v6_Sketch1
10
423.641364
20
207.696154
11
425.846886
21
206.414108
0
LINE
8
hello_you v6_Sketch1
10
425.846886
20
206.414108
11
428.175327
21
205.338193
0
LINE
8
hello_you v6_Sketch1
10
428.175327
20
205.338193
11
430.613986
21
204.480437
0
LINE
8
hello_you v6_Sketch1
10
430.613986
20
204.480437
11
433.150162
21
203.852865
0
LINE
8
hello_you v6_Sketch1
10
433.150162
20
203.852865
11
435.771156
21
203.467503
0
LINE
8
hello_you v6_Sketch1
10
435.771156
20
203.467503
11
438.464265
21
203.336376
0
LINE
8
hello_you v6_Sketch1
10
438.464265
20
203.336376
11
441.157374
21
203.467503
0
LINE
8
hello_you v6_Sketch1
10
441.157374
20
203.467503
11
443.778368
21
203.852865
0
LINE
8
hello_you v6_Sketch1
10
443.778368
20
203.852865
11
446.314544
21
204.480437
0
LINE
8
hello_you v6_Sketch1
10
446.314544
20
204.480437
11
448.753203
21
205.338193
0
LINE
8
hello_you v6_Sketch1
10
448.753203
20
205.338193
11
451.081644
21
206.414108
0
LINE
8
hello_you v6_Sketch1
10
451.081644
20
206.414108
11
453.287166
21
207.696154
0
LINE
8
hello_you v6_Sketch1
10
453.287166
20
207.696154
11
455.357069
21
209.172308
0
LINE
8
hello_you v6_Sketch1
10
455.357069
20
209.172308
11
457.278653
21
210.830542
0
LINE
8
hello_you v6_Sketch1
10
457.278653
20
210.830542
11
459.039216
21
212.658831
0
LINE
8
hello_you v6_Sketch1
10
459.039216
20
212.658831
11
460.626058
21
214.645149
0
LINE
8
hello_you v6_Sketch1
10
460.626058
20
214.645149
11
462.026479
21
216.777471
0
LINE
8
hello_you v6_Sketch1
10
462.026479
20
216.777471
11
463.227778
21
219.043770
0
LINE
8
hello_you v6_Sketch1
10
463.227778
20
219.043770
11
464.217254
21
221.432020
0
LINE
8
hello_you v6_Sketch1
10
464.217254
20
221.432020
11
464.982207
21
223.930196
0
LINE
8
hello_you v6_Sketch1
10
464.982207
20
223.930196
11
465.509936
21
226.526272
0
LINE
8
hello_you v6_Sketch1
10
465.509936
20
226.526272
11
465.787741
21
229.208223
0
LINE
8
hello_you v6_Sketch1
10
465.787741
20
229.208223
11
465.803683
21
231.904475
0
LINE
8
hello_you v6_Sketch1
10
465.803683
20
231.904475
11
465.561834
21
234.542584
0
LINE
8
hello_you v6_Sketch1
10
465.561834
20
234.542584
11
465.073511
21
237.109212
0
LINE
8
hello_you v6_Sketch1
10
465.073511
20
237.109212
11
464.350028
21
239.591021
0
LINE
8
hello_you v6_Sketch1
10
464.350028
20
239.591021
11
463.402700
21
241.974673
0
LINE
8
hello_you v6_Sketch1
10
463.402700
20
241.974673
11
462.242843
21
244.246832
0
LINE
8
hello_you v6_Sketch1
10
462.242843
20
244.246832
11
460.881772
21
246.394159
0
LINE
8
hello_you v6_Sketch1
10
460.881772
20
246.394159
11
459.330803
21
248.403317
0
LINE
8
hello_you v6_Sketch1
10
459.330803
20
248.403317
11
457.601250
21
250.260969
0
LINE
8
hello_you v6_Sketch1
10
457.601250
20
250.260969
11
455.704429
21
251.953777
0
LINE
8
hello_you v6_Sketch1
10
455.704429
20
251.953777
11
453.651655
21
253.468404
0
LINE
8
hello_you v6_Sketch1
10
453.651655
20
253.468404
11
451.454244
21
254.791511
0
LINE
8
hello_you v6_Sketch1
10
451.454244
20
254.791511
11
449.123510
21
255.909762
0
LINE
8
hello_you v6_Sketch1
10
449.123510
20
255.909762
11
446.670770
21
256.809819
0
LINE
8
hello_you v6_Sketch1
10
446.670770
20
256.809819
11
444.107338
21
257.478344
0
LINE
8
hello_you v6_Sketch1
10
444.107338
20
257.478344
11
441.444530
21
257.902000
0
LINE
8
hello_you v6_Sketch1
10
282.281000
20
-159.542000
11
282.069984
21
-157.951446
0
LINE
8
hello_you v6_Sketch1
10
282.069984
20
-157.951446
11
281.464291
21
-156.494000
0
LINE
8
hello_you v6_Sketch1
10
281.464291
20
-156.494000
11
280.504952
21
-155.240731
0
LINE
8
hello_you v6_Sketch1
10
280.504952
20
-155.240731
11
279.233000
21
-154.262709
0
LINE
8
hello_you v6_Sketch1
10
279.233000
20
-154.262709
11
277.750032
21
-153.650177
0
LINE
8
hello_you v6_Sketch1
10
277.750032
20
-153.650177
11
276.185000
21
-153.446000
0
LINE
8
hello_you v6_Sketch1
10
276.185000
20
-153.446000
11
274.619968
21
-153.650177
0
LINE
8
hello_you v6_Sketch1
10
274.619968
20
-153.650177
11
273.137000
21
-154.262709
0
LINE
8
hello_you v6_Sketch1
10
273.137000
20
-154.262709
11
271.865048
21
-155.240731
0
LINE
8
hello_you v6_Sketch1
10
271.865048
20
-155.240731
11
270.905709
21
-156.494000
0
LINE
8
hello_you v6_Sketch1
10
270.905709
20
-156.494000
11
270.300016
21
-157.951446
0
LINE
8
hello_you v6_Sketch1
10
270.300016
20
-157.951446
11
270.089000
21
-159.542000
0
LINE
8
hello_you v6_Sketch1
10
270.089000
20
-159.542000
11
270.300016
21
-161.132554
0
LINE
8
hello_you v6_Sketch1
10
270.300016
20
-161.132554
11
270.905709
21
-162.590000
0
LINE
8
hello_you v6_Sketch1
10
270.905709
20
-162.590000
11
271.865048
21
-163.843269
0
LINE
8
hello_you v6_Sketch1
10
271.865048
20
-163.843269
11
273.137000
21
-164.821291
0
LINE
8
hello_you v6_Sketch1
10
273.137000
20
-164.821291
11
274.619968
21
-165.433823
0
LINE
8
hello_you v6_Sketch1
10
274.619968
20
-165.433823
11
276.185000
21
-165.638000
0
LINE
8
hello_you v6_Sketch1
10
276.185000
20
-165.638000
11
277.750032
21
-165.433823
0
LINE
8
hello_you v6_Sketch1
10
277.750032
20
-165.433823
11
279.233000
21
-164.821291
0
LINE
8
hello_you v6_Sketch1
10
279.233000
20
-164.821291
11
280.504952
21
-163.843269
0
LINE
8
hello_you v6_Sketch1
10
280.504952
20
-163.843269
11
281.464291
21
-162.590000
0
LINE
8
hello_you v6_Sketch1
10
281.464291
20
-162.590000
11
282.069984
21
-161.132554
0
LINE
8
hello_you v6_Sketch1
10
282.069984
20
-161.132554
11
282.281000
21
-159.542000
0
LINE
8
hello_you v6_Sketch1
10
282.281000
20
-159.542000
11
282.281000
21
-159.542000
0
LINE
8
hello_you v6_Sketch1
10
-797.469000
20
-251.632000
11
828.130000
21
-251.632000
0
LINE
8
hello_you v6_Sketch1
10
506.196000
20
260.501000
11
512.157000
21
260.501000
0
LINE
8
hello_you v6_Sketch1
10
404.200000
20
84.820100
11
405.111669
21
82.720329
0
LINE
8
hello_you v6_Sketch1
10
405.111669
20
82.720329
11
406.169496
21
80.717493
0
LINE
8
hello_you v6_Sketch1
10
406.169496
20
80.717493
11
407.365704
21
78.816909
0
LINE
8
hello_you v6_Sketch1
10
407.365704
20
78.816909
11
408.692517
21
77.023894
0
LINE
8
hello_you v6_Sketch1
10
408.692517
20
77.023894
11
410.142158
21
75.343766
0
LINE
8
hello_you v6_Sketch1
10
410.142158
20
75.343766
11
411.706849
21
73.781841
0
LINE
8
hello_you v6_Sketch1
10
411.706849
20
73.781841
11
413.378815
21
72.343436
0
LINE
8
hello_you v6_Sketch1
10
413.378815
20
72.343436
11
415.150277
21
71.033869
0
LINE
8
hello_you v6_Sketch1
10
415.150277
20
71.033869
11
417.013460
21
69.858456
0
LINE
8
hello_you v6_Sketch1
10
417.013460
20
69.858456
11
418.960586
21
68.822513
0
LINE
8
hello_you v6_Sketch1
10
418.960586
20
68.822513
11
420.983878
21
67.931359
0
LINE
8
hello_you v6_Sketch1
10
420.983878
20
67.931359
11
423.075561
21
67.190310
0
LINE
8
hello_you v6_Sketch1
10
423.075561
20
67.190310
11
425.227856
21
66.604684
0
LINE
8
hello_you v6_Sketch1
10
425.227856
20
66.604684
11
427.432987
21
66.179796
0
LINE
8
hello_you v6_Sketch1
10
427.432987
20
66.179796
11
429.683177
21
65.920964
0
LINE
8
hello_you v6_Sketch1
10
429.683177
20
65.920964
11
431.970650
21
65.833505
0
LINE
8
hello_you v6_Sketch1
10
431.970650
20
65.833505
11
434.258123
21
65.920964
0
LINE
8
hello_you v6_Sketch1
10
434.258123
20
65.920964
11
436.508313
21
66.179796
0
LINE
8
hello_you v6_Sketch1
10
436.508313
20
66.179796
11
438.713444
21
66.604684
0
LINE
8
hello_you v6_Sketch1
10
438.713444
20
66.604684
11
440.865739
21
67.190310
0
LINE
8
hello_you v6_Sketch1
10
440.865739
20
67.190310
11
442.957422
21
67.931359
0
LINE
8
hello_you v6_Sketch1
10
442.957422
20
67.931359
11
444.980714
21
68.822513
0
LINE
8
hello_you v6_Sketch1
10
444.980714
20
68.822513
11
446.927840
21
69.858456
0
LINE
8
hello_you v6_Sketch1
10
446.927840
20
69.858456
11
448.791023
21
71.033869
0
LINE
8
hello_you v6_Sketch1
10
448.791023
20
71.033869
11
450.562485
21
72.343436
0
LINE
8
hello_you v6_Sketch1
10
450.562485
20
72.343436
11
452.234451
21
73.781841
0
LINE
8
hello_you v6_Sketch1
10
452.234451
20
73.781841
11
453.799142
21
75.343766
0
LINE
8
hello_you v6_Sketch1
10
453.799142
20
75.343766
11
455.248783
21
77.023894
0
LINE
8
hello_you v6_Sketch1
10
455.248783
20
77.023894
11
456.575596
21
78.816909
0
LINE
8
hello_you v6_Sketch1
10
456.575596
20
78.816909
11
457.771804
21
80.717493
0
LINE
8
hello_you v6_Sketch1
10
457.771804
20
80.717493
11
458.829631
21
82.720329
0
LINE
8
hello_you v6_Sketch1
10
458.829631
20
82.720329
11
459.741300
21
84.820100
0
LINE
8
hello_you v6_Sketch1
10
506.196000
20
257.900000
11
506.196000
21
260.501000
0
LINE
8
hello_you v6_Sketch1
10
541.419000
20
104.824000
11
538.756192
21
104.400344
0
LINE
8
hello_you v6_Sketch1
10
538.756192
20
104.400344
11
536.192760
21
103.731819
0
LINE
8
hello_you v6_Sketch1
10
536.192760
20
103.731819
11
533.740020
21
102.831762
0
LINE
8
hello_you v6_Sketch1
10
533.740020
20
102.831762
11
531.409286
21
101.713511
0
LINE
8
hello_you v6_Sketch1
10
531.409286
20
101.713511
11
529.211875
21
100.390404
0
LINE
8
hello_you v6_Sketch1
10
529.211875
20
100.390404
11
527.159101
21
98.875777
0
LINE
8
hello_you v6_Sketch1
10
527.159101
20
98.875777
11
525.262280
21
97.182969
0
LINE
8
hello_you v6_Sketch1
10
525.262280
20
97.182969
11
523.532727
21
95.325317
0
LINE
8
hello_you v6_Sketch1
10
523.532727
20
95.325317
11
521.981758
21
93.316159
0
LINE
8
hello_you v6_Sketch1
10
521.981758
20
93.316159
11
520.620687
21
91.168832
0
LINE
8
hello_you v6_Sketch1
10
520.620687
20
91.168832
11
519.460830
21
88.896673
0
LINE
8
hello_you v6_Sketch1
10
519.460830
20
88.896673
11
518.513502
21
86.513021
0
LINE
8
hello_you v6_Sketch1
10
518.513502
20
86.513021
11
517.790019
21
84.031212
0
LINE
8
hello_you v6_Sketch1
10
517.790019
20
84.031212
11
517.301696
21
81.464584
0
LINE
8
hello_you v6_Sketch1
10
517.301696
20
81.464584
11
517.059847
21
78.826475
0
LINE
8
hello_you v6_Sketch1
10
517.059847
20
78.826475
11
517.075789
21
76.130223
0
LINE
8
hello_you v6_Sketch1
10
517.075789
20
76.130223
11
517.353594
21
73.448272
0
LINE
8
hello_you v6_Sketch1
10
517.353594
20
73.448272
11
517.881323
21
70.852196
0
LINE
8
hello_you v6_Sketch1
10
517.881323
20
70.852196
11
518.646276
21
68.354020
0
LINE
8
hello_you v6_Sketch1
10
518.646276
20
68.354020
11
519.635752
21
65.965770
0
LINE
8
hello_you v6_Sketch1
10
519.635752
20
65.965770
11
520.837051
21
63.699471
0
LINE
8
hello_you v6_Sketch1
10
520.837051
20
63.699471
11
522.237472
21
61.567149
0
LINE
8
hello_you v6_Sketch1
10
522.237472
20
61.567149
11
523.824314
21
59.580831
0
LINE
8
hello_you v6_Sketch1
10
523.824314
20
59.580831
11
525.584877
21
57.752542
0
LINE
8
hello_you v6_Sketch1
10
525.584877
20
57.752542
11
527.506461
21
56.094308
0
LINE
8
hello_you v6_Sketch1
10
527.506461
20
56.094308
11
529.576364
21
54.618154
0
LINE
8
hello_you v6_Sketch1
10
529.576364
20
54.618154
11
531.781886
21
53.336108
0
LINE
8
hello_you v6_Sketch1
10
531.781886
20
53.336108
11
534.110327
21
52.260193
0
LINE
8
hello_you v6_Sketch1
10
534.110327
20
52.260193
11
536.548986
21
51.402437
0
LINE
8
hello_you v6_Sketch1
10
536.548986
20
51.402437
11
539.085162
21
50.774865
0
LINE
8
hello_you v6_Sketch1
10
539.085162
20
50.774865
11
541.706156
21
50.389503
0
LINE
8
hello_you v6_Sketch1
10
541.706156
20
50.389503
11
544.399265
21
50.258376
0
LINE
8
hello_you v6_Sketch1
10
544.399265
20
50.258376
11
547.092374
21
50.389503
0
LINE
8
hello_you v6_Sketch1
10
547.092374
20
50.389503
11
549.713368
21
50.774865
0
LINE
8
hello_you v6_Sketch1
10
549.713368
20
50.774865
11
552.249544
21
51.402437
0
LINE
8
hello_you v6_Sketch1
10
552.249544
20
51.402437
11
554.688203
21
52.260193
0
LINE
8
hello_you v6_Sketch1
10
554.688203
20
52.260193
11
557.016644
21
53.336108
0
LINE
8
hello_you v6_Sketch1
10
557.016644
20
53.336108
11
559.222166
21
54.618154
0
LINE
8
hello_you v6_Sketch1
10
559.222166
20
54.618154
11
561.292069
21
56.094308
0
LINE
8
hello_you v6_Sketch1
10
561.292069
20
56.094308
11
563.213653
21
57.752542
0
LINE
8
hello_you v6_Sketch1
10
563.213653
20
57.752542
11
564.974216
21
59.580831
0
LINE
8
hello_you v6_Sketch1
10
564.974216
20
59.580831
11
566.561058
21
61.567149
0
LINE
8
hello_you v6_Sketch1
10
566.561058
20
61.567149
11
567.961479
21
63.699471
0
LINE
8
hello_you v6_Sketch1
10
567.961479
20
63.699471
11
569.162778
21
65.965770
0
LINE
8
hello_you v6_Sketch1
10
569.162778
20
65.965770
11
570.152254
21
68.354020
0
LINE
8
hello_you v6_Sketch1
10
570.152254
20
68.354020
11
570.917207
21
70.852196
0
LINE
8
hello_you v6_Sketch1
10
570.917207
20
70.852196
11
571.444936
21
73.448272
0
LINE
8
hello_you v6_Sketch1
10
571.444936
20
73.448272
11
571.722741
21
76.130223
0
LINE
8
hello_you v6_Sketch1
10
571.722741
20
76.130223
11
571.738683
21
78.826475
0
LINE
8
hello_you v6_Sketch1
10
571.738683
20
78.826475
11
571.496834
21
81.464584
0
LINE
8
hello_you v6_Sketch1
10
571.496834
20
81.464584
11
571.008511
21
84.031212
0
LINE
8
hello_you v6_Sketch1
10
571.008511
20
84.031212
11
570.285028
21
86.513021
0
LINE
8
hello_you v6_Sketch1
10
570.285028
20
86.513021
11
569.337700
21
88.896673
0
LINE
8
hello_you v6_Sketch1
10
569.337700
20
88.896673
11
568.177843
21
91.168832
0
LINE
8
hello_you v6_Sketch1
10
568.177843
20
91.168832
11
566.816772
21
93.316159
0
LINE
8
hello_you v6_Sketch1
10
566.816772
20
93.316159
11
565.265803
21
95.325317
0
LINE
8
hello_you v6_Sketch1
10
565.265803
20
95.325317
11
563.536250
21
97.182969
0
LINE
8
hello_you v6_Sketch1
10
563.536250
20
97.182969
11
561.639429
21
98.875777
0
LINE
8
hello_you v6_Sketch1
10
561.639429
20
98.875777
11
559.586655
21
100.390404
0
LINE
8
hello_you v6_Sketch1
10
559.586655
20
100.390404
11
557.389244
21
101.713511
0
LINE
8
hello_you v6_Sketch1
10
557.389244
20
101.713511
11
555.058510
21
102.831762
0
LINE
8
hello_you v6_Sketch1
10
555.058510
20
102.831762
11
552.605770
21
103.731819
0
LINE
8
hello_you v6_Sketch1
10
552.605770
20
103.731819
11
550.042338
21
104.400344
0
LINE
8
hello_you v6_Sketch1
10
550.042338
20
104.400344
11
547.379530
21
104.824000
0
LINE
8
hello_you v6_Sketch1
10
435.483000
20
257.901000
11
435.483000
21
260.503000
0
LINE
8
hello_you v6_Sketch1
10
-505.146000
20
-75.525200
11
-505.146000
21
-60.744900
0
LINE
8
hello_you v6_Sketch1
10
-328.836000
20
246.885000
11
-329.047016
21
248.475554
0
LINE
8
hello_you v6_Sketch1
10
-329.047016
20
248.475554
11
-329.652709
21
249.933000
0
LINE
8
hello_you v6_Sketch1
10
-329.652709
20
249.933000
11
-330.612048
21
251.186269
0
LINE
8
hello_you v6_Sketch1
10
-330.612048
20
251.186269
11
-331.884000
21
252.164291
0
LINE
8
hello_you v6_Sketch1
10
-331.884000
20
252.164291
11
-333.366968
21
252.776823
0
LINE
8
hello_you v6_Sketch1
10
-333.366968
20
252.776823
11
-334.932000
21
252.981000
0
LINE
8
hello_you v6_Sketch1
10
-334.932000
20
252.981000
11
-336.497032
21
252.776823
0
LINE
8
hello_you v6_Sketch1
10
-336.497032
20
252.776823
11
-337.980000
21
252.164291
0
LINE
8
hello_you v6_Sketch1
10
-337.980000
20
252.164291
11
-339.251952
21
251.186269
0
LINE
8
hello_you v6_Sketch1
10
-339.251952
20
251.186269
11
-340.211291
21
249.933000
0
LINE
8
hello_you v6_Sketch1
10
-340.211291
20
249.933000
11
-340.816984
21
248.475554
0
LINE
8
hello_you v6_Sketch1
10
-340.816984
20
248.475554
11
-341.028000
21
246.885000
0
LINE
8
hello_you v6_Sketch1
10
-341.028000
20
246.885000
11
-340.816984
21
245.294446
0
LINE
8
hello_you v6_Sketch1
10
-340.816984
20
245.294446
11
-340.211291
21
243.837000
0
LINE
8
hello_you v6_Sketch1
10
-340.211291
20
243.837000
11
-339.251952
21
242.583731
0
LINE
8
hello_you v6_Sketch1
10
-339.251952
20
242.583731
11
-337.980000
21
241.605709
0
LINE
8
hello_you v6_Sketch1
10
-337.980000
20
241.605709
11
-336.497032
21
240.993177
0
LINE
8
hello_you v6_Sketch1
10
-336.497032
20
240.993177
11
-334.932000
21
240.789000
0
LINE
8
hello_you v6_Sketch1
10
-334.932000
20
240.789000
11
-333.366968
21
240.993177
0
LINE
8
hello_you v6_Sketch1
10
-333.366968
20
240.993177
11
-331.884000
21
241.605709
0
LINE
8
hello_you v6_Sketch1
10
-331.884000
20
241.605709
11
-330.612048
21
242.583731
0
LINE
8
hello_you v6_Sketch1
10
-330.612048
20
242.583731
11
-329.652709
21
243.837000
0
LINE
8
hello_you v6_Sketch1
10
-329.652709
20
243.837000
11
-329.047016
21
245.294446
0
LINE
8
hello_you v6_Sketch1
10
-329.047016
20
245.294446
11
-328.836000
21
246.885000
0
LINE
8
hello_you v6_Sketch1
10
-328.836000
20
246.885000
11
-328.836000
21
246.885000
0
LINE
8
hello_you v6_Sketch1
10
-505.146000
20
-155.572000
11
-505.146000
21
-185.132000
0
LINE
8
hello_you v6_Sketch1
10
-377.604000
20
198.117000
11
-377.815016
21
199.707554
0
LINE
8
hello_you v6_Sketch1
10
-377.815016
20
199.707554
11
-378.420709
21
201.165000
0
LINE
8
hello_you v6_Sketch1
10
-378.420709
20
201.165000
11
-379.380048
21
202.418269
0
LINE
8
hello_you v6_Sketch1
10
-379.380048
20
202.418269
11
-380.652000
21
203.396291
0
LINE
8
hello_you v6_Sketch1
10
-380.652000
20
203.396291
11
-382.134968
21
204.008823
0
LINE
8
hello_you v6_Sketch1
10
-382.134968
20
204.008823
11
-383.700000
21
204.213000
0
LINE
8
hello_you v6_Sketch1
10
-383.700000
20
204.213000
11
-385.265032
21
204.008823
0
LINE
8
hello_you v6_Sketch1
10
-385.265032
20
204.008823
11
-386.748000
21
203.396291
0
LINE
8
hello_you v6_Sketch1
10
-386.748000
20
203.396291
11
-388.019952
21
202.418269
0
LINE
8
hello_you v6_Sketch1
10
-388.019952
20
202.418269
11
-388.979291
21
201.165000
0
LINE
8
hello_you v6_Sketch1
10
-388.979291
20
201.165000
11
-389.584984
21
199.707554
0
LINE
8
hello_you v6_Sketch1
10
-389.584984
20
199.707554
11
-389.796000
21
198.117000
0
LINE
8
hello_you v6_Sketch1
10
-389.796000
20
198.117000
11
-389.584984
21
196.526446
0
LINE
8
hello_you v6_Sketch1
10
-389.584984
20
196.526446
11
-388.979291
21
195.069000
0
LINE
8
hello_you v6_Sketch1
10
-388.979291
20
195.069000
11
-388.019952
21
193.815731
0
LINE
8
hello_you v6_Sketch1
10
-388.019952
20
193.815731
11
-386.748000
21
192.837709
0
LINE
8
hello_you v6_Sketch1
10
-386.748000
20
192.837709
11
-385.265032
21
192.225177
0
LINE
8
hello_you v6_Sketch1
10
-385.265032
20
192.225177
11
-383.700000
21
192.021000
0
LINE
8
hello_you v6_Sketch1
10
-383.700000
20
192.021000
11
-382.134968
21
192.225177
0
LINE
8
hello_you v6_Sketch1
10
-382.134968
20
192.225177
11
-380.652000
21
192.837709
0
LINE
8
hello_you v6_Sketch1
10
-380.652000
20
192.837709
11
-379.380048
21
193.815731
0
LINE
8
hello_you v6_Sketch1
10
-379.380048
20
193.815731
11
-378.420709
21
195.069000
0
LINE
8
hello_you v6_Sketch1
10
-378.420709
20
195.069000
11
-377.815016
21
196.526446
0
LINE
8
hello_you v6_Sketch1
10
-377.815016
20
196.526446
11
-377.604000
21
198.117000
0
LINE
8
hello_you v6_Sketch1
10
-377.604000
20
198.117000
11
-377.604000
21
198.117000
0
LINE
8
hello_you v6_Sketch1
10
282.281000
20
246.885000
11
282.069984
21
248.475554
0
LINE
8
hello_you v6_Sketch1
10
282.069984
20
248.475554
11
281.464291
21
249.933000
0
LINE
8
hello_you v6_Sketch1
10
281.464291
20
249.933000
11
280.504952
21
251.186269
0
LINE
8
hello_you v6_Sketch1
10
280.504952
20
251.186269
11
279.233000
21
252.164291
0
LINE
8
hello_you v6_Sketch1
10
279.233000
20
252.164291
11
277.750032
21
252.776823
0
LINE
8
hello_you v6_Sketch1
10
277.750032
20
252.776823
11
276.185000
21
252.981000
0
LINE
8
hello_you v6_Sketch1
10
276.185000
20
252.981000
11
274.619968
21
252.776823
0
LINE
8
hello_you v6_Sketch1
10
274.619968
20
252.776823
11
273.137000
21
252.164291
0
LINE
8
hello_you v6_Sketch1
10
273.137000
20
252.164291
11
271.865048
21
251.186269
0
LINE
8
hello_you v6_Sketch1
10
271.865048
20
251.186269
11
270.905709
21
249.933000
0
LINE
8
hello_you v6_Sketch1
10
270.905709
20
249.933000
11
270.300016
21
248.475554
0
LINE
8
hello_you v6_Sketch1
10
270.300016
20
248.475554
11
270.089000
21
246.885000
0
LINE
8
hello_you v6_Sketch1
10
270.089000
20
246.885000
11
270.300016
21
245.294446
0
LINE
8
hello_you v6_Sketch1
10
270.300016
20
245.294446
11
270.905709
21
243.837000
0
LINE
8
hello_you v6_Sketch1
10
270.905709
20
243.837000
11
271.865048
21
242.583731
0
LINE
8
hello_you v6_Sketch1
10
271.865048
20
242.583731
11
273.137000
21
241.605709
0
LINE
8
hello_you v6_Sketch1
10
273.137000
20
241.605709
11
274.619968
21
240.993177
0
LINE
8
hello_you v6_Sketch1
10
274.619968
20
240.993177
11
276.185000
21
240.789000
0
LINE
8
hello_you v6_Sketch1
10
276.185000
20
240.789000
11
277.750032
21
240.993177
0
LINE
8
hello_you v6_Sketch1
10
277.750032
20
240.993177
11
279.233000
21
241.605709
0
LINE
8
hello_you v6_Sketch1
10
279.233000
20
241.605709
11
280.504952
21
242.583731
0
LINE
8
hello_you v6_Sketch1
10
280.504952
20
242.583731
11
281.464291
21
243.837000
0
LINE
8
hello_you v6_Sketch1
10
281.464291
20
243.837000
11
282.069984
21
245.294446
0
LINE
8
hello_you v6_Sketch1
10
282.069984
20
245.294446
11
282.281000
21
246.885000
0
LINE
8
hello_you v6_Sketch1
10
282.281000
20
246.885000
11
282.281000
21
246.885000
0
LINE
8
hello_you v6_Sketch1
10
692.663000
20
290.235000
11
828.130000
21
-251.631000
0
LINE
8
hello_you v6_Sketch1
10
459.742000
20
95.636300
11
459.742000
21
106.452000
0
LINE
8
hello_you v6_Sketch1
10
404.201000
20
95.636300
11
404.201000
21
84.820100
0
LINE
8
hello_you v6_Sketch1
10
459.742000
20
106.452000
11
458.830331
21
108.551771
0
LINE
8
hello_you v6_Sketch1
10
458.830331
20
108.551771
11
457.772504
21
110.554607
0
LINE
8
hello_you v6_Sketch1
10
457.772504
20
110.554607
11
456.576296
21
112.455191
0
LINE
8
hello_you v6_Sketch1
10
456.576296
20
112.455191
11
455.249483
21
114.248206
0
LINE
8
hello_you v6_Sketch1
10
455.249483
20
114.248206
11
453.799842
21
115.928334
0
LINE
8
hello_you v6_Sketch1
10
453.799842
20
115.928334
11
452.235151
21
117.490259
0
LINE
8
hello_you v6_Sketch1
10
452.235151
20
117.490259
11
450.563185
21
118.928664
0
LINE
8
hello_you v6_Sketch1
10
450.563185
20
118.928664
11
448.791723
21
120.238231
0
LINE
8
hello_you v6_Sketch1
10
448.791723
20
120.238231
11
446.928540
21
121.413644
0
LINE
8
hello_you v6_Sketch1
10
446.928540
20
121.413644
11
444.981414
21
122.449587
0
LINE
8
hello_you v6_Sketch1
10
444.981414
20
122.449587
11
442.958122
21
123.340741
0
LINE
8
hello_you v6_Sketch1
10
442.958122
20
123.340741
11
440.866439
21
124.081790
0
LINE
8
hello_you v6_Sketch1
10
440.866439
20
124.081790
11
438.714144
21
124.667416
0
LINE
8
hello_you v6_Sketch1
10
438.714144
20
124.667416
11
436.509013
21
125.092304
0
LINE
8
hello_you v6_Sketch1
10
436.509013
20
125.092304
11
434.258823
21
125.351136
0
LINE
8
hello_you v6_Sketch1
10
434.258823
20
125.351136
11
431.971350
21
125.438595
0
LINE
8
hello_you v6_Sketch1
10
431.971350
20
125.438595
11
429.683877
21
125.351136
0
LINE
8
hello_you v6_Sketch1
10
429.683877
20
125.351136
11
427.433687
21
125.092304
0
LINE
8
hello_you v6_Sketch1
10
427.433687
20
125.092304
11
425.228556
21
124.667416
0
LINE
8
hello_you v6_Sketch1
10
425.228556
20
124.667416
11
423.076261
21
124.081790
0
LINE
8
hello_you v6_Sketch1
10
423.076261
20
124.081790
11
420.984578
21
123.340741
0
LINE
8
hello_you v6_Sketch1
10
420.984578
20
123.340741
11
418.961286
21
122.449587
0
LINE
8
hello_you v6_Sketch1
10
418.961286
20
122.449587
11
417.014160
21
121.413644
0
LINE
8
hello_you v6_Sketch1
10
417.014160
20
121.413644
11
415.150977
21
120.238231
0
LINE
8
hello_you v6_Sketch1
10
415.150977
20
120.238231
11
413.379515
21
118.928664
0
LINE
8
hello_you v6_Sketch1
10
413.379515
20
118.928664
11
411.707549
21
117.490259
0
LINE
8
hello_you v6_Sketch1
10
411.707549
20
117.490259
11
410.142858
21
115.928334
0
LINE
8
hello_you v6_Sketch1
10
410.142858
20
115.928334
11
408.693217
21
114.248206
0
LINE
8
hello_you v6_Sketch1
10
408.693217
20
114.248206
11
407.366404
21
112.455191
0
LINE
8
hello_you v6_Sketch1
10
407.366404
20
112.455191
11
406.170196
21
110.554607
0
LINE
8
hello_you v6_Sketch1
10
406.170196
20
110.554607
11
405.112369
21
108.551771
0
LINE
8
hello_you v6_Sketch1
10
405.112369
20
108.551771
11
404.200700
21
106.452000
0
LINE
8
hello_you v6_Sketch1
10
233.513000
20
-208.309000
11
233.301984
21
-206.718446
0
LINE
8
hello_you v6_Sketch1
10
233.301984
20
-206.718446
11
232.696291
21
-205.261000
0
LINE
8
hello_you v6_Sketch1
10
232.696291
20
-205.261000
11
231.736952
21
-204.007731
0
LINE
8
hello_you v6_Sketch1
10
231.736952
20
-204.007731
11
230.465000
21
-203.029709
0
LINE
8
hello_you v6_Sketch1
10
230.465000
20
-203.029709
11
228.982032
21
-202.417177
0
LINE
8
hello_you v6_Sketch1
10
228.982032
20
-202.417177
11
227.417000
21
-202.213000
0
LINE
8
hello_you v6_Sketch1
10
227.417000
20
-202.213000
11
225.851968
21
-202.417177
0
LINE
8
hello_you v6_Sketch1
10
225.851968
20
-202.417177
11
224.369000
21
-203.029709
0
LINE
8
hello_you v6_Sketch1
10
224.369000
20
-203.029709
11
223.097048
21
-204.007731
0
LINE
8
hello_you v6_Sketch1
10
223.097048
20
-204.007731
11
222.137709
21
-205.261000
0
LINE
8
hello_you v6_Sketch1
10
222.137709
20
-205.261000
11
221.532016
21
-206.718446
0
LINE
8
hello_you v6_Sketch1
10
221.532016
20
-206.718446
11
221.321000
21
-208.309000
0
LINE
8
hello_you v6_Sketch1
10
221.321000
20
-208.309000
11
221.532016
21
-209.899554
0
LINE
8
hello_you v6_Sketch1
10
221.532016
20
-209.899554
11
222.137709
21
-211.357000
0
LINE
8
hello_you v6_Sketch1
10
222.137709
20
-211.357000
11
223.097048
21
-212.610269
0
LINE
8
hello_you v6_Sketch1
10
223.097048
20
-212.610269
11
224.369000
21
-213.588291
0
LINE
8
hello_you v6_Sketch1
10
224.369000
20
-213.588291
11
225.851968
21
-214.200823
0
LINE
8
hello_you v6_Sketch1
10
225.851968
20
-214.200823
11
227.417000
21
-214.405001
0
LINE
8
hello_you v6_Sketch1
10
227.417000
20
-214.405001
11
228.982032
21
-214.200823
0
LINE
8
hello_you v6_Sketch1
10
228.982032
20
-214.200823
11
230.465000
21
-213.588291
0
LINE
8
hello_you v6_Sketch1
10
230.465000
20
-213.588291
11
231.736952
21
-212.610269
0
LINE
8
hello_you v6_Sketch1
10
231.736952
20
-212.610269
11
232.696291
21
-211.357000
0
LINE
8
hello_you v6_Sketch1
10
232.696291
20
-211.357000
11
233.301984
21
-209.899554
0
LINE
8
hello_you v6_Sketch1
10
233.301984
20
-209.899554
11
233.513000
21
-208.309000
0
LINE
8
hello_you v6_Sketch1
10
233.513000
20
-208.309000
11
233.513000
21
-208.309000
0
LINE
8
hello_you v6_Sketch1
10
-328.836000
20
-208.309000
11
-329.047016
21
-206.718446
0
LINE
8
hello_you v6_Sketch1
10
-329.047016
20
-206.718446
11
-329.652709
21
-205.261000
0
LINE
8
hello_you v6_Sketch1
10
-329.652709
20
-205.261000
11
-330.612048
21
-204.007731
0
LINE
8
hello_you v6_Sketch1
10
-330.612048
20
-204.007731
11
-331.884000
21
-203.029709
0
LINE
8
hello_you v6_Sketch1
10
-331.884000
20
-203.029709
11
-333.366968
21
-202.417177
0
LINE
8
hello_you v6_Sketch1
10
-333.366968
20
-202.417177
11
-334.932000
21
-202.213000
0
LINE
8
hello_you v6_Sketch1
10
-334.932000
20
-202.213000
11
-336.497032
21
-202.417177
0
LINE
8
hello_you v6_Sketch1
10
-336.497032
20
-202.417177
11
-337.980000
21
-203.029709
0
LINE
8
hello_you v6_Sketch1
10
-337.980000
20
-203.029709
11
-339.251952
21
-204.007731
0
LINE
8
hello_you v6_Sketch1
10
-339.251952
20
-204.007731
11
-340.211291
21
-205.261000
0
LINE
8
hello_you v6_Sketch1
10
-340.211291
20
-205.261000
11
-340.816984
21
-206.718446
0
LINE
8
hello_you v6_Sketch1
10
-340.816984
20
-206.718446
11
-341.028000
21
-208.309000
0
LINE
8
hello_you v6_Sketch1
10
-341.028000
20
-208.309000
11
-340.816984
21
-209.899554
0
LINE
8
hello_you v6_Sketch1
10
-340.816984
20
-209.899554
11
-340.211291
21
-211.357000
0
LINE
8
hello_you v6_Sketch1
10
-340.211291
20
-211.357000
11
-339.251952
21
-212.610269
0
LINE
8
hello_you v6_Sketch1
10
-339.251952
20
-212.610269
11
-337.980000
21
-213.588291
0
LINE
8
hello_you v6_Sketch1
10
-337.980000
20
-213.588291
11
-336.497032
21
-214.200823
0
LINE
8
hello_you v6_Sketch1
10
-336.497032
20
-214.200823
11
-334.932000
21
-214.405000
0
LINE
8
hello_you v6_Sketch1
10
-334.932000
20
-214.405000
11
-333.366968
21
-214.200823
0
LINE
8
hello_you v6_Sketch1
10
-333.366968
20
-214.200823
11
-331.884000
21
-213.588291
0
LINE
8
hello_you v6_Sketch1
10
-331.884000
20
-213.588291
11
-330.612048
21
-212.610269
0
LINE
8
hello_you v6_Sketch1
10
-330.612048
20
-212.610269
11
-329.652709
21
-211.357000
0
LINE
8
hello_you v6_Sketch1
10
-329.652709
20
-211.357000
11
-329.047016
21
-209.899554
0
LINE
8
hello_you v6_Sketch1
10
-329.047016
20
-209.899554
11
-328.836000
21
-208.309000
0
LINE
8
hello_you v6_Sketch1
10
-328.836000
20
-208.309000
11
-328.836000
21
-208.309000
0
LINE
8
hello_you v6_Sketch1
10
-505.146000
20
-90.305300
11
-503.835182
21
-92.242076
0
LINE
8
hello_you v6_Sketch1
10
-503.835182
20
-92.242076
11
-502.387319
21
-94.041611
0
LINE
8
hello_you v6_Sketch1
10
-502.387319
20
-94.041611
11
-500.812815
21
-95.699870
0
LINE
8
hello_you v6_Sketch1
10
-500.812815
20
-95.699870
11
-499.122073
21
-97.212815
0
LINE
8
hello_you v6_Sketch1
10
-499.122073
20
-97.212815
11
-497.325497
21
-98.576409
0
LINE
8
hello_you v6_Sketch1
10
-497.325497
20
-98.576409
11
-495.433491
21
-99.786615
0
LINE
8
hello_you v6_Sketch1
10
-495.433491
20
-99.786615
11
-493.456458
21
-100.839396
0
LINE
8
hello_you v6_Sketch1
10
-493.456458
20
-100.839396
11
-491.404803
21
-101.730716
0
LINE
8
hello_you v6_Sketch1
10
-491.404803
20
-101.730716
11
-489.288929
21
-102.456536
0
LINE
8
hello_you v6_Sketch1
10
-489.288929
20
-102.456536
11
-487.119239
21
-103.012821
0
LINE
8
hello_you v6_Sketch1
10
-487.119239
20
-103.012821
11
-484.906138
21
-103.395533
0
LINE
8
hello_you v6_Sketch1
10
-484.906138
20
-103.395533
11
-482.660029
21
-103.600636
0
LINE
8
hello_you v6_Sketch1
10
-482.660029
20
-103.600636
11
-480.391315
21
-103.624091
0
LINE
8
hello_you v6_Sketch1
10
-480.391315
20
-103.624091
11
-478.110402
21
-103.461863
0
LINE
8
hello_you v6_Sketch1
10
-478.110402
20
-103.461863
11
-475.827691
21
-103.109914
0
LINE
8
hello_you v6_Sketch1
10
-475.827691
20
-103.109914
11
-473.553587
21
-102.564208
0
LINE
8
hello_you v6_Sketch1
10
-473.553587
20
-102.564208
11
-471.332292
21
-101.832641
0
LINE
8
hello_you v6_Sketch1
10
-471.332292
20
-101.832641
11
-469.205555
21
-100.931737
0
LINE
8
hello_you v6_Sketch1
10
-469.205555
20
-100.931737
11
-467.180104
21
-99.870401
0
LINE
8
hello_you v6_Sketch1
10
-467.180104
20
-99.870401
11
-465.262665
21
-98.657538
0
LINE
8
hello_you v6_Sketch1
10
-465.262665
20
-98.657538
11
-463.459965
21
-97.302051
0
LINE
8
hello_you v6_Sketch1
10
-463.459965
20
-97.302051
11
-461.778730
21
-95.812844
0
LINE
8
hello_you v6_Sketch1
10
-461.778730
20
-95.812844
11
-460.225688
21
-94.198823
0
LINE
8
hello_you v6_Sketch1
10
-460.225688
20
-94.198823
11
-458.807564
21
-92.468891
0
LINE
8
hello_you v6_Sketch1
10
-458.807564
20
-92.468891
11
-457.531087
21
-90.631952
0
LINE
8
hello_you v6_Sketch1
10
-457.531087
20
-90.631952
11
-456.402982
21
-88.696910
0
LINE
8
hello_you v6_Sketch1
10
-456.402982
20
-88.696910
11
-455.429976
21
-86.672671
0
LINE
8
hello_you v6_Sketch1
10
-455.429976
20
-86.672671
11
-454.618796
21
-84.568137
0
LINE
8
hello_you v6_Sketch1
10
-454.618796
20
-84.568137
11
-453.976169
21
-82.392214
0
LINE
8
hello_you v6_Sketch1
10
-453.976169
20
-82.392214
11
-453.508821
21
-80.153806
0
LINE
8
hello_you v6_Sketch1
10
-453.508821
20
-80.153806
11
-453.223480
21
-77.861816
0
LINE
8
hello_you v6_Sketch1
10
-453.223480
20
-77.861816
11
-453.126871
21
-75.525150
0
LINE
8
hello_you v6_Sketch1
10
-453.126871
20
-75.525150
11
-453.223480
21
-73.188484
0
LINE
8
hello_you v6_Sketch1
10
-453.223480
20
-73.188484
11
-453.508821
21
-70.896494
0
LINE
8
hello_you v6_Sketch1
10
-453.508821
20
-70.896494
11
-453.976169
21
-68.658086
0
LINE
8
hello_you v6_Sketch1
10
-453.976169
20
-68.658086
11
-454.618796
21
-66.482163
0
LINE
8
hello_you v6_Sketch1
10
-454.618796
20
-66.482163
11
-455.429976
21
-64.377629
0
LINE
8
hello_you v6_Sketch1
10
-455.429976
20
-64.377629
11
-456.402982
21
-62.353390
0
LINE
8
hello_you v6_Sketch1
10
-456.402982
20
-62.353390
11
-457.531087
21
-60.418348
0
LINE
8
hello_you v6_Sketch1
10
-457.531087
20
-60.418348
11
-458.807564
21
-58.581409
0
LINE
8
hello_you v6_Sketch1
10
-458.807564
20
-58.581409
11
-460.225688
21
-56.851477
0
LINE
8
hello_you v6_Sketch1
10
-460.225688
20
-56.851477
11
-461.778730
21
-55.237456
0
LINE
8
hello_you v6_Sketch1
10
-461.778730
20
-55.237456
11
-463.459965
21
-53.748249
0
LINE
8
hello_you v6_Sketch1
10
-463.459965
20
-53.748249
11
-465.262665
21
-52.392762
0
LINE
8
hello_you v6_Sketch1
10
-465.262665
20
-52.392762
11
-467.180104
21
-51.179899
0
LINE
8
hello_you v6_Sketch1
10
-467.180104
20
-51.179899
11
-469.205555
21
-50.118563
0
LINE
8
hello_you v6_Sketch1
10
-469.205555
20
-50.118563
11
-471.332292
21
-49.217659
0
LINE
8
hello_you v6_Sketch1
10
-471.332292
20
-49.217659
11
-473.553587
21
-48.486092
0
LINE
8
hello_you v6_Sketch1
10
-473.553587
20
-48.486092
11
-475.827691
21
-47.940386
0
LINE
8
hello_you v6_Sketch1
10
-475.827691
20
-47.940386
11
-478.110402
21
-47.588437
0
LINE
8
hello_you v6_Sketch1
10
-478.110402
20
-47.588437
11
-480.391315
21
-47.426209
0
LINE
8
hello_you v6_Sketch1
10
-480.391315
20
-47.426209
11
-482.660029
21
-47.449664
0
LINE
8
hello_you v6_Sketch1
10
-482.660029
20
-47.449664
11
-484.906138
21
-47.654767
0
LINE
8
hello_you v6_Sketch1
10
-484.906138
20
-47.654767
11
-487.119239
21
-48.037479
0
LINE
8
hello_you v6_Sketch1
10
-487.119239
20
-48.037479
11
-489.288929
21
-48.593764
0
LINE
8
hello_you v6_Sketch1
10
-489.288929
20
-48.593764
11
-491.404803
21
-49.319584
0
LINE
8
hello_you v6_Sketch1
10
-491.404803
20
-49.319584
11
-493.456458
21
-50.210904
0
LINE
8
hello_you v6_Sketch1
10
-493.456458
20
-50.210904
11
-495.433491
21
-51.263685
0
LINE
8
hello_you v6_Sketch1
10
-495.433491
20
-51.263685
11
-497.325497
21
-52.473891
0
LINE
8
hello_you v6_Sketch1
10
-497.325497
20
-52.473891
11
-499.122073
21
-53.837485
0
LINE
8
hello_you v6_Sketch1
10
-499.122073
20
-53.837485
11
-500.812815
21
-55.350430
0
LINE
8
hello_you v6_Sketch1
10
-500.812815
20
-55.350430
11
-502.387319
21
-57.008689
0
LINE
8
hello_you v6_Sketch1
10
-502.387319
20
-57.008689
11
-503.835182
21
-58.808224
0
LINE
8
hello_you v6_Sketch1
10
-503.835182
20
-58.808224
11
-505.146000
21
-60.745000
0
LINE
8
hello_you v6_Sketch1
10
-505.146000
20
-185.132000
11
-503.835182
21
-187.068776
0
LINE
8
hello_you v6_Sketch1
10
-503.835182
20
-187.068776
11
-502.387319
21
-188.868311
0
LINE
8
hello_you v6_Sketch1
10
-502.387319
20
-188.868311
11
-500.812815
21
-190.526570
0
LINE
8
hello_you v6_Sketch1
10
-500.812815
20
-190.526570
11
-499.122073
21
-192.039515
0
LINE
8
hello_you v6_Sketch1
10
-499.122073
20
-192.039515
11
-497.325497
21
-193.403109
0
LINE
8
hello_you v6_Sketch1
10
-497.325497
20
-193.403109
11
-495.433491
21
-194.613315
0
LINE
8
hello_you v6_Sketch1
10
-495.433491
20
-194.613315
11
-493.456458
21
-195.666096
0
LINE
8
hello_you v6_Sketch1
10
-493.456458
20
-195.666096
11
-491.404803
21
-196.557416
0
LINE
8
hello_you v6_Sketch1
10
-491.404803
20
-196.557416
11
-489.288929
21
-197.283236
0
LINE
8
hello_you v6_Sketch1
10
-489.288929
20
-197.283236
11
-487.119239
21
-197.839521
0
LINE
8
hello_you v6_Sketch1
10
-487.119239
20
-197.839521
11
-484.906138
21
-198.222233
0
LINE
8
hello_you v6_Sketch1
10
-484.906138
20
-198.222233
11
-482.660029
21
-198.427336
0
LINE
8
hello_you v6_Sketch1
10
-482.660029
20
-198.427336
11
-480.391315
21
-198.450791
0
LINE
8
hello_you v6_Sketch1
10
-480.391315
20
-198.450791
11
-478.110402
21
-198.288563
0
LINE
8
hello_you v6_Sketch1
10
-478.110402
20
-198.288563
11
-475.827691
21
-197.936614
0
LINE
8
hello_you v6_Sketch1
10
-475.827691
20
-197.936614
11
-473.553587
21
-197.390908
0
LINE
8
hello_you v6_Sketch1
10
-473.553587
20
-197.390908
11
-471.332292
21
-196.659341
0
LINE
8
hello_you v6_Sketch1
10
-471.332292
20
-196.659341
11
-469.205555
21
-195.758437
0
LINE
8
hello_you v6_Sketch1
10
-469.205555
20
-195.758437
11
-467.180104
21
-194.697101
0
LINE
8
hello_you v6_Sketch1
10
-467.180104
20
-194.697101
11
-465.262665
21
-193.484238
0
LINE
8
hello_you v6_Sketch1
10
-465.262665
20
-193.484238
11
-463.459965
21
-192.128751
0
LINE
8
hello_you v6_Sketch1
10
-463.459965
20
-192.128751
11
-461.778730
21
-190.639544
0
LINE
8
hello_you v6_Sketch1
10
-461.778730
20
-190.639544
11
-460.225688
21
-189.025523
0
LINE
8
hello_you v6_Sketch1
10
-460.225688
20
-189.025523
11
-458.807564
21
-187.295591
0
LINE
8
hello_you v6_Sketch1
10
-458.807564
20
-187.295591
11
-457.531087
21
-185.458652
0
LINE
8
hello_you v6_Sketch1
10
-457.531087
20
-185.458652
11
-456.402982
21
-183.523610
0
LINE
8
hello_you v6_Sketch1
10
-456.402982
20
-183.523610
11
-455.429976
21
-181.499371
0
LINE
8
hello_you v6_Sketch1
10
-455.429976
20
-181.499371
11
-454.618796
21
-179.394837
0
LINE
8
hello_you v6_Sketch1
10
-454.618796
20
-179.394837
11
-453.976169
21
-177.218914
0
LINE
8
hello_you v6_Sketch1
10
-453.976169
20
-177.218914
11
-453.508821
21
-174.980506
0
LINE
8
hello_you v6_Sketch1
10
-453.508821
20
-174.980506
11
-453.223480
21
-172.688516
0
LINE
8
hello_you v6_Sketch1
10
-453.223480
20
-172.688516
11
-453.126871
21
-170.351850
0
LINE
8
hello_you v6_Sketch1
10
-453.126871
20
-170.351850
11
-453.223480
21
-168.015184
0
LINE
8
hello_you v6_Sketch1
10
-453.223480
20
-168.015184
11
-453.508821
21
-165.723194
0
LINE
8
hello_you v6_Sketch1
10
-453.508821
20
-165.723194
11
-453.976169
21
-163.484786
0
LINE
8
hello_you v6_Sketch1
10
-453.976169
20
-163.484786
11
-454.618796
21
-161.308863
0
LINE
8
hello_you v6_Sketch1
10
-454.618796
20
-161.308863
11
-455.429976
21
-159.204329
0
LINE
8
hello_you v6_Sketch1
10
-455.429976
20
-159.204329
11
-456.402982
21
-157.180090
0
LINE
8
hello_you v6_Sketch1
10
-456.402982
20
-157.180090
11
-457.531087
21
-155.245048
0
LINE
8
hello_you v6_Sketch1
10
-457.531087
20
-155.245048
11
-458.807564
21
-153.408109
0
LINE
8
hello_you v6_Sketch1
10
-458.807564
20
-153.408109
11
-460.225688
21
-151.678177
0
LINE
8
hello_you v6_Sketch1
10
-460.225688
20
-151.678177
11
-461.778730
21
-150.064156
0
LINE
8
hello_you v6_Sketch1
10
-461.778730
20
-150.064156
11
-463.459965
21
-148.574949
0
LINE
8
hello_you v6_Sketch1
10
-463.459965
20
-148.574949
11
-465.262665
21
-147.219462
0
LINE
8
hello_you v6_Sketch1
10
-465.262665
20
-147.219462
11
-467.180104
21
-146.006599
0
LINE
8
hello_you v6_Sketch1
10
-467.180104
20
-146.006599
11
-469.205555
21
-144.945263
0
LINE
8
hello_you v6_Sketch1
10
-469.205555
20
-144.945263
11
-471.332292
21
-144.044359
0
LINE
8
hello_you v6_Sketch1
10
-471.332292
20
-144.044359
11
-473.553587
21
-143.312792
0
LINE
8
hello_you v6_Sketch1
10
-473.553587
20
-143.312792
11
-475.827691
21
-142.767086
0
LINE
8
hello_you v6_Sketch1
10
-475.827691
20
-142.767086
11
-478.110402
21
-142.415137
0
LINE
8
hello_you v6_Sketch1
10
-478.110402
20
-142.415137
11
-480.391315
21
-142.252909
0
LINE
8
hello_you v6_Sketch1
10
-480.391315
20
-142.252909
11
-482.660029
21
-142.276364
0
LINE
8
hello_you v6_Sketch1
10
-482.660029
20
-142.276364
11
-484.906138
21
-142.481467
0
LINE
8
hello_you v6_Sketch1
10
-484.906138
20
-142.481467
11
-487.119239
21
-142.864179
0
LINE
8
hello_you v6_Sketch1
10
-487.119239
20
-142.864179
11
-489.288929
21
-143.420464
0
LINE
8
hello_you v6_Sketch1
10
-489.288929
20
-143.420464
11
-491.404803
21
-144.146284
0
LINE
8
hello_you v6_Sketch1
10
-491.404803
20
-144.146284
11
-493.456458
21
-145.037604
0
LINE
8
hello_you v6_Sketch1
10
-493.456458
20
-145.037604
11
-495.433491
21
-146.090385
0
LINE
8
hello_you v6_Sketch1
10
-495.433491
20
-146.090385
11
-497.325497
21
-147.300591
0
LINE
8
hello_you v6_Sketch1
10
-497.325497
20
-147.300591
11
-499.122073
21
-148.664185
0
LINE
8
hello_you v6_Sketch1
10
-499.122073
20
-148.664185
11
-500.812815
21
-150.177130
0
LINE
8
hello_you v6_Sketch1
10
-500.812815
20
-150.177130
11
-502.387319
21
-151.835389
0
LINE
8
hello_you v6_Sketch1
10
-502.387319
20
-151.835389
11
-503.835182
21
-153.634924
0
LINE
8
hello_you v6_Sketch1
10
-503.835182
20
-153.634924
11
-505.146000
21
-155.571700
0
LINE
8
hello_you v6_Sketch1
10
459.742000
20
95.636300
11
459.742000
21
84.820100
0
LINE
8
hello_you v6_Sketch1
10
-505.146000
20
-60.744900
11
-505.146000
21
-90.305100
0
LINE
8
hello_you v6_Sketch1
10
435.483000
20
260.503000
11
441.443000
21
260.503000
0
LINE
8
hello_you v6_Sketch1
10
404.201000
20
95.636300
11
404.201000
21
106.452000
0
LINE
8
hello_you v6_Sketch1
10
-377.604000
20
-159.542000
11
-377.815016
21
-157.951446
0
LINE
8
hello_you v6_Sketch1
10
-377.815016
20
-157.951446
11
-378.420709
21
-156.494000
0
LINE
8
hello_you v6_Sketch1
10
-378.420709
20
-156.494000
11
-379.380048
21
-155.240731
0
LINE
8
hello_you v6_Sketch1
10
-379.380048
20
-155.240731
11
-380.652000
21
-154.262709
0
LINE
8
hello_you v6_Sketch1
10
-380.652000
20
-154.262709
11
-382.134968
21
-153.650177
0
LINE
8
hello_you v6_Sketch1
10
-382.134968
20
-153.650177
11
-383.700000
21
-153.446000
0
LINE
8
hello_you v6_Sketch1
10
-383.700000
20
-153.446000
11
-385.265032
21
-153.650177
0
LINE
8
hello_you v6_Sketch1
10
-385.265032
20
-153.650177
11
-386.748000
21
-154.262709
0
LINE
8
hello_you v6_Sketch1
10
-386.748000
20
-154.262709
11
-388.019952
21
-155.240731
0
LINE
8
hello_you v6_Sketch1
10
-388.019952
20
-155.240731
11
-388.979291
21
-156.494000
0
LINE
8
hello_you v6_Sketch1
10
-388.979291
20
-156.494000
11
-389.584984
21
-157.951446
0
LINE
8
hello_you v6_Sketch1
10
-389.584984
20
-157.951446
11
-389.796000
21
-159.542000
0
LINE
8
hello_you v6_Sketch1
10
-389.796000
20
-159.542000
11
-389.584984
21
-161.132554
0
LINE
8
hello_you v6_Sketch1
10
-389.584984
20
-161.132554
11
-388.979291
21
-162.590000
0
LINE
8
hello_you v6_Sketch1
10
-388.979291
20
-162.590000
11
-388.019952
21
-163.843269
0
LINE
8
hello_you v6_Sketch1
10
-388.019952
20
-163.843269
11
-386.748000
21
-164.821291
0
LINE
8
hello_you v6_Sketch1
10
-386.748000
20
-164.821291
11
-385.265032
21
-165.433823
0
LINE
8
hello_you v6_Sketch1
10
-385.265032
20
-165.433823
11
-383.700000
21
-165.638000
0
LINE
8
hello_you v6_Sketch1
10
-383.700000
20
-165.638000
11
-382.134968
21
-165.433823
0
LINE
8
hello_you v6_Sketch1
10
-382.134968
20
-165.433823
11
-380.652000
21
-164.821291
0
LINE
8
hello_you v6_Sketch1
10
-380.652000
20
-164.821291
11
-379.380048
21
-163.843269
0
LINE
8
hello_you v6_Sketch1
10
-379.380048
20
-163.843269
11
-378.420709
21
-162.590000
0
LINE
8
hello_you v6_Sketch1
10
-378.420709
20
-162.590000
11
-377.815016
21
-161.132554
0
LINE
8
hello_you v6_Sketch1
10
-377.815016
20
-161.132554
11
-377.604000
21
-159.542000
0
LINE
8
hello_you v6_Sketch1
10
-377.604000
20
-159.542000
11
-377.604000
21
-159.542000
0
LINE
8
hello_you v6_Sketch1
10
-662.003000
20
290.235000
11
692.663000
21
290.235000
0
LINE
8
hello_you v6_Sketch1
10
233.513000
20
246.885000
11
233.301984
21
248.475554
0
LINE
8
hello_you v6_Sketch1
10
233.301984
20
248.475554
11
232.696291
21
249.933000
0
LINE
8
hello_you v6_Sketch1
10
232.696291
20
249.933000
11
231.736952
21
251.186269
0
LINE
8
hello_you v6_Sketch1
10
231.736952
20
251.186269
11
230.465000
21
252.164291
0
LINE
8
hello_you v6_Sketch1
10
230.465000
20
252.164291
11
228.982032
21
252.776823
0
LINE
8
hello_you v6_Sketch1
10
228.982032
20
252.776823
11
227.417000
21
252.981000
0
LINE
8
hello_you v6_Sketch1
10
227.417000
20
252.981000
11
225.851968
21
252.776823
0
LINE
8
hello_you v6_Sketch1
10
225.851968
20
252.776823
11
224.369000
21
252.164291
0
LINE
8
hello_you v6_Sketch1
10
224.369000
20
252.164291
11
223.097048
21
251.186269
0
LINE
8
hello_you v6_Sketch1
10
223.097048
20
251.186269
11
222.137709
21
249.933000
0
LINE
8
hello_you v6_Sketch1
10
222.137709
20
249.933000
11
221.532016
21
248.475554
0
LINE
8
hello_you v6_Sketch1
10
221.532016
20
248.475554
11
221.321000
21
246.885000
0
LINE
8
hello_you v6_Sketch1
10
221.321000
20
246.885000
11
221.532016
21
245.294446
0
LINE
8
hello_you v6_Sketch1
10
221.532016
20
245.294446
11
222.137709
21
243.837000
0
LINE
8
hello_you v6_Sketch1
10
222.137709
20
243.837000
11
223.097048
21
242.583731
0
LINE
8
hello_you v6_Sketch1
10
223.097048
20
242.583731
11
224.369000
21
241.605709
0
LINE
8
hello_you v6_Sketch1
10
224.369000
20
241.605709
11
225.851968
21
240.993177
0
LINE
8
hello_you v6_Sketch1
10
225.851968
20
240.993177
11
227.417000
21
240.788999
0
LINE
8
hello_you v6_Sketch1
10
227.417000
20
240.788999
11
228.982032
21
240.993177
0
LINE
8
hello_you v6_Sketch1
10
228.982032
20
240.993177
11
230.465000
21
241.605709
0
LINE
8
hello_you v6_Sketch1
10
230.465000
20
241.605709
11
231.736952
21
242.583731
0
LINE
8
hello_you v6_Sketch1
10
231.736952
20
242.583731
11
232.696291
21
243.837000
0
LINE
8
hello_you v6_Sketch1
10
232.696291
20
243.837000
11
233.301984
21
245.294446
0
LINE
8
hello_you v6_Sketch1
10
233.301984
20
245.294446
11
233.513000
21
246.885000
0
LINE
8
hello_you v6_Sketch1
10
233.513000
20
246.885000
11
233.513000
21
246.885000
0
LINE
8
hello_you v6_Sketch1
10
441.443000
20
260.503000
11
441.443000
21
257.901000
0
LINE
8
hello_you v6_Sketch1
10
506.196000
20
257.900000
11
503.533192
21
257.476344
0
LINE
8
hello_you v6_Sketch1
10
503.533192
20
257.476344
11
500.969760
21
256.807819
0
LINE
8
hello_you v6_Sketch1
10
500.969760
20
256.807819
11
498.517020
21
255.907762
0
LINE
8
hello_you v6_Sketch1
10
498.517020
20
255.907762
11
496.186286
21
254.789511
0
LINE
8
hello_you v6_Sketch1
10
496.186286
20
254.789511
11
493.988875
21
253.466404
0
LINE
8
hello_you v6_Sketch1
10
493.988875
20
253.466404
11
491.936101
21
251.951777
0
LINE
8
hello_you v6_Sketch1
10
491.936101
20
251.951777
11
490.039280
21
250.258969
0
LINE
8
hello_you v6_Sketch1
10
490.039280
20
250.258969
11
488.309727
21
248.401317
0
LINE
8
hello_you v6_Sketch1
10
488.309727
20
248.401317
11
486.758758
21
246.392159
0
LINE
8
hello_you v6_Sketch1
10
486.758758
20
246.392159
11
485.397687
21
244.244832
0
LINE
8
hello_you v6_Sketch1
10
485.397687
20
244.244832
11
484.237830
21
241.972673
0
LINE
8
hello_you v6_Sketch1
10
484.237830
20
241.972673
11
483.290502
21
239.589021
0
LINE
8
hello_you v6_Sketch1
10
483.290502
20
239.589021
11
482.567019
21
237.107212
0
LINE
8
hello_you v6_Sketch1
10
482.567019
20
237.107212
11
482.078696
21
234.540584
0
LINE
8
hello_you v6_Sketch1
10
482.078696
20
234.540584
11
481.836847
21
231.902475
0
LINE
8
hello_you v6_Sketch1
10
481.836847
20
231.902475
11
481.852789
21
229.206223
0
LINE
8
hello_you v6_Sketch1
10
481.852789
20
229.206223
11
482.130594
21
226.524272
0
LINE
8
hello_you v6_Sketch1
10
482.130594
20
226.524272
11
482.658323
21
223.928196
0
LINE
8
hello_you v6_Sketch1
10
482.658323
20
223.928196
11
483.423276
21
221.430020
0
LINE
8
hello_you v6_Sketch1
10
483.423276
20
221.430020
11
484.412752
21
219.041770
0
LINE
8
hello_you v6_Sketch1
10
484.412752
20
219.041770
11
485.614051
21
216.775471
0
LINE
8
hello_you v6_Sketch1
10
485.614051
20
216.775471
11
487.014472
21
214.643149
0
LINE
8
hello_you v6_Sketch1
10
487.014472
20
214.643149
11
488.601314
21
212.656831
0
LINE
8
hello_you v6_Sketch1
10
488.601314
20
212.656831
11
490.361877
21
210.828542
0
LINE
8
hello_you v6_Sketch1
10
490.361877
20
210.828542
11
492.283461
21
209.170308
0
LINE
8
hello_you v6_Sketch1
10
492.283461
20
209.170308
11
494.353364
21
207.694154
0
LINE
8
hello_you v6_Sketch1
10
494.353364
20
207.694154
11
496.558886
21
206.412108
0
LINE
8
hello_you v6_Sketch1
10
496.558886
20
206.412108
11
498.887327
21
205.336193
0
LINE
8
hello_you v6_Sketch1
10
498.887327
20
205.336193
11
501.325986
21
204.478437
0
LINE
8
hello_you v6_Sketch1
10
501.325986
20
204.478437
11
503.862162
21
203.850865
0
LINE
8
hello_you v6_Sketch1
10
503.862162
20
203.850865
11
506.483156
21
203.465503
0
LINE
8
hello_you v6_Sketch1
10
506.483156
20
203.465503
11
509.176265
21
203.334376
0
LINE
8
hello_you v6_Sketch1
10
509.176265
20
203.334376
11
511.869374
21
203.465503
0
LINE
8
hello_you v6_Sketch1
10
511.869374
20
203.465503
11
514.490368
21
203.850865
0
LINE
8
hello_you v6_Sketch1
10
514.490368
20
203.850865
11
517.026544
21
204.478437
0
LINE
8
hello_you v6_Sketch1
10
517.026544
20
204.478437
11
519.465203
21
205.336193
0
LINE
8
hello_you v6_Sketch1
10
519.465203
20
205.336193
11
521.793644
21
206.412108
0
LINE
8
hello_you v6_Sketch1
10
521.793644
20
206.412108
11
523.999166
21
207.694154
0
LINE
8
hello_you v6_Sketch1
10
523.999166
20
207.694154
11
526.069069
21
209.170308
0
LINE
8
hello_you v6_Sketch1
10
526.069069
20
209.170308
11
527.990653
21
210.828542
0
LINE
8
hello_you v6_Sketch1
10
527.990653
20
210.828542
11
529.751216
21
212.656831
0
LINE
8
hello_you v6_Sketch1
10
529.751216
20
212.656831
11
531.338058
21
214.643149
0
LINE
8
hello_you v6_Sketch1
10
531.338058
20
214.643149
11
532.738479
21
216.775471
0
LINE
8
hello_you v6_Sketch1
10
532.738479
20
216.775471
11
533.939778
21
219.041770
0
LINE
8
hello_you v6_Sketch1
10
533.939778
20
219.041770
11
534.929254
21
221.430020
0
LINE
8
hello_you v6_Sketch1
10
534.929254
20
221.430020
11
535.694207
21
223.928196
0
LINE
8
hello_you v6_Sketch1
10
535.694207
20
223.928196
11
536.221936
21
226.524272
0
LINE
8
hello_you v6_Sketch1
10
536.221936
20
226.524272
11
536.499741
21
229.206223
0
LINE
8
hello_you v6_Sketch1
10
536.499741
20
229.206223
11
536.515683
21
231.902475
0
LINE
8
hello_you v6_Sketch1
10
536.515683
20
231.902475
11
536.273834
21
234.540584
0
LINE
8
hello_you v6_Sketch1
10
536.273834
20
234.540584
11
535.785511
21
237.107212
0
LINE
8
hello_you v6_Sketch1
10
535.785511
20
237.107212
11
535.062028
21
239.589021
0
LINE
8
hello_you v6_Sketch1
10
535.062028
20
239.589021
11
534.114700
21
241.972673
0
LINE
8
hello_you v6_Sketch1
10
534.114700
20
241.972673
11
532.954843
21
244.244832
0
LINE
8
hello_you v6_Sketch1
10
532.954843
20
244.244832
11
531.593772
21
246.392159
0
LINE
8
hello_you v6_Sketch1
10
531.593772
20
246.392159
11
530.042803
21
248.401317
0
LINE
8
hello_you v6_Sketch1
10
530.042803
20
248.401317
11
528.313250
21
250.258969
0
LINE
8
hello_you v6_Sketch1
10
528.313250
20
250.258969
11
526.416429
21
251.951777
0
LINE
8
hello_you v6_Sketch1
10
526.416429
20
251.951777
11
524.363655
21
253.466404
0
LINE
8
hello_you v6_Sketch1
10
524.363655
20
253.466404
11
522.166244
21
254.789511
0
LINE
8
hello_you v6_Sketch1
10
522.166244
20
254.789511
11
519.835510
21
255.907762
0
LINE
8
hello_you v6_Sketch1
10
519.835510
20
255.907762
11
517.382770
21
256.807819
0
LINE
8
hello_you v6_Sketch1
10
517.382770
20
256.807819
11
514.819338
21
257.476344
0
LINE
8
hello_you v6_Sketch1
10
514.819338
20
257.476344
11
512.156530
21
257.900000
0
LINE
8
hello_you v6_Sketch1
10
512.157000
20
260.501000
11
512.157000
21
257.900000
0
LINE
8
hello_you v6_Sketch1
10
541.418000
20
107.425000
11
547.378000
21
107.425000
0
LINE
8
hello_you v6_Sketch1
10
-662.003000
20
290.235000
11
-797.470000
21
-251.631000
0
LINE
8
hello_you v6_Sketch1
10
541.418000
20
104.824000
11
541.418000
21
107.425000
0
LINE
8
hello_you v6_Sketch1
10
547.378000
20
107.425000
11
547.378000
21
104.824000
0
LINE
8
hello_you v6_Sketch1
10
-505.146000
20
-170.352000
11
-505.146000
21
-155.572000
0
LINE
8
hello_you v6_Sketch1
10
445.233000
20
-171.636000
11
451.194000
21
-171.636000
0
LINE
8
hello_you v6_Sketch1
10
449.839000
20
22.080700
11
449.839000
21
19.479500
0
LINE
8
hello_you v6_Sketch1
10
517.031000
20
-132.243000
11
514.368192
21
-132.666656
0
LINE
8
hello_you v6_Sketch1
10
514.368192
20
-132.666656
11
511.804760
21
-133.335181
0
LINE
8
hello_you v6_Sketch1
10
511.804760
20
-133.335181
11
509.352020
21
-134.235238
0
LINE
8
hello_you v6_Sketch1
10
509.352020
20
-134.235238
11
507.021286
21
-135.353489
0
LINE
8
hello_you v6_Sketch1
10
507.021286
20
-135.353489
11
504.823875
21
-136.676596
0
LINE
8
hello_you v6_Sketch1
10
504.823875
20
-136.676596
11
502.771101
21
-138.191223
0
LINE
8
hello_you v6_Sketch1
10
502.771101
20
-138.191223
11
500.874280
21
-139.884031
0
LINE
8
hello_you v6_Sketch1
10
500.874280
20
-139.884031
11
499.144727
21
-141.741683
0
LINE
8
hello_you v6_Sketch1
10
499.144727
20
-141.741683
11
497.593758
21
-143.750841
0
LINE
8
hello_you v6_Sketch1
10
497.593758
20
-143.750841
11
496.232687
21
-145.898168
0
LINE
8
hello_you v6_Sketch1
10
496.232687
20
-145.898168
11
495.072830
21
-148.170327
0
LINE
8
hello_you v6_Sketch1
10
495.072830
20
-148.170327
11
494.125502
21
-150.553979
0
LINE
8
hello_you v6_Sketch1
10
494.125502
20
-150.553979
11
493.402019
21
-153.035788
0
LINE
8
hello_you v6_Sketch1
10
493.402019
20
-153.035788
11
492.913696
21
-155.602416
0
LINE
8
hello_you v6_Sketch1
10
492.913696
20
-155.602416
11
492.671847
21
-158.240525
0
LINE
8
hello_you v6_Sketch1
10
492.671847
20
-158.240525
11
492.687789
21
-160.936777
0
LINE
8
hello_you v6_Sketch1
10
492.687789
20
-160.936777
11
492.965594
21
-163.618728
0
LINE
8
hello_you v6_Sketch1
10
492.965594
20
-163.618728
11
493.493323
21
-166.214804
0
LINE
8
hello_you v6_Sketch1
10
493.493323
20
-166.214804
11
494.258276
21
-168.712980
0
LINE
8
hello_you v6_Sketch1
10
494.258276
20
-168.712980
11
495.247752
21
-171.101230
0
LINE
8
hello_you v6_Sketch1
10
495.247752
20
-171.101230
11
496.449051
21
-173.367529
0
LINE
8
hello_you v6_Sketch1
10
496.449051
20
-173.367529
11
497.849472
21
-175.499851
0
LINE
8
hello_you v6_Sketch1
10
497.849472
20
-175.499851
11
499.436314
21
-177.486169
0
LINE
8
hello_you v6_Sketch1
10
499.436314
20
-177.486169
11
501.196877
21
-179.314458
0
LINE
8
hello_you v6_Sketch1
10
501.196877
20
-179.314458
11
503.118461
21
-180.972692
0
LINE
8
hello_you v6_Sketch1
10
503.118461
20
-180.972692
11
505.188364
21
-182.448846
0
LINE
8
hello_you v6_Sketch1
10
505.188364
20
-182.448846
11
507.393886
21
-183.730892
0
LINE
8
hello_you v6_Sketch1
10
507.393886
20
-183.730892
11
509.722327
21
-184.806807
0
LINE
8
hello_you v6_Sketch1
10
509.722327
20
-184.806807
11
512.160986
21
-185.664563
0
LINE
8
hello_you v6_Sketch1
10
512.160986
20
-185.664563
11
514.697162
21
-186.292135
0
LINE
8
hello_you v6_Sketch1
10
514.697162
20
-186.292135
11
517.318156
21
-186.677497
0
LINE
8
hello_you v6_Sketch1
10
517.318156
20
-186.677497
11
520.011265
21
-186.808624
0
LINE
8
hello_you v6_Sketch1
10
520.011265
20
-186.808624
11
522.704374
21
-186.677497
0
LINE
8
hello_you v6_Sketch1
10
522.704374
20
-186.677497
11
525.325368
21
-186.292135
0
LINE
8
hello_you v6_Sketch1
10
525.325368
20
-186.292135
11
527.861544
21
-185.664563
0
LINE
8
hello_you v6_Sketch1
10
527.861544
20
-185.664563
11
530.300203
21
-184.806807
0
LINE
8
hello_you v6_Sketch1
10
530.300203
20
-184.806807
11
532.628644
21
-183.730892
0
LINE
8
hello_you v6_Sketch1
10
532.628644
20
-183.730892
11
534.834166
21
-182.448846
0
LINE
8
hello_you v6_Sketch1
10
534.834166
20
-182.448846
11
536.904069
21
-180.972692
0
LINE
8
hello_you v6_Sketch1
10
536.904069
20
-180.972692
11
538.825653
21
-179.314458
0
LINE
8
hello_you v6_Sketch1
10
538.825653
20
-179.314458
11
540.586216
21
-177.486169
0
LINE
8
hello_you v6_Sketch1
10
540.586216
20
-177.486169
11
542.173058
21
-175.499851
0
LINE
8
hello_you v6_Sketch1
10
542.173058
20
-175.499851
11
543.573479
21
-173.367529
0
LINE
8
hello_you v6_Sketch1
10
543.573479
20
-173.367529
11
544.774778
21
-171.101230
0
LINE
8
hello_you v6_Sketch1
10
544.774778
20
-171.101230
11
545.764254
21
-168.712980
0
LINE
8
hello_you v6_Sketch1
10
545.764254
20
-168.712980
11
546.529207
21
-166.214804
0
LINE
8
hello_you v6_Sketch1
10
546.529207
20
-166.214804
11
547.056936
21
-163.618728
0
LINE
8
hello_you v6_Sketch1
10
547.056936
20
-163.618728
11
547.334741
21
-160.936777
0
LINE
8
hello_you v6_Sketch1
10
547.334741
20
-160.936777
11
547.350683
21
-158.240525
0
LINE
8
hello_you v6_Sketch1
10
547.350683
20
-158.240525
11
547.108834
21
-155.602416
0
LINE
8
hello_you v6_Sketch1
10
547.108834
20
-155.602416
11
546.620511
21
-153.035788
0
LINE
8
hello_you v6_Sketch1
10
546.620511
20
-153.035788
11
545.897028
21
-150.553979
0
LINE
8
hello_you v6_Sketch1
10
545.897028
20
-150.553979
11
544.949700
21
-148.170327
0
LINE
8
hello_you v6_Sketch1
10
544.949700
20
-148.170327
11
543.789843
21
-145.898168
0
LINE
8
hello_you v6_Sketch1
10
543.789843
20
-145.898168
11
542.428772
21
-143.750841
0
LINE
8
hello_you v6_Sketch1
10
542.428772
20
-143.750841
11
540.877803
21
-141.741683
0
LINE
8
hello_you v6_Sketch1
10
540.877803
20
-141.741683
11
539.148250
21
-139.884031
0
LINE
8
hello_you v6_Sketch1
10
539.148250
20
-139.884031
11
537.251429
21
-138.191223
0
LINE
8
hello_you v6_Sketch1
10
537.251429
20
-138.191223
11
535.198655
21
-136.676596
0
LINE
8
hello_you v6_Sketch1
10
535.198655
20
-136.676596
11
533.001244
21
-135.353489
0
LINE
8
hello_you v6_Sketch1
10
533.001244
20
-135.353489
11
530.670510
21
-134.235238
0
LINE
8
hello_you v6_Sketch1
10
530.670510
20
-134.235238
11
528.217770
21
-133.335181
0
LINE
8
hello_you v6_Sketch1
10
528.217770
20
-133.335181
11
525.654338
21
-132.666656
0
LINE
8
hello_you v6_Sketch1
10
525.654338
20
-132.666656
11
522.991530
21
-132.243000
0
LINE
8
hello_you v6_Sketch1
10
554.964000
20
22.189100
11
554.964000
21
24.790400
0
LINE
8
hello_you v6_Sketch1
10
560.925000
20
24.790400
11
560.925000
21
22.189100
0
LINE
8
hello_you v6_Sketch1
10
522.994000
20
-51.070100
11
522.994000
21
-53.671300
0
LINE
8
hello_you v6_Sketch1
10
587.473000
20
-91.710600
11
593.434000
21
-91.710600
0
LINE
8
hello_you v6_Sketch1
10
446.591000
20
-94.312700
11
446.591000
21
-91.713400
0
LINE
8
hello_you v6_Sketch1
10
445.234000
20
-174.238000
11
442.571192
21
-174.661656
0
LINE
8
hello_you v6_Sketch1
10
442.571192
20
-174.661656
11
440.007760
21
-175.330181
0
LINE
8
hello_you v6_Sketch1
10
440.007760
20
-175.330181
11
437.555020
21
-176.230238
0
LINE
8
hello_you v6_Sketch1
10
437.555020
20
-176.230238
11
435.224286
21
-177.348489
0
LINE
8
hello_you v6_Sketch1
10
435.224286
20
-177.348489
11
433.026875
21
-178.671596
0
LINE
8
hello_you v6_Sketch1
10
433.026875
20
-178.671596
11
430.974101
21
-180.186223
0
LINE
8
hello_you v6_Sketch1
10
430.974101
20
-180.186223
11
429.077280
21
-181.879031
0
LINE
8
hello_you v6_Sketch1
10
429.077280
20
-181.879031
11
427.347727
21
-183.736683
0
LINE
8
hello_you v6_Sketch1
10
427.347727
20
-183.736683
11
425.796758
21
-185.745841
0
LINE
8
hello_you v6_Sketch1
10
425.796758
20
-185.745841
11
424.435687
21
-187.893168
0
LINE
8
hello_you v6_Sketch1
10
424.435687
20
-187.893168
11
423.275830
21
-190.165327
0
LINE
8
hello_you v6_Sketch1
10
423.275830
20
-190.165327
11
422.328502
21
-192.548979
0
LINE
8
hello_you v6_Sketch1
10
422.328502
20
-192.548979
11
421.605019
21
-195.030788
0
LINE
8
hello_you v6_Sketch1
10
421.605019
20
-195.030788
11
421.116696
21
-197.597416
0
LINE
8
hello_you v6_Sketch1
10
421.116696
20
-197.597416
11
420.874847
21
-200.235525
0
LINE
8
hello_you v6_Sketch1
10
420.874847
20
-200.235525
11
420.890789
21
-202.931777
0
LINE
8
hello_you v6_Sketch1
10
420.890789
20
-202.931777
11
421.168594
21
-205.613728
0
LINE
8
hello_you v6_Sketch1
10
421.168594
20
-205.613728
11
421.696323
21
-208.209804
0
LINE
8
hello_you v6_Sketch1
10
421.696323
20
-208.209804
11
422.461276
21
-210.707980
0
LINE
8
hello_you v6_Sketch1
10
422.461276
20
-210.707980
11
423.450752
21
-213.096230
0
LINE
8
hello_you v6_Sketch1
10
423.450752
20
-213.096230
11
424.652051
21
-215.362529
0
LINE
8
hello_you v6_Sketch1
10
424.652051
20
-215.362529
11
426.052472
21
-217.494851
0
LINE
8
hello_you v6_Sketch1
10
426.052472
20
-217.494851
11
427.639314
21
-219.481169
0
LINE
8
hello_you v6_Sketch1
10
427.639314
20
-219.481169
11
429.399877
21
-221.309458
0
LINE
8
hello_you v6_Sketch1
10
429.399877
20
-221.309458
11
431.321461
21
-222.967692
0
LINE
8
hello_you v6_Sketch1
10
431.321461
20
-222.967692
11
433.391364
21
-224.443846
0
LINE
8
hello_you v6_Sketch1
10
433.391364
20
-224.443846
11
435.596886
21
-225.725892
0
LINE
8
hello_you v6_Sketch1
10
435.596886
20
-225.725892
11
437.925327
21
-226.801807
0
LINE
8
hello_you v6_Sketch1
10
437.925327
20
-226.801807
11
440.363986
21
-227.659563
0
LINE
8
hello_you v6_Sketch1
10
440.363986
20
-227.659563
11
442.900162
21
-228.287135
0
LINE
8
hello_you v6_Sketch1
10
442.900162
20
-228.287135
11
445.521156
21
-228.672497
0
LINE
8
hello_you v6_Sketch1
10
445.521156
20
-228.672497
11
448.214265
21
-228.803624
0
LINE
8
hello_you v6_Sketch1
10
448.214265
20
-228.803624
11
450.907374
21
-228.672497
0
LINE
8
hello_you v6_Sketch1
10
450.907374
20
-228.672497
11
453.528368
21
-228.287135
0
LINE
8
hello_you v6_Sketch1
10
453.528368
20
-228.287135
11
456.064544
21
-227.659563
0
LINE
8
hello_you v6_Sketch1
10
456.064544
20
-227.659563
11
458.503203
21
-226.801807
0
LINE
8
hello_you v6_Sketch1
10
458.503203
20
-226.801807
11
460.831644
21
-225.725892
0
LINE
8
hello_you v6_Sketch1
10
460.831644
20
-225.725892
11
463.037166
21
-224.443846
0
LINE
8
hello_you v6_Sketch1
10
463.037166
20
-224.443846
11
465.107069
21
-222.967692
0
LINE
8
hello_you v6_Sketch1
10
465.107069
20
-222.967692
11
467.028653
21
-221.309458
0
LINE
8
hello_you v6_Sketch1
10
467.028653
20
-221.309458
11
468.789216
21
-219.481169
0
LINE
8
hello_you v6_Sketch1
10
468.789216
20
-219.481169
11
470.376058
21
-217.494851
0
LINE
8
hello_you v6_Sketch1
10
470.376058
20
-217.494851
11
471.776479
21
-215.362529
0
LINE
8
hello_you v6_Sketch1
10
471.776479
20
-215.362529
11
472.977778
21
-213.096230
0
LINE
8
hello_you v6_Sketch1
10
472.977778
20
-213.096230
11
473.967254
21
-210.707980
0
LINE
8
hello_you v6_Sketch1
10
473.967254
20
-210.707980
11
474.732207
21
-208.209804
0
LINE
8
hello_you v6_Sketch1
10
474.732207
20
-208.209804
11
475.259936
21
-205.613728
0
LINE
8
hello_you v6_Sketch1
10
475.259936
20
-205.613728
11
475.537741
21
-202.931777
0
LINE
8
hello_you v6_Sketch1
10
475.537741
20
-202.931777
11
475.553683
21
-200.235525
0
LINE
8
hello_you v6_Sketch1
10
475.553683
20
-200.235525
11
475.311834
21
-197.597416
0
LINE
8
hello_you v6_Sketch1
10
475.311834
20
-197.597416
11
474.823511
21
-195.030788
0
LINE
8
hello_you v6_Sketch1
10
474.823511
20
-195.030788
11
474.100028
21
-192.548979
0
LINE
8
hello_you v6_Sketch1
10
474.100028
20
-192.548979
11
473.152700
21
-190.165327
0
LINE
8
hello_you v6_Sketch1
10
473.152700
20
-190.165327
11
471.992843
21
-187.893168
0
LINE
8
hello_you v6_Sketch1
10
471.992843
20
-187.893168
11
470.631772
21
-185.745841
0
LINE
8
hello_you v6_Sketch1
10
470.631772
20
-185.745841
11
469.080803
21
-183.736683
0
LINE
8
hello_you v6_Sketch1
10
469.080803
20
-183.736683
11
467.351250
21
-181.879031
0
LINE
8
hello_you v6_Sketch1
10
467.351250
20
-181.879031
11
465.454429
21
-180.186223
0
LINE
8
hello_you v6_Sketch1
10
465.454429
20
-180.186223
11
463.401655
21
-178.671596
0
LINE
8
hello_you v6_Sketch1
10
463.401655
20
-178.671596
11
461.204244
21
-177.348489
0
LINE
8
hello_you v6_Sketch1
10
461.204244
20
-177.348489
11
458.873510
21
-176.230238
0
LINE
8
hello_you v6_Sketch1
10
458.873510
20
-176.230238
11
456.420770
21
-175.330181
0
LINE
8
hello_you v6_Sketch1
10
456.420770
20
-175.330181
11
453.857338
21
-174.661656
0
LINE
8
hello_you v6_Sketch1
10
453.857338
20
-174.661656
11
451.194530
21
-174.238000
0
LINE
8
hello_you v6_Sketch1
10
443.879000
20
22.080700
11
449.839000
21
22.080700
0
LINE
8
hello_you v6_Sketch1
10
517.031000
20
-132.243000
11
517.031000
21
-129.641000
0
LINE
8
hello_you v6_Sketch1
10
593.434000
20
-91.710600
11
593.434000
21
-94.312700
0
LINE
8
hello_you v6_Sketch1
10
587.473000
20
-94.312700
11
587.473000
21
-91.710600
0
LINE
8
hello_you v6_Sketch1
10
522.991000
20
-129.641000
11
522.991000
21
-132.243000
0
LINE
8
hello_you v6_Sketch1
10
443.880000
20
19.479600
11
441.217192
21
19.055944
0
LINE
8
hello_you v6_Sketch1
10
441.217192
20
19.055944
11
438.653760
21
18.387419
0
LINE
8
hello_you v6_Sketch1
10
438.653760
20
18.387419
11
436.201020
21
17.487362
0
LINE
8
hello_you v6_Sketch1
10
436.201020
20
17.487362
11
433.870286
21
16.369111
0
LINE
8
hello_you v6_Sketch1
10
433.870286
20
16.369111
11
431.672875
21
15.046004
0
LINE
8
hello_you v6_Sketch1
10
431.672875
20
15.046004
11
429.620101
21
13.531377
0
LINE
8
hello_you v6_Sketch1
10
429.620101
20
13.531377
11
427.723280
21
11.838569
0
LINE
8
hello_you v6_Sketch1
10
427.723280
20
11.838569
11
425.993727
21
9.980917
0
LINE
8
hello_you v6_Sketch1
10
425.993727
20
9.980917
11
424.442758
21
7.971759
0
LINE
8
hello_you v6_Sketch1
10
424.442758
20
7.971759
11
423.081687
21
5.824432
0
LINE
8
hello_you v6_Sketch1
10
423.081687
20
5.824432
11
421.921830
21
3.552273
0
LINE
8
hello_you v6_Sketch1
10
421.921830
20
3.552273
11
420.974502
21
1.168621
0
LINE
8
hello_you v6_Sketch1
10
420.974502
20
1.168621
11
420.251019
21
-1.313188
0
LINE
8
hello_you v6_Sketch1
10
420.251019
20
-1.313188
11
419.762696
21
-3.879816
0
LINE
8
hello_you v6_Sketch1
10
419.762696
20
-3.879816
11
419.520847
21
-6.517925
0
LINE
8
hello_you v6_Sketch1
10
419.520847
20
-6.517925
11
419.536789
21
-9.214177
0
LINE
8
hello_you v6_Sketch1
10
419.536789
20
-9.214177
11
419.814594
21
-11.896128
0
LINE
8
hello_you v6_Sketch1
10
419.814594
20
-11.896128
11
420.342323
21
-14.492204
0
LINE
8
hello_you v6_Sketch1
10
420.342323
20
-14.492204
11
421.107276
21
-16.990380
0
LINE
8
hello_you v6_Sketch1
10
421.107276
20
-16.990380
11
422.096752
21
-19.378630
0
LINE
8
hello_you v6_Sketch1
10
422.096752
20
-19.378630
11
423.298051
21
-21.644929
0
LINE
8
hello_you v6_Sketch1
10
423.298051
20
-21.644929
11
424.698472
21
-23.777251
0
LINE
8
hello_you v6_Sketch1
10
424.698472
20
-23.777251
11
426.285314
21
-25.763569
0
LINE
8
hello_you v6_Sketch1
10
426.285314
20
-25.763569
11
428.045877
21
-27.591858
0
LINE
8
hello_you v6_Sketch1
10
428.045877
20
-27.591858
11
429.967461
21
-29.250092
0
LINE
8
hello_you v6_Sketch1
10
429.967461
20
-29.250092
11
432.037364
21
-30.726246
0
LINE
8
hello_you v6_Sketch1
10
432.037364
20
-30.726246
11
434.242886
21
-32.008292
0
LINE
8
hello_you v6_Sketch1
10
434.242886
20
-32.008292
11
436.571327
21
-33.084207
0
LINE
8
hello_you v6_Sketch1
10
436.571327
20
-33.084207
11
439.009986
21
-33.941963
0
LINE
8
hello_you v6_Sketch1
10
439.009986
20
-33.941963
11
441.546162
21
-34.569535
0
LINE
8
hello_you v6_Sketch1
10
441.546162
20
-34.569535
11
444.167156
21
-34.954897
0
LINE
8
hello_you v6_Sketch1
10
444.167156
20
-34.954897
11
446.860265
21
-35.086024
0
LINE
8
hello_you v6_Sketch1
10
446.860265
20
-35.086024
11
449.553374
21
-34.954897
0
LINE
8
hello_you v6_Sketch1
10
449.553374
20
-34.954897
11
452.174368
21
-34.569535
0
LINE
8
hello_you v6_Sketch1
10
452.174368
20
-34.569535
11
454.710544
21
-33.941963
0
LINE
8
hello_you v6_Sketch1
10
454.710544
20
-33.941963
11
457.149203
21
-33.084207
0
LINE
8
hello_you v6_Sketch1
10
457.149203
20
-33.084207
11
459.477644
21
-32.008292
0
LINE
8
hello_you v6_Sketch1
10
459.477644
20
-32.008292
11
461.683166
21
-30.726246
0
LINE
8
hello_you v6_Sketch1
10
461.683166
20
-30.726246
11
463.753069
21
-29.250092
0
LINE
8
hello_you v6_Sketch1
10
463.753069
20
-29.250092
11
465.674653
21
-27.591858
0
LINE
8
hello_you v6_Sketch1
10
465.674653
20
-27.591858
11
467.435216
21
-25.763569
0
LINE
8
hello_you v6_Sketch1
10
467.435216
20
-25.763569
11
469.022058
21
-23.777251
0
LINE
8
hello_you v6_Sketch1
10
469.022058
20
-23.777251
11
470.422479
21
-21.644929
0
LINE
8
hello_you v6_Sketch1
10
470.422479
20
-21.644929
11
471.623778
21
-19.378630
0
LINE
8
hello_you v6_Sketch1
10
471.623778
20
-19.378630
11
472.613254
21
-16.990380
0
LINE
8
hello_you v6_Sketch1
10
472.613254
20
-16.990380
11
473.378207
21
-14.492204
0
LINE
8
hello_you v6_Sketch1
10
473.378207
20
-14.492204
11
473.905936
21
-11.896128
0
LINE
8
hello_you v6_Sketch1
10
473.905936
20
-11.896128
11
474.183741
21
-9.214177
0
LINE
8
hello_you v6_Sketch1
10
474.183741
20
-9.214177
11
474.199683
21
-6.517925
0
LINE
8
hello_you v6_Sketch1
10
474.199683
20
-6.517925
11
473.957834
21
-3.879816
0
LINE
8
hello_you v6_Sketch1
10
473.957834
20
-3.879816
11
473.469511
21
-1.313188
0
LINE
8
hello_you v6_Sketch1
10
473.469511
20
-1.313188
11
472.746028
21
1.168621
0
LINE
8
hello_you v6_Sketch1
10
472.746028
20
1.168621
11
471.798700
21
3.552273
0
LINE
8
hello_you v6_Sketch1
10
471.798700
20
3.552273
11
470.638843
21
5.824432
0
LINE
8
hello_you v6_Sketch1
10
470.638843
20
5.824432
11
469.277772
21
7.971759
0
LINE
8
hello_you v6_Sketch1
10
469.277772
20
7.971759
11
467.726803
21
9.980917
0
LINE
8
hello_you v6_Sketch1
10
467.726803
20
9.980917
11
465.997250
21
11.838569
0
LINE
8
hello_you v6_Sketch1
10
465.997250
20
11.838569
11
464.100429
21
13.531377
0
LINE
8
hello_you v6_Sketch1
10
464.100429
20
13.531377
11
462.047655
21
15.046004
0
LINE
8
hello_you v6_Sketch1
10
462.047655
20
15.046004
11
459.850244
21
16.369111
0
LINE
8
hello_you v6_Sketch1
10
459.850244
20
16.369111
11
457.519510
21
17.487362
0
LINE
8
hello_you v6_Sketch1
10
457.519510
20
17.487362
11
455.066770
21
18.387419
0
LINE
8
hello_you v6_Sketch1
10
455.066770
20
18.387419
11
452.503338
21
19.055944
0
LINE
8
hello_you v6_Sketch1
10
452.503338
20
19.055944
11
449.840530
21
19.479600
0
LINE
8
hello_you v6_Sketch1
10
554.964000
20
24.790400
11
560.925000
21
24.790400
0
LINE
8
hello_you v6_Sketch1
10
446.590000
20
-94.313300
11
443.927192
21
-94.736956
0
LINE
8
hello_you v6_Sketch1
10
443.927192
20
-94.736956
11
441.363760
21
-95.405481
0
LINE
8
hello_you v6_Sketch1
10
441.363760
20
-95.405481
11
438.911020
21
-96.305538
0
LINE
8
hello_you v6_Sketch1
10
438.911020
20
-96.305538
11
436.580286
21
-97.423789
0
LINE
8
hello_you v6_Sketch1
10
436.580286
20
-97.423789
11
434.382875
21
-98.746896
0
LINE
8
hello_you v6_Sketch1
10
434.382875
20
-98.746896
11
432.330101
21
-100.261523
0
LINE
8
hello_you v6_Sketch1
10
432.330101
20
-100.261523
11
430.433280
21
-101.954331
0
LINE
8
hello_you v6_Sketch1
10
430.433280
20
-101.954331
11
428.703727
21
-103.811983
0
LINE
8
hello_you v6_Sketch1
10
428.703727
20
-103.811983
11
427.152758
21
-105.821141
0
LINE
8
hello_you v6_Sketch1
10
427.152758
20
-105.821141
11
425.791687
21
-107.968468
0
LINE
8
hello_you v6_Sketch1
10
425.791687
20
-107.968468
11
424.631830
21
-110.240627
0
LINE
8
hello_you v6_Sketch1
10
424.631830
20
-110.240627
11
423.684502
21
-112.624279
0
LINE
8
hello_you v6_Sketch1
10
423.684502
20
-112.624279
11
422.961019
21
-115.106088
0
LINE
8
hello_you v6_Sketch1
10
422.961019
20
-115.106088
11
422.472696
21
-117.672716
0
LINE
8
hello_you v6_Sketch1
10
422.472696
20
-117.672716
11
422.230847
21
-120.310825
0
LINE
8
hello_you v6_Sketch1
10
422.230847
20
-120.310825
11
422.246789
21
-123.007077
0
LINE
8
hello_you v6_Sketch1
10
422.246789
20
-123.007077
11
422.524594
21
-125.689028
0
LINE
8
hello_you v6_Sketch1
10
422.524594
20
-125.689028
11
423.052323
21
-128.285104
0
LINE
8
hello_you v6_Sketch1
10
423.052323
20
-128.285104
11
423.817276
21
-130.783280
0
LINE
8
hello_you v6_Sketch1
10
423.817276
20
-130.783280
11
424.806752
21
-133.171530
0
LINE
8
hello_you v6_Sketch1
10
424.806752
20
-133.171530
11
426.008051
21
-135.437829
0
LINE
8
hello_you v6_Sketch1
10
426.008051
20
-135.437829
11
427.408472
21
-137.570151
0
LINE
8
hello_you v6_Sketch1
10
427.408472
20
-137.570151
11
428.995314
21
-139.556469
0
LINE
8
hello_you v6_Sketch1
10
428.995314
20
-139.556469
11
430.755877
21
-141.384758
0
LINE
8
hello_you v6_Sketch1
10
430.755877
20
-141.384758
11
432.677461
21
-143.042992
0
LINE
8
hello_you v6_Sketch1
10
432.677461
20
-143.042992
11
434.747364
21
-144.519146
0
LINE
8
hello_you v6_Sketch1
10
434.747364
20
-144.519146
11
436.952886
21
-145.801192
0
LINE
8
hello_you v6_Sketch1
10
436.952886
20
-145.801192
11
439.281327
21
-146.877107
0
LINE
8
hello_you v6_Sketch1
10
439.281327
20
-146.877107
11
441.719986
21
-147.734863
0
LINE
8
hello_you v6_Sketch1
10
441.719986
20
-147.734863
11
444.256162
21
-148.362435
0
LINE
8
hello_you v6_Sketch1
10
444.256162
20
-148.362435
11
446.877156
21
-148.747797
0
LINE
8
hello_you v6_Sketch1
10
446.877156
20
-148.747797
11
449.570265
21
-148.878924
0
LINE
8
hello_you v6_Sketch1
10
449.570265
20
-148.878924
11
452.263374
21
-148.747797
0
LINE
8
hello_you v6_Sketch1
10
452.263374
20
-148.747797
11
454.884368
21
-148.362435
0
LINE
8
hello_you v6_Sketch1
10
454.884368
20
-148.362435
11
457.420544
21
-147.734863
0
LINE
8
hello_you v6_Sketch1
10
457.420544
20
-147.734863
11
459.859203
21
-146.877107
0
LINE
8
hello_you v6_Sketch1
10
459.859203
20
-146.877107
11
462.187644
21
-145.801192
0
LINE
8
hello_you v6_Sketch1
10
462.187644
20
-145.801192
11
464.393166
21
-144.519146
0
LINE
8
hello_you v6_Sketch1
10
464.393166
20
-144.519146
11
466.463069
21
-143.042992
0
LINE
8
hello_you v6_Sketch1
10
466.463069
20
-143.042992
11
468.384653
21
-141.384758
0
LINE
8
hello_you v6_Sketch1
10
468.384653
20
-141.384758
11
470.145216
21
-139.556469
0
LINE
8
hello_you v6_Sketch1
10
470.145216
20
-139.556469
11
471.732058
21
-137.570151
0
LINE
8
hello_you v6_Sketch1
10
471.732058
20
-137.570151
11
473.132479
21
-135.437829
0
LINE
8
hello_you v6_Sketch1
10
473.132479
20
-135.437829
11
474.333778
21
-133.171530
0
LINE
8
hello_you v6_Sketch1
10
474.333778
20
-133.171530
11
475.323254
21
-130.783280
0
LINE
8
hello_you v6_Sketch1
10
475.323254
20
-130.783280
11
476.088207
21
-128.285104
0
LINE
8
hello_you v6_Sketch1
10
476.088207
20
-128.285104
11
476.615936
21
-125.689028
0
LINE
8
hello_you v6_Sketch1
10
476.615936
20
-125.689028
11
476.893741
21
-123.007077
0
LINE
8
hello_you v6_Sketch1
10
476.893741
20
-123.007077
11
476.909683
21
-120.310825
0
LINE
8
hello_you v6_Sketch1
10
476.909683
20
-120.310825
11
476.667834
21
-117.672716
0
LINE
8
hello_you v6_Sketch1
10
476.667834
20
-117.672716
11
476.179511
21
-115.106088
0
LINE
8
hello_you v6_Sketch1
10
476.179511
20
-115.106088
11
475.456028
21
-112.624279
0
LINE
8
hello_you v6_Sketch1
10
475.456028
20
-112.624279
11
474.508700
21
-110.240627
0
LINE
8
hello_you v6_Sketch1
10
474.508700
20
-110.240627
11
473.348843
21
-107.968468
0
LINE
8
hello_you v6_Sketch1
10
473.348843
20
-107.968468
11
471.987772
21
-105.821141
0
LINE
8
hello_you v6_Sketch1
10
471.987772
20
-105.821141
11
470.436803
21
-103.811983
0
LINE
8
hello_you v6_Sketch1
10
470.436803
20
-103.811983
11
468.707250
21
-101.954331
0
LINE
8
hello_you v6_Sketch1
10
468.707250
20
-101.954331
11
466.810429
21
-100.261523
0
LINE
8
hello_you v6_Sketch1
10
466.810429
20
-100.261523
11
464.757655
21
-98.746896
0
LINE
8
hello_you v6_Sketch1
10
464.757655
20
-98.746896
11
462.560244
21
-97.423789
0
LINE
8
hello_you v6_Sketch1
10
462.560244
20
-97.423789
11
460.229510
21
-96.305538
0
LINE
8
hello_you v6_Sketch1
10
460.229510
20
-96.305538
11
457.776770
21
-95.405481
0
LINE
8
hello_you v6_Sketch1
10
457.776770
20
-95.405481
11
455.213338
21
-94.736956
0
LINE
8
hello_you v6_Sketch1
10
455.213338
20
-94.736956
11
452.550530
21
-94.313300
0
LINE
8
hello_you v6_Sketch1
10
517.034000
20
-53.671300
11
517.034000
21
-51.070100
0
LINE
8
hello_you v6_Sketch1
10
452.551000
20
-91.713400
11
452.551000
21
-94.312700
0
LINE
8
hello_you v6_Sketch1
10
517.033000
20
-53.671400
11
514.370192
21
-54.095056
0
LINE
8
hello_you v6_Sketch1
10
514.370192
20
-54.095056
11
511.806760
21
-54.763581
0
LINE
8
hello_you v6_Sketch1
10
511.806760
20
-54.763581
11
509.354020
21
-55.663638
0
LINE
8
hello_you v6_Sketch1
10
509.354020
20
-55.663638
11
507.023286
21
-56.781889
0
LINE
8
hello_you v6_Sketch1
10
507.023286
20
-56.781889
11
504.825875
21
-58.104996
0
LINE
8
hello_you v6_Sketch1
10
504.825875
20
-58.104996
11
502.773101
21
-59.619623
0
LINE
8
hello_you v6_Sketch1
10
502.773101
20
-59.619623
11
500.876280
21
-61.312431
0
LINE
8
hello_you v6_Sketch1
10
500.876280
20
-61.312431
11
499.146727
21
-63.170083
0
LINE
8
hello_you v6_Sketch1
10
499.146727
20
-63.170083
11
497.595758
21
-65.179241
0
LINE
8
hello_you v6_Sketch1
10
497.595758
20
-65.179241
11
496.234687
21
-67.326568
0
LINE
8
hello_you v6_Sketch1
10
496.234687
20
-67.326568
11
495.074830
21
-69.598727
0
LINE
8
hello_you v6_Sketch1
10
495.074830
20
-69.598727
11
494.127502
21
-71.982379
0
LINE
8
hello_you v6_Sketch1
10
494.127502
20
-71.982379
11
493.404019
21
-74.464188
0
LINE
8
hello_you v6_Sketch1
10
493.404019
20
-74.464188
11
492.915696
21
-77.030816
0
LINE
8
hello_you v6_Sketch1
10
492.915696
20
-77.030816
11
492.673847
21
-79.668925
0
LINE
8
hello_you v6_Sketch1
10
492.673847
20
-79.668925
11
492.689789
21
-82.365177
0
LINE
8
hello_you v6_Sketch1
10
492.689789
20
-82.365177
11
492.967594
21
-85.047128
0
LINE
8
hello_you v6_Sketch1
10
492.967594
20
-85.047128
11
493.495323
21
-87.643204
0
LINE
8
hello_you v6_Sketch1
10
493.495323
20
-87.643204
11
494.260276
21
-90.141380
0
LINE
8
hello_you v6_Sketch1
10
494.260276
20
-90.141380
11
495.249752
21
-92.529630
0
LINE
8
hello_you v6_Sketch1
10
495.249752
20
-92.529630
11
496.451051
21
-94.795929
0
LINE
8
hello_you v6_Sketch1
10
496.451051
20
-94.795929
11
497.851472
21
-96.928251
0
LINE
8
hello_you v6_Sketch1
10
497.851472
20
-96.928251
11
499.438314
21
-98.914569
0
LINE
8
hello_you v6_Sketch1
10
499.438314
20
-98.914569
11
501.198877
21
-100.742858
0
LINE
8
hello_you v6_Sketch1
10
501.198877
20
-100.742858
11
503.120461
21
-102.401092
0
LINE
8
hello_you v6_Sketch1
10
503.120461
20
-102.401092
11
505.190364
21
-103.877246
0
LINE
8
hello_you v6_Sketch1
10
505.190364
20
-103.877246
11
507.395886
21
-105.159292
0
LINE
8
hello_you v6_Sketch1
10
507.395886
20
-105.159292
11
509.724327
21
-106.235207
0
LINE
8
hello_you v6_Sketch1
10
509.724327
20
-106.235207
11
512.162986
21
-107.092963
0
LINE
8
hello_you v6_Sketch1
10
512.162986
20
-107.092963
11
514.699162
21
-107.720535
0
LINE
8
hello_you v6_Sketch1
10
514.699162
20
-107.720535
11
517.320156
21
-108.105897
0
LINE
8
hello_you v6_Sketch1
10
517.320156
20
-108.105897
11
520.013265
21
-108.237024
0
LINE
8
hello_you v6_Sketch1
10
520.013265
20
-108.237024
11
522.706374
21
-108.105897
0
LINE
8
hello_you v6_Sketch1
10
522.706374
20
-108.105897
11
525.327368
21
-107.720535
0
LINE
8
hello_you v6_Sketch1
10
525.327368
20
-107.720535
11
527.863544
21
-107.092963
0
LINE
8
hello_you v6_Sketch1
10
527.863544
20
-107.092963
11
530.302203
21
-106.235207
0
LINE
8
hello_you v6_Sketch1
10
530.302203
20
-106.235207
11
532.630644
21
-105.159292
0
LINE
8
hello_you v6_Sketch1
10
532.630644
20
-105.159292
11
534.836166
21
-103.877246
0
LINE
8
hello_you v6_Sketch1
10
534.836166
20
-103.877246
11
536.906069
21
-102.401092
0
LINE
8
hello_you v6_Sketch1
10
536.906069
20
-102.401092
11
538.827653
21
-100.742858
0
LINE
8
hello_you v6_Sketch1
10
538.827653
20
-100.742858
11
540.588216
21
-98.914569
0
LINE
8
hello_you v6_Sketch1
10
540.588216
20
-98.914569
11
542.175058
21
-96.928251
0
LINE
8
hello_you v6_Sketch1
10
542.175058
20
-96.928251
11
543.575479
21
-94.795929
0
LINE
8
hello_you v6_Sketch1
10
543.575479
20
-94.795929
11
544.776778
21
-92.529630
0
LINE
8
hello_you v6_Sketch1
10
544.776778
20
-92.529630
11
545.766254
21
-90.141380
0
LINE
8
hello_you v6_Sketch1
10
545.766254
20
-90.141380
11
546.531207
21
-87.643204
0
LINE
8
hello_you v6_Sketch1
10
546.531207
20
-87.643204
11
547.058936
21
-85.047128
0
LINE
8
hello_you v6_Sketch1
10
547.058936
20
-85.047128
11
547.336741
21
-82.365177
0
LINE
8
hello_you v6_Sketch1
10
547.336741
20
-82.365177
11
547.352683
21
-79.668925
0
LINE
8
hello_you v6_Sketch1
10
547.352683
20
-79.668925
11
547.110834
21
-77.030816
0
LINE
8
hello_you v6_Sketch1
10
547.110834
20
-77.030816
11
546.622511
21
-74.464188
0
LINE
8
hello_you v6_Sketch1
10
546.622511
20
-74.464188
11
545.899028
21
-71.982379
0
LINE
8
hello_you v6_Sketch1
10
545.899028
20
-71.982379
11
544.951700
21
-69.598727
0
LINE
8
hello_you v6_Sketch1
10
544.951700
20
-69.598727
11
543.791843
21
-67.326568
0
LINE
8
hello_you v6_Sketch1
10
543.791843
20
-67.326568
11
542.430772
21
-65.179241
0
LINE
8
hello_you v6_Sketch1
10
542.430772
20
-65.179241
11
540.879803
21
-63.170083
0
LINE
8
hello_you v6_Sketch1
10
540.879803
20
-63.170083
11
539.150250
21
-61.312431
0
LINE
8
hello_you v6_Sketch1
10
539.150250
20
-61.312431
11
537.253429
21
-59.619623
0
LINE
8
hello_you v6_Sketch1
10
537.253429
20
-59.619623
11
535.200655
21
-58.104996
0
LINE
8
hello_you v6_Sketch1
10
535.200655
20
-58.104996
11
533.003244
21
-56.781889
0
LINE
8
hello_you v6_Sketch1
10
533.003244
20
-56.781889
11
530.672510
21
-55.663638
0
LINE
8
hello_you v6_Sketch1
10
530.672510
20
-55.663638
11
528.219770
21
-54.763581
0
LINE
8
hello_you v6_Sketch1
10
528.219770
20
-54.763581
11
525.656338
21
-54.095056
0
LINE
8
hello_you v6_Sketch1
10
525.656338
20
-54.095056
11
522.993530
21
-53.671400
0
LINE
8
hello_you v6_Sketch1
10
446.591000
20
-91.713400
11
452.551000
21
-91.713400
0
LINE
8
hello_you v6_Sketch1
10
517.031000
20
-129.641000
11
522.991000
21
-129.641000
0
LINE
8
hello_you v6_Sketch1
10
445.233000
20
-174.238000
11
445.233000
21
-171.636000
0
LINE
8
hello_you v6_Sketch1
10
443.879000
20
19.479500
11
443.879000
21
22.080700
0
LINE
8
hello_you v6_Sketch1
10
451.194000
20
-171.636000
11
451.194000
21
-174.238000
0
LINE
8
hello_you v6_Sketch1
10
587.475000
20
-94.312300
11
584.812192
21
-94.735956
0
LINE
8
hello_you v6_Sketch1
10
584.812192
20
-94.735956
11
582.248760
21
-95.404481
0
LINE
8
hello_you v6_Sketch1
10
582.248760
20
-95.404481
11
579.796020
21
-96.304538
0
LINE
8
hello_you v6_Sketch1
10
579.796020
20
-96.304538
11
577.465286
21
-97.422789
0
LINE
8
hello_you v6_Sketch1
10
577.465286
20
-97.422789
11
575.267875
21
-98.745896
0
LINE
8
hello_you v6_Sketch1
10
575.267875
20
-98.745896
11
573.215101
21
-100.260523
0
LINE
8
hello_you v6_Sketch1
10
573.215101
20
-100.260523
11
571.318280
21
-101.953331
0
LINE
8
hello_you v6_Sketch1
10
571.318280
20
-101.953331
11
569.588727
21
-103.810983
0
LINE
8
hello_you v6_Sketch1
10
569.588727
20
-103.810983
11
568.037758
21
-105.820141
0
LINE
8
hello_you v6_Sketch1
10
568.037758
20
-105.820141
11
566.676687
21
-107.967468
0
LINE
8
hello_you v6_Sketch1
10
566.676687
20
-107.967468
11
565.516830
21
-110.239627
0
LINE
8
hello_you v6_Sketch1
10
565.516830
20
-110.239627
11
564.569502
21
-112.623279
0
LINE
8
hello_you v6_Sketch1
10
564.569502
20
-112.623279
11
563.846019
21
-115.105088
0
LINE
8
hello_you v6_Sketch1
10
563.846019
20
-115.105088
11
563.357696
21
-117.671716
0
LINE
8
hello_you v6_Sketch1
10
563.357696
20
-117.671716
11
563.115847
21
-120.309825
0
LINE
8
hello_you v6_Sketch1
10
563.115847
20
-120.309825
11
563.131789
21
-123.006077
0
LINE
8
hello_you v6_Sketch1
10
563.131789
20
-123.006077
11
563.409594
21
-125.688028
0
LINE
8
hello_you v6_Sketch1
10
563.409594
20
-125.688028
11
563.937323
21
-128.284104
0
LINE
8
hello_you v6_Sketch1
10
563.937323
20
-128.284104
11
564.702276
21
-130.782280
0
LINE
8
hello_you v6_Sketch1
10
564.702276
20
-130.782280
11
565.691752
21
-133.170530
0
LINE
8
hello_you v6_Sketch1
10
565.691752
20
-133.170530
11
566.893051
21
-135.436829
0
LINE
8
hello_you v6_Sketch1
10
566.893051
20
-135.436829
11
568.293472
21
-137.569151
0
LINE
8
hello_you v6_Sketch1
10
568.293472
20
-137.569151
11
569.880314
21
-139.555469
0
LINE
8
hello_you v6_Sketch1
10
569.880314
20
-139.555469
11
571.640877
21
-141.383758
0
LINE
8
hello_you v6_Sketch1
10
571.640877
20
-141.383758
11
573.562461
21
-143.041992
0
LINE
8
hello_you v6_Sketch1
10
573.562461
20
-143.041992
11
575.632364
21
-144.518146
0
LINE
8
hello_you v6_Sketch1
10
575.632364
20
-144.518146
11
577.837886
21
-145.800192
0
LINE
8
hello_you v6_Sketch1
10
577.837886
20
-145.800192
11
580.166327
21
-146.876107
0
LINE
8
hello_you v6_Sketch1
10
580.166327
20
-146.876107
11
582.604986
21
-147.733863
0
LINE
8
hello_you v6_Sketch1
10
582.604986
20
-147.733863
11
585.141162
21
-148.361435
0
LINE
8
hello_you v6_Sketch1
10
585.141162
20
-148.361435
11
587.762156
21
-148.746797
0
LINE
8
hello_you v6_Sketch1
10
587.762156
20
-148.746797
11
590.455265
21
-148.877924
0
LINE
8
hello_you v6_Sketch1
10
590.455265
20
-148.877924
11
593.148374
21
-148.746797
0
LINE
8
hello_you v6_Sketch1
10
593.148374
20
-148.746797
11
595.769368
21
-148.361435
0
LINE
8
hello_you v6_Sketch1
10
595.769368
20
-148.361435
11
598.305544
21
-147.733863
0
LINE
8
hello_you v6_Sketch1
10
598.305544
20
-147.733863
11
600.744203
21
-146.876107
0
LINE
8
hello_you v6_Sketch1
10
600.744203
20
-146.876107
11
603.072644
21
-145.800192
0
LINE
8
hello_you v6_Sketch1
10
603.072644
20
-145.800192
11
605.278166
21
-144.518146
0
LINE
8
hello_you v6_Sketch1
10
605.278166
20
-144.518146
11
607.348069
21
-143.041992
0
LINE
8
hello_you v6_Sketch1
10
607.348069
20
-143.041992
11
609.269653
21
-141.383758
0
LINE
8
hello_you v6_Sketch1
10
609.269653
20
-141.383758
11
611.030216
21
-139.555469
0
LINE
8
hello_you v6_Sketch1
10
611.030216
20
-139.555469
11
612.617058
21
-137.569151
0
LINE
8
hello_you v6_Sketch1
10
612.617058
20
-137.569151
11
614.017479
21
-135.436829
0
LINE
8
hello_you v6_Sketch1
10
614.017479
20
-135.436829
11
615.218778
21
-133.170530
0
LINE
8
hello_you v6_Sketch1
10
615.218778
20
-133.170530
11
616.208254
21
-130.782280
0
LINE
8
hello_you v6_Sketch1
10
616.208254
20
-130.782280
11
616.973207
21
-128.284104
0
LINE
8
hello_you v6_Sketch1
10
616.973207
20
-128.284104
11
617.500936
21
-125.688028
0
LINE
8
hello_you v6_Sketch1
10
617.500936
20
-125.688028
11
617.778741
21
-123.006077
0
LINE
8
hello_you v6_Sketch1
10
617.778741
20
-123.006077
11
617.794683
21
-120.309825
0
LINE
8
hello_you v6_Sketch1
10
617.794683
20
-120.309825
11
617.552834
21
-117.671716
0
LINE
8
hello_you v6_Sketch1
10
617.552834
20
-117.671716
11
617.064511
21
-115.105088
0
LINE
8
hello_you v6_Sketch1
10
617.064511
20
-115.105088
11
616.341028
21
-112.623279
0
LINE
8
hello_you v6_Sketch1
10
616.341028
20
-112.623279
11
615.393700
21
-110.239627
0
LINE
8
hello_you v6_Sketch1
10
615.393700
20
-110.239627
11
614.233843
21
-107.967468
0
LINE
8
hello_you v6_Sketch1
10
614.233843
20
-107.967468
11
612.872772
21
-105.820141
0
LINE
8
hello_you v6_Sketch1
10
612.872772
20
-105.820141
11
611.321803
21
-103.810983
0
LINE
8
hello_you v6_Sketch1
10
611.321803
20
-103.810983
11
609.592250
21
-101.953331
0
LINE
8
hello_you v6_Sketch1
10
609.592250
20
-101.953331
11
607.695429
21
-100.260523
0
LINE
8
hello_you v6_Sketch1
10
607.695429
20
-100.260523
11
605.642655
21
-98.745896
0
LINE
8
hello_you v6_Sketch1
10
605.642655
20
-98.745896
11
603.445244
21
-97.422789
0
LINE
8
hello_you v6_Sketch1
10
603.445244
20
-97.422789
11
601.114510
21
-96.304538
0
LINE
8
hello_you v6_Sketch1
10
601.114510
20
-96.304538
11
598.661770
21
-95.404481
0
LINE
8
hello_you v6_Sketch1
10
598.661770
20
-95.404481
11
596.098338
21
-94.735956
0
LINE
8
hello_you v6_Sketch1
10
596.098338
20
-94.735956
11
593.435530
21
-94.312300
0
LINE
8
hello_you v6_Sketch1
10
554.963000
20
22.189200
11
552.300192
21
21.765544
0
LINE
8
hello_you v6_Sketch1
10
552.300192
20
21.765544
11
549.736760
21
21.097019
0
LINE
8
hello_you v6_Sketch1
10
549.736760
20
21.097019
11
547.284020
21
20.196962
0
LINE
8
hello_you v6_Sketch1
10
547.284020
20
20.196962
11
544.953286
21
19.078711
0
LINE
8
hello_you v6_Sketch1
10
544.953286
20
19.078711
11
542.755875
21
17.755604
0
LINE
8
hello_you v6_Sketch1
10
542.755875
20
17.755604
11
540.703101
21
16.240977
0
LINE
8
hello_you v6_Sketch1
10
540.703101
20
16.240977
11
538.806280
21
14.548169
0
LINE
8
hello_you v6_Sketch1
10
538.806280
20
14.548169
11
537.076727
21
12.690517
0
LINE
8
hello_you v6_Sketch1
10
537.076727
20
12.690517
11
535.525758
21
10.681359
0
LINE
8
hello_you v6_Sketch1
10
535.525758
20
10.681359
11
534.164687
21
8.534032
0
LINE
8
hello_you v6_Sketch1
10
534.164687
20
8.534032
11
533.004830
21
6.261873
0
LINE
8
hello_you v6_Sketch1
10
533.004830
20
6.261873
11
532.057502
21
3.878221
0
LINE
8
hello_you v6_Sketch1
10
532.057502
20
3.878221
11
531.334019
21
1.396412
0
LINE
8
hello_you v6_Sketch1
10
531.334019
20
1.396412
11
530.845696
21
-1.170216
0
LINE
8
hello_you v6_Sketch1
10
530.845696
20
-1.170216
11
530.603847
21
-3.808325
0
LINE
8
hello_you v6_Sketch1
10
530.603847
20
-3.808325
11
530.619789
21
-6.504577
0
LINE
8
hello_you v6_Sketch1
10
530.619789
20
-6.504577
11
530.897594
21
-9.186528
0
LINE
8
hello_you v6_Sketch1
10
530.897594
20
-9.186528
11
531.425323
21
-11.782604
0
LINE
8
hello_you v6_Sketch1
10
531.425323
20
-11.782604
11
532.190276
21
-14.280780
0
LINE
8
hello_you v6_Sketch1
10
532.190276
20
-14.280780
11
533.179752
21
-16.669030
0
LINE
8
hello_you v6_Sketch1
10
533.179752
20
-16.669030
11
534.381051
21
-18.935329
0
LINE
8
hello_you v6_Sketch1
10
534.381051
20
-18.935329
11
535.781472
21
-21.067651
0
LINE
8
hello_you v6_Sketch1
10
535.781472
20
-21.067651
11
537.368314
21
-23.053969
0
LINE
8
hello_you v6_Sketch1
10
537.368314
20
-23.053969
11
539.128877
21
-24.882258
0
LINE
8
hello_you v6_Sketch1
10
539.128877
20
-24.882258
11
541.050461
21
-26.540492
0
LINE
8
hello_you v6_Sketch1
10
541.050461
20
-26.540492
11
543.120364
21
-28.016646
0
LINE
8
hello_you v6_Sketch1
10
543.120364
20
-28.016646
11
545.325886
21
-29.298692
0
LINE
8
hello_you v6_Sketch1
10
545.325886
20
-29.298692
11
547.654327
21
-30.374607
0
LINE
8
hello_you v6_Sketch1
10
547.654327
20
-30.374607
11
550.092986
21
-31.232363
0
LINE
8
hello_you v6_Sketch1
10
550.092986
20
-31.232363
11
552.629162
21
-31.859935
0
LINE
8
hello_you v6_Sketch1
10
552.629162
20
-31.859935
11
555.250156
21
-32.245297
0
LINE
8
hello_you v6_Sketch1
10
555.250156
20
-32.245297
11
557.943265
21
-32.376424
0
LINE
8
hello_you v6_Sketch1
10
557.943265
20
-32.376424
11
560.636374
21
-32.245297
0
LINE
8
hello_you v6_Sketch1
10
560.636374
20
-32.245297
11
563.257368
21
-31.859935
0
LINE
8
hello_you v6_Sketch1
10
563.257368
20
-31.859935
11
565.793544
21
-31.232363
0
LINE
8
hello_you v6_Sketch1
10
565.793544
20
-31.232363
11
568.232203
21
-30.374607
0
LINE
8
hello_you v6_Sketch1
10
568.232203
20
-30.374607
11
570.560644
21
-29.298692
0
LINE
8
hello_you v6_Sketch1
10
570.560644
20
-29.298692
11
572.766166
21
-28.016646
0
LINE
8
hello_you v6_Sketch1
10
572.766166
20
-28.016646
11
574.836069
21
-26.540492
0
LINE
8
hello_you v6_Sketch1
10
574.836069
20
-26.540492
11
576.757653
21
-24.882258
0
LINE
8
hello_you v6_Sketch1
10
576.757653
20
-24.882258
11
578.518216
21
-23.053969
0
LINE
8
hello_you v6_Sketch1
10
578.518216
20
-23.053969
11
580.105058
21
-21.067651
0
LINE
8
hello_you v6_Sketch1
10
580.105058
20
-21.067651
11
581.505479
21
-18.935329
0
LINE
8
hello_you v6_Sketch1
10
581.505479
20
-18.935329
11
582.706778
21
-16.669030
0
LINE
8
hello_you v6_Sketch1
10
582.706778
20
-16.669030
11
583.696254
21
-14.280780
0
LINE
8
hello_you v6_Sketch1
10
583.696254
20
-14.280780
11
584.461207
21
-11.782604
0
LINE
8
hello_you v6_Sketch1
10
584.461207
20
-11.782604
11
584.988936
21
-9.186528
0
LINE
8
hello_you v6_Sketch1
10
584.988936
20
-9.186528
11
585.266741
21
-6.504577
0
LINE
8
hello_you v6_Sketch1
10
585.266741
20
-6.504577
11
585.282683
21
-3.808325
0
LINE
8
hello_you v6_Sketch1
10
585.282683
20
-3.808325
11
585.040834
21
-1.170216
0
LINE
8
hello_you v6_Sketch1
10
585.040834
20
-1.170216
11
584.552511
21
1.396412
0
LINE
8
hello_you v6_Sketch1
10
584.552511
20
1.396412
11
583.829028
21
3.878221
0
LINE
8
hello_you v6_Sketch1
10
583.829028
20
3.878221
11
582.881700
21
6.261873
0
LINE
8
hello_you v6_Sketch1
10
582.881700
20
6.261873
11
581.721843
21
8.534032
0
LINE
8
hello_you v6_Sketch1
10
581.721843
20
8.534032
11
580.360772
21
10.681359
0
LINE
8
hello_you v6_Sketch1
10
580.360772
20
10.681359
11
578.809803
21
12.690517
0
LINE
8
hello_you v6_Sketch1
10
578.809803
20
12.690517
11
577.080250
21
14.548169
0
LINE
8
hello_you v6_Sketch1
10
577.080250
20
14.548169
11
575.183429
21
16.240977
0
LINE
8
hello_you v6_Sketch1
10
575.183429
20
16.240977
11
573.130655
21
17.755604
0
LINE
8
hello_you v6_Sketch1
10
573.130655
20
17.755604
11
570.933244
21
19.078711
0
LINE
8
hello_you v6_Sketch1
10
570.933244
20
19.078711
11
568.602510
21
20.196962
0
LINE
8
hello_you v6_Sketch1
10
568.602510
20
20.196962
11
566.149770
21
21.097019
0
LINE
8
hello_you v6_Sketch1
10
566.149770
20
21.097019
11
563.586338
21
21.765544
0
LINE
8
hello_you v6_Sketch1
10
563.586338
20
21.765544
11
560.923530
21
22.189200
0
LINE
8
hello_you v6_Sketch1
10
517.034000
20
-51.070100
11
522.994000
21
-51.070100
0
LINE
8
hello_you v6_Sketch4
10
0.070555
20
-103.502000
11
0.035278
21
-103.440897
0
LINE
8
hello_you v6_Sketch4
10
0.035278
20
-103.440897
11
-0.035278
21
-103.440897
0
LINE
8
hello_you v6_Sketch4
10
-0.035278
20
-103.440897
11
-0.070555
21
-103.502000
0
LINE
8
hello_you v6_Sketch4
10
-0.070555
20
-103.502000
11
-0.035278
21
-103.563103
0
LINE
8
hello_you v6_Sketch4
10
-0.035278
20
-103.563103
11
0.035278
21
-103.563103
0
LINE
8
hello_you v6_Sketch4
10
0.035278
20
-103.563103
11
0.070555
21
-103.502000
0
LINE
8
hello_you v6_Sketch4
10
0.070555
20
-103.502000
11
0.070555
21
-103.502000
0
LINE
8
hello_you v6_Sketch4
10
512.157000
20
260.501000
11
512.157000
21
257.900000
0
LINE
8
hello_you v6_Sketch4
10
451.194000
20
-171.636000
11
451.194000
21
-174.238000
0
LINE
8
hello_you v6_Sketch4
10
587.475000
20
-94.312300
11
584.812192
21
-94.735956
0
LINE
8
hello_you v6_Sketch4
10
584.812192
20
-94.735956
11
582.248760
21
-95.404481
0
LINE
8
hello_you v6_Sketch4
10
582.248760
20
-95.404481
11
579.796020
21
-96.304538
0
LINE
8
hello_you v6_Sketch4
10
579.796020
20
-96.304538
11
577.465286
21
-97.422789
0
LINE
8
hello_you v6_Sketch4
10
577.465286
20
-97.422789
11
575.267875
21
-98.745896
0
LINE
8
hello_you v6_Sketch4
10
575.267875
20
-98.745896
11
573.215101
21
-100.260523
0
LINE
8
hello_you v6_Sketch4
10
573.215101
20
-100.260523
11
571.318280
21
-101.953331
0
LINE
8
hello_you v6_Sketch4
10
571.318280
20
-101.953331
11
569.588727
21
-103.810983
0
LINE
8
hello_you v6_Sketch4
10
569.588727
20
-103.810983
11
568.037758
21
-105.820141
0
LINE
8
hello_you v6_Sketch4
10
568.037758
20
-105.820141
11
566.676687
21
-107.967468
0
LINE
8
hello_you v6_Sketch4
10
566.676687
20
-107.967468
11
565.516830
21
-110.239627
0
LINE
8
hello_you v6_Sketch4
10
565.516830
20
-110.239627
11
564.569502
21
-112.623279
0
LINE
8
hello_you v6_Sketch4
10
564.569502
20
-112.623279
11
563.846019
21
-115.105088
0
LINE
8
hello_you v6_Sketch4
10
563.846019
20
-115.105088
11
563.357696
21
-117.671716
0
LINE
8
hello_you v6_Sketch4
10
563.357696
20
-117.671716
11
563.115847
21
-120.309825
0
LINE
8
hello_you v6_Sketch4
10
563.115847
20
-120.309825
11
563.131789
21
-123.006077
0
LINE
8
hello_you v6_Sketch4
10
563.131789
20
-123.006077
11
563.409594
21
-125.688028
0
LINE
8
hello_you v6_Sketch4
10
563.409594
20
-125.688028
11
563.937323
21
-128.284104
0
LINE
8
hello_you v6_Sketch4
10
563.937323
20
-128.284104
11
564.702276
21
-130.782280
0
LINE
8
hello_you v6_Sketch4
10
564.702276
20
-130.782280
11
565.691752
21
-133.170530
0
LINE
8
hello_you v6_Sketch4
10
565.691752
20
-133.170530
11
566.893051
21
-135.436829
0
LINE
8
hello_you v6_Sketch4
10
566.893051
20
-135.436829
11
568.293472
21
-137.569151
0
LINE
8
hello_you v6_Sketch4
10
568.293472
20
-137.569151
11
569.880314
21
-139.555469
0
LINE
8
hello_you v6_Sketch4
10
569.880314
20
-139.555469
11
571.640877
21
-141.383758
0
LINE
8
hello_you v6_Sketch4
10
571.640877
20
-141.383758
11
573.562461
21
-143.041992
0
LINE
8
hello_you v6_Sketch4
10
573.562461
20
-143.041992
11
575.632364
21
-144.518146
0
LINE
8
hello_you v6_Sketch4
10
575.632364
20
-144.518146
11
577.837886
21
-145.800192
0
LINE
8
hello_you v6_Sketch4
10
577.837886
20
-145.800192
11
580.166327
21
-146.876107
0
LINE
8
hello_you v6_Sketch4
10
580.166327
20
-146.876107
11
582.604986
21
-147.733863
0
LINE
8
hello_you v6_Sketch4
10
582.604986
20
-147.733863
11
585.141162
21
-148.361435
0
LINE
8
hello_you v6_Sketch4
10
585.141162
20
-148.361435
11
587.762156
21
-148.746797
0
LINE
8
hello_you v6_Sketch4
10
587.762156
20
-148.746797
11
590.455265
21
-148.877924
0
LINE
8
hello_you v6_Sketch4
10
590.455265
20
-148.877924
11
593.148374
21
-148.746797
0
LINE
8
hello_you v6_Sketch4
10
593.148374
20
-148.746797
11
595.769368
21
-148.361435
0
LINE
8
hello_you v6_Sketch4
10
595.769368
20
-148.361435
11
598.305544
21
-147.733863
0
LINE
8
hello_you v6_Sketch4
10
598.305544
20
-147.733863
11
600.744203
21
-146.876107
0
LINE
8
hello_you v6_Sketch4
10
600.744203
20
-146.876107
11
603.072644
21
-145.800192
0
LINE
8
hello_you v6_Sketch4
10
603.072644
20
-145.800192
11
605.278166
21
-144.518146
0
LINE
8
hello_you v6_Sketch4
10
605.278166
20
-144.518146
11
607.348069
21
-143.041992
0
LINE
8
hello_you v6_Sketch4
10
607.348069
20
-143.041992
11
609.269653
21
-141.383758
0
LINE
8
hello_you v6_Sketch4
10
609.269653
20
-141.383758
11
611.030216
21
-139.555469
0
LINE
8
hello_you v6_Sketch4
10
611.030216
20
-139.555469
11
612.617058
21
-137.569151
0
LINE
8
hello_you v6_Sketch4
10
612.617058
20
-137.569151
11
614.017479
21
-135.436829
0
LINE
8
hello_you v6_Sketch4
10
614.017479
20
-135.436829
11
615.218778
21
-133.170530
0
LINE
8
hello_you v6_Sketch4
10
615.218778
20
-133.170530
11
616.208254
21
-130.782280
0
LINE
8
hello_you v6_Sketch4
10
616.208254
20
-130.782280
11
616.973207
21
-128.284104
0
LINE
8
hello_you v6_Sketch4
10
616.973207
20
-128.284104
11
617.500936
21
-125.688028
0
LINE
8
hello_you v6_Sketch4
10
617.500936
20
-125.688028
11
617.778741
21
-123.006077
0
LINE
8
hello_you v6_Sketch4
10
617.778741
20
-123.006077
11
617.794683
21
-120.309825
0
LINE
8
hello_you v6_Sketch4
10
617.794683
20
-120.309825
11
617.552834
21
-117.671716
0
LINE
8
hello_you v6_Sketch4
10
617.552834
20
-117.671716
11
617.064511
21
-115.105088
0
LINE
8
hello_you v6_Sketch4
10
617.064511
20
-115.105088
11
616.341028
21
-112.623279
0
LINE
8
hello_you v6_Sketch4
10
616.341028
20
-112.623279
11
615.393700
21
-110.239627
0
LINE
8
hello_you v6_Sketch4
10
615.393700
20
-110.239627
11
614.233843
21
-107.967468
0
LINE
8
hello_you v6_Sketch4
10
614.233843
20
-107.967468
11
612.872772
21
-105.820141
0
LINE
8
hello_you v6_Sketch4
10
612.872772
20
-105.820141
11
611.321803
21
-103.810983
0
LINE
8
hello_you v6_Sketch4
10
611.321803
20
-103.810983
11
609.592250
21
-101.953331
0
LINE
8
hello_you v6_Sketch4
10
609.592250
20
-101.953331
11
607.695429
21
-100.260523
0
LINE
8
hello_you v6_Sketch4
10
607.695429
20
-100.260523
11
605.642655
21
-98.745896
0
LINE
8
hello_you v6_Sketch4
10
605.642655
20
-98.745896
11
603.445244
21
-97.422789
0
LINE
8
hello_you v6_Sketch4
10
603.445244
20
-97.422789
11
601.114510
21
-96.304538
0
LINE
8
hello_you v6_Sketch4
10
601.114510
20
-96.304538
11
598.661770
21
-95.404481
0
LINE
8
hello_you v6_Sketch4
10
598.661770
20
-95.404481
11
596.098338
21
-94.735956
0
LINE
8
hello_you v6_Sketch4
10
596.098338
20
-94.735956
11
593.435530
21
-94.312300
0
LINE
8
hello_you v6_Sketch4
10
506.196000
20
257.900000
11
503.533192
21
257.476344
0
LINE
8
hello_you v6_Sketch4
10
503.533192
20
257.476344
11
500.969760
21
256.807819
0
LINE
8
hello_you v6_Sketch4
10
500.969760
20
256.807819
11
498.517020
21
255.907762
0
LINE
8
hello_you v6_Sketch4
10
498.517020
20
255.907762
11
496.186286
21
254.789511
0
LINE
8
hello_you v6_Sketch4
10
496.186286
20
254.789511
11
493.988875
21
253.466404
0
LINE
8
hello_you v6_Sketch4
10
493.988875
20
253.466404
11
491.936101
21
251.951777
0
LINE
8
hello_you v6_Sketch4
10
491.936101
20
251.951777
11
490.039280
21
250.258969
0
LINE
8
hello_you v6_Sketch4
10
490.039280
20
250.258969
11
488.309727
21
248.401317
0
LINE
8
hello_you v6_Sketch4
10
488.309727
20
248.401317
11
486.758758
21
246.392159
0
LINE
8
hello_you v6_Sketch4
10
486.758758
20
246.392159
11
485.397687
21
244.244832
0
LINE
8
hello_you v6_Sketch4
10
485.397687
20
244.244832
11
484.237830
21
241.972673
0
LINE
8
hello_you v6_Sketch4
10
484.237830
20
241.972673
11
483.290502
21
239.589021
0
LINE
8
hello_you v6_Sketch4
10
483.290502
20
239.589021
11
482.567019
21
237.107212
0
LINE
8
hello_you v6_Sketch4
10
482.567019
20
237.107212
11
482.078696
21
234.540584
0
LINE
8
hello_you v6_Sketch4
10
482.078696
20
234.540584
11
481.836847
21
231.902475
0
LINE
8
hello_you v6_Sketch4
10
481.836847
20
231.902475
11
481.852789
21
229.206223
0
LINE
8
hello_you v6_Sketch4
10
481.852789
20
229.206223
11
482.130594
21
226.524272
0
LINE
8
hello_you v6_Sketch4
10
482.130594
20
226.524272
11
482.658323
21
223.928196
0
LINE
8
hello_you v6_Sketch4
10
482.658323
20
223.928196
11
483.423276
21
221.430020
0
LINE
8
hello_you v6_Sketch4
10
483.423276
20
221.430020
11
484.412752
21
219.041770
0
LINE
8
hello_you v6_Sketch4
10
484.412752
20
219.041770
11
485.614051
21
216.775471
0
LINE
8
hello_you v6_Sketch4
10
485.614051
20
216.775471
11
487.014472
21
214.643149
0
LINE
8
hello_you v6_Sketch4
10
487.014472
20
214.643149
11
488.601314
21
212.656831
0
LINE
8
hello_you v6_Sketch4
10
488.601314
20
212.656831
11
490.361877
21
210.828542
0
LINE
8
hello_you v6_Sketch4
10
490.361877
20
210.828542
11
492.283461
21
209.170308
0
LINE
8
hello_you v6_Sketch4
10
492.283461
20
209.170308
11
494.353364
21
207.694154
0
LINE
8
hello_you v6_Sketch4
10
494.353364
20
207.694154
11
496.558886
21
206.412108
0
LINE
8
hello_you v6_Sketch4
10
496.558886
20
206.412108
11
498.887327
21
205.336193
0
LINE
8
hello_you v6_Sketch4
10
498.887327
20
205.336193
11
501.325986
21
204.478437
0
LINE
8
hello_you v6_Sketch4
10
501.325986
20
204.478437
11
503.862162
21
203.850865
0
LINE
8
hello_you v6_Sketch4
10
503.862162
20
203.850865
11
506.483156
21
203.465503
0
LINE
8
hello_you v6_Sketch4
10
506.483156
20
203.465503
11
509.176265
21
203.334376
0
LINE
8
hello_you v6_Sketch4
10
509.176265
20
203.334376
11
511.869374
21
203.465503
0
LINE
8
hello_you v6_Sketch4
10
511.869374
20
203.465503
11
514.490368
21
203.850865
0
LINE
8
hello_you v6_Sketch4
10
514.490368
20
203.850865
11
517.026544
21
204.478437
0
LINE
8
hello_you v6_Sketch4
10
517.026544
20
204.478437
11
519.465203
21
205.336193
0
LINE
8
hello_you v6_Sketch4
10
519.465203
20
205.336193
11
521.793644
21
206.412108
0
LINE
8
hello_you v6_Sketch4
10
521.793644
20
206.412108
11
523.999166
21
207.694154
0
LINE
8
hello_you v6_Sketch4
10
523.999166
20
207.694154
11
526.069069
21
209.170308
0
LINE
8
hello_you v6_Sketch4
10
526.069069
20
209.170308
11
527.990653
21
210.828542
0
LINE
8
hello_you v6_Sketch4
10
527.990653
20
210.828542
11
529.751216
21
212.656831
0
LINE
8
hello_you v6_Sketch4
10
529.751216
20
212.656831
11
531.338058
21
214.643149
0
LINE
8
hello_you v6_Sketch4
10
531.338058
20
214.643149
11
532.738479
21
216.775471
0
LINE
8
hello_you v6_Sketch4
10
532.738479
20
216.775471
11
533.939778
21
219.041770
0
LINE
8
hello_you v6_Sketch4
10
533.939778
20
219.041770
11
534.929254
21
221.430020
0
LINE
8
hello_you v6_Sketch4
10
534.929254
20
221.430020
11
535.694207
21
223.928196
0
LINE
8
hello_you v6_Sketch4
10
535.694207
20
223.928196
11
536.221936
21
226.524272
0
LINE
8
hello_you v6_Sketch4
10
536.221936
20
226.524272
11
536.499741
21
229.206223
0
LINE
8
hello_you v6_Sketch4
10
536.499741
20
229.206223
11
536.515683
21
231.902475
0
LINE
8
hello_you v6_Sketch4
10
536.515683
20
231.902475
11
536.273834
21
234.540584
0
LINE
8
hello_you v6_Sketch4
10
536.273834
20
234.540584
11
535.785511
21
237.107212
0
LINE
8
hello_you v6_Sketch4
10
535.785511
20
237.107212
11
535.062028
21
239.589021
0
LINE
8
hello_you v6_Sketch4
10
535.062028
20
239.589021
11
534.114700
21
241.972673
0
LINE
8
hello_you v6_Sketch4
10
534.114700
20
241.972673
11
532.954843
21
244.244832
0
LINE
8
hello_you v6_Sketch4
10
532.954843
20
244.244832
11
531.593772
21
246.392159
0
LINE
8
hello_you v6_Sketch4
10
531.593772
20
246.392159
11
530.042803
21
248.401317
0
LINE
8
hello_you v6_Sketch4
10
530.042803
20
248.401317
11
528.313250
21
250.258969
0
LINE
8
hello_you v6_Sketch4
10
528.313250
20
250.258969
11
526.416429
21
251.951777
0
LINE
8
hello_you v6_Sketch4
10
526.416429
20
251.951777
11
524.363655
21
253.466404
0
LINE
8
hello_you v6_Sketch4
10
524.363655
20
253.466404
11
522.166244
21
254.789511
0
LINE
8
hello_you v6_Sketch4
10
522.166244
20
254.789511
11
519.835510
21
255.907762
0
LINE
8
hello_you v6_Sketch4
10
519.835510
20
255.907762
11
517.382770
21
256.807819
0
LINE
8
hello_you v6_Sketch4
10
517.382770
20
256.807819
11
514.819338
21
257.476344
0
LINE
8
hello_you v6_Sketch4
10
514.819338
20
257.476344
11
512.156530
21
257.900000
0
LINE
8
hello_you v6_Sketch4
10
541.419000
20
104.824000
11
538.756192
21
104.400344
0
LINE
8
hello_you v6_Sketch4
10
538.756192
20
104.400344
11
536.192760
21
103.731819
0
LINE
8
hello_you v6_Sketch4
10
536.192760
20
103.731819
11
533.740020
21
102.831762
0
LINE
8
hello_you v6_Sketch4
10
533.740020
20
102.831762
11
531.409286
21
101.713511
0
LINE
8
hello_you v6_Sketch4
10
531.409286
20
101.713511
11
529.211875
21
100.390404
0
LINE
8
hello_you v6_Sketch4
10
529.211875
20
100.390404
11
527.159101
21
98.875777
0
LINE
8
hello_you v6_Sketch4
10
527.159101
20
98.875777
11
525.262280
21
97.182969
0
LINE
8
hello_you v6_Sketch4
10
525.262280
20
97.182969
11
523.532727
21
95.325317
0
LINE
8
hello_you v6_Sketch4
10
523.532727
20
95.325317
11
521.981758
21
93.316159
0
LINE
8
hello_you v6_Sketch4
10
521.981758
20
93.316159
11
520.620687
21
91.168832
0
LINE
8
hello_you v6_Sketch4
10
520.620687
20
91.168832
11
519.460830
21
88.896673
0
LINE
8
hello_you v6_Sketch4
10
519.460830
20
88.896673
11
518.513502
21
86.513021
0
LINE
8
hello_you v6_Sketch4
10
518.513502
20
86.513021
11
517.790019
21
84.031212
0
LINE
8
hello_you v6_Sketch4
10
517.790019
20
84.031212
11
517.301696
21
81.464584
0
LINE
8
hello_you v6_Sketch4
10
517.301696
20
81.464584
11
517.059847
21
78.826475
0
LINE
8
hello_you v6_Sketch4
10
517.059847
20
78.826475
11
517.075789
21
76.130223
0
LINE
8
hello_you v6_Sketch4
10
517.075789
20
76.130223
11
517.353594
21
73.448272
0
LINE
8
hello_you v6_Sketch4
10
517.353594
20
73.448272
11
517.881323
21
70.852196
0
LINE
8
hello_you v6_Sketch4
10
517.881323
20
70.852196
11
518.646276
21
68.354020
0
LINE
8
hello_you v6_Sketch4
10
518.646276
20
68.354020
11
519.635752
21
65.965770
0
LINE
8
hello_you v6_Sketch4
10
519.635752
20
65.965770
11
520.837051
21
63.699471
0
LINE
8
hello_you v6_Sketch4
10
520.837051
20
63.699471
11
522.237472
21
61.567149
0
LINE
8
hello_you v6_Sketch4
10
522.237472
20
61.567149
11
523.824314
21
59.580831
0
LINE
8
hello_you v6_Sketch4
10
523.824314
20
59.580831
11
525.584877
21
57.752542
0
LINE
8
hello_you v6_Sketch4
10
525.584877
20
57.752542
11
527.506461
21
56.094308
0
LINE
8
hello_you v6_Sketch4
10
527.506461
20
56.094308
11
529.576364
21
54.618154
0
LINE
8
hello_you v6_Sketch4
10
529.576364
20
54.618154
11
531.781886
21
53.336108
0
LINE
8
hello_you v6_Sketch4
10
531.781886
20
53.336108
11
534.110327
21
52.260193
0
LINE
8
hello_you v6_Sketch4
10
534.110327
20
52.260193
11
536.548986
21
51.402437
0
LINE
8
hello_you v6_Sketch4
10
536.548986
20
51.402437
11
539.085162
21
50.774865
0
LINE
8
hello_you v6_Sketch4
10
539.085162
20
50.774865
11
541.706156
21
50.389503
0
LINE
8
hello_you v6_Sketch4
10
541.706156
20
50.389503
11
544.399265
21
50.258376
0
LINE
8
hello_you v6_Sketch4
10
544.399265
20
50.258376
11
547.092374
21
50.389503
0
LINE
8
hello_you v6_Sketch4
10
547.092374
20
50.389503
11
549.713368
21
50.774865
0
LINE
8
hello_you v6_Sketch4
10
549.713368
20
50.774865
11
552.249544
21
51.402437
0
LINE
8
hello_you v6_Sketch4
10
552.249544
20
51.402437
11
554.688203
21
52.260193
0
LINE
8
hello_you v6_Sketch4
10
554.688203
20
52.260193
11
557.016644
21
53.336108
0
LINE
8
hello_you v6_Sketch4
10
557.016644
20
53.336108
11
559.222166
21
54.618154
0
LINE
8
hello_you v6_Sketch4
10
559.222166
20
54.618154
11
561.292069
21
56.094308
0
LINE
8
hello_you v6_Sketch4
10
561.292069
20
56.094308
11
563.213653
21
57.752542
0
LINE
8
hello_you v6_Sketch4
10
563.213653
20
57.752542
11
564.974216
21
59.580831
0
LINE
8
hello_you v6_Sketch4
10
564.974216
20
59.580831
11
566.561058
21
61.567149
0
LINE
8
hello_you v6_Sketch4
10
566.561058
20
61.567149
11
567.961479
21
63.699471
0
LINE
8
hello_you v6_Sketch4
10
567.961479
20
63.699471
11
569.162778
21
65.965770
0
LINE
8
hello_you v6_Sketch4
10
569.162778
20
65.965770
11
570.152254
21
68.354020
0
LINE
8
hello_you v6_Sketch4
10
570.152254
20
68.354020
11
570.917207
21
70.852196
0
LINE
8
hello_you v6_Sketch4
10
570.917207
20
70.852196
11
571.444936
21
73.448272
0
LINE
8
hello_you v6_Sketch4
10
571.444936
20
73.448272
11
571.722741
21
76.130223
0
LINE
8
hello_you v6_Sketch4
10
571.722741
20
76.130223
11
571.738683
21
78.826475
0
LINE
8
hello_you v6_Sketch4
10
571.738683
20
78.826475
11
571.496834
21
81.464584
0
LINE
8
hello_you v6_Sketch4
10
571.496834
20
81.464584
11
571.008511
21
84.031212
0
LINE
8
hello_you v6_Sketch4
10
571.008511
20
84.031212
11
570.285028
21
86.513021
0
LINE
8
hello_you v6_Sketch4
10
570.285028
20
86.513021
11
569.337700
21
88.896673
0
LINE
8
hello_you v6_Sketch4
10
569.337700
20
88.896673
11
568.177843
21
91.168832
0
LINE
8
hello_you v6_Sketch4
10
568.177843
20
91.168832
11
566.816772
21
93.316159
0
LINE
8
hello_you v6_Sketch4
10
566.816772
20
93.316159
11
565.265803
21
95.325317
0
LINE
8
hello_you v6_Sketch4
10
565.265803
20
95.325317
11
563.536250
21
97.182969
0
LINE
8
hello_you v6_Sketch4
10
563.536250
20
97.182969
11
561.639429
21
98.875777
0
LINE
8
hello_you v6_Sketch4
10
561.639429
20
98.875777
11
559.586655
21
100.390404
0
LINE
8
hello_you v6_Sketch4
10
559.586655
20
100.390404
11
557.389244
21
101.713511
0
LINE
8
hello_you v6_Sketch4
10
557.389244
20
101.713511
11
555.058510
21
102.831762
0
LINE
8
hello_you v6_Sketch4
10
555.058510
20
102.831762
11
552.605770
21
103.731819
0
LINE
8
hello_you v6_Sketch4
10
552.605770
20
103.731819
11
550.042338
21
104.400344
0
LINE
8
hello_you v6_Sketch4
10
550.042338
20
104.400344
11
547.379530
21
104.824000
0
LINE
8
hello_you v6_Sketch4
10
517.031000
20
-129.641000
11
522.991000
21
-129.641000
0
LINE
8
hello_you v6_Sketch4
10
541.418000
20
104.824000
11
541.418000
21
107.425000
0
LINE
8
hello_you v6_Sketch4
10
541.418000
20
107.425000
11
547.378000
21
107.425000
0
LINE
8
hello_you v6_Sketch4
10
547.378000
20
107.425000
11
547.378000
21
104.824000
0
LINE
8
hello_you v6_Sketch4
10
554.963000
20
22.189200
11
552.300192
21
21.765544
0
LINE
8
hello_you v6_Sketch4
10
552.300192
20
21.765544
11
549.736760
21
21.097019
0
LINE
8
hello_you v6_Sketch4
10
549.736760
20
21.097019
11
547.284020
21
20.196962
0
LINE
8
hello_you v6_Sketch4
10
547.284020
20
20.196962
11
544.953286
21
19.078711
0
LINE
8
hello_you v6_Sketch4
10
544.953286
20
19.078711
11
542.755875
21
17.755604
0
LINE
8
hello_you v6_Sketch4
10
542.755875
20
17.755604
11
540.703101
21
16.240977
0
LINE
8
hello_you v6_Sketch4
10
540.703101
20
16.240977
11
538.806280
21
14.548169
0
LINE
8
hello_you v6_Sketch4
10
538.806280
20
14.548169
11
537.076727
21
12.690517
0
LINE
8
hello_you v6_Sketch4
10
537.076727
20
12.690517
11
535.525758
21
10.681359
0
LINE
8
hello_you v6_Sketch4
10
535.525758
20
10.681359
11
534.164687
21
8.534032
0
LINE
8
hello_you v6_Sketch4
10
534.164687
20
8.534032
11
533.004830
21
6.261873
0
LINE
8
hello_you v6_Sketch4
10
533.004830
20
6.261873
11
532.057502
21
3.878221
0
LINE
8
hello_you v6_Sketch4
10
532.057502
20
3.878221
11
531.334019
21
1.396412
0
LINE
8
hello_you v6_Sketch4
10
531.334019
20
1.396412
11
530.845696
21
-1.170216
0
LINE
8
hello_you v6_Sketch4
10
530.845696
20
-1.170216
11
530.603847
21
-3.808325
0
LINE
8
hello_you v6_Sketch4
10
530.603847
20
-3.808325
11
530.619789
21
-6.504577
0
LINE
8
hello_you v6_Sketch4
10
530.619789
20
-6.504577
11
530.897594
21
-9.186528
0
LINE
8
hello_you v6_Sketch4
10
530.897594
20
-9.186528
11
531.425323
21
-11.782604
0
LINE
8
hello_you v6_Sketch4
10
531.425323
20
-11.782604
11
532.190276
21
-14.280780
0
LINE
8
hello_you v6_Sketch4
10
532.190276
20
-14.280780
11
533.179752
21
-16.669030
0
LINE
8
hello_you v6_Sketch4
10
533.179752
20
-16.669030
11
534.381051
21
-18.935329
0
LINE
8
hello_you v6_Sketch4
10
534.381051
20
-18.935329
11
535.781472
21
-21.067651
0
LINE
8
hello_you v6_Sketch4
10
535.781472
20
-21.067651
11
537.368314
21
-23.053969
0
LINE
8
hello_you v6_Sketch4
10
537.368314
20
-23.053969
11
539.128877
21
-24.882258
0
LINE
8
hello_you v6_Sketch4
10
539.128877
20
-24.882258
11
541.050461
21
-26.540492
0
LINE
8
hello_you v6_Sketch4
10
541.050461
20
-26.540492
11
543.120364
21
-28.016646
0
LINE
8
hello_you v6_Sketch4
10
543.120364
20
-28.016646
11
545.325886
21
-29.298692
0
LINE
8
hello_you v6_Sketch4
10
545.325886
20
-29.298692
11
547.654327
21
-30.374607
0
LINE
8
hello_you v6_Sketch4
10
547.654327
20
-30.374607
11
550.092986
21
-31.232363
0
LINE
8
hello_you v6_Sketch4
10
550.092986
20
-31.232363
11
552.629162
21
-31.859935
0
LINE
8
hello_you v6_Sketch4
10
552.629162
20
-31.859935
11
555.250156
21
-32.245297
0
LINE
8
hello_you v6_Sketch4
10
555.250156
20
-32.245297
11
557.943265
21
-32.376424
0
LINE
8
hello_you v6_Sketch4
10
557.943265
20
-32.376424
11
560.636374
21
-32.245297
0
LINE
8
hello_you v6_Sketch4
10
560.636374
20
-32.245297
11
563.257368
21
-31.859935
0
LINE
8
hello_you v6_Sketch4
10
563.257368
20
-31.859935
11
565.793544
21
-31.232363
0
LINE
8
hello_you v6_Sketch4
10
565.793544
20
-31.232363
11
568.232203
21
-30.374607
0
LINE
8
hello_you v6_Sketch4
10
568.232203
20
-30.374607
11
570.560644
21
-29.298692
0
LINE
8
hello_you v6_Sketch4
10
570.560644
20
-29.298692
11
572.766166
21
-28.016646
0
LINE
8
hello_you v6_Sketch4
10
572.766166
20
-28.016646
11
574.836069
21
-26.540492
0
LINE
8
hello_you v6_Sketch4
10
574.836069
20
-26.540492
11
576.757653
21
-24.882258
0
LINE
8
hello_you v6_Sketch4
10
576.757653
20
-24.882258
11
578.518216
21
-23.053969
0
LINE
8
hello_you v6_Sketch4
10
578.518216
20
-23.053969
11
580.105058
21
-21.067651
0
LINE
8
hello_you v6_Sketch4
10
580.105058
20
-21.067651
11
581.505479
21
-18.935329
0
LINE
8
hello_you v6_Sketch4
10
581.505479
20
-18.935329
11
582.706778
21
-16.669030
0
LINE
8
hello_you v6_Sketch4
10
582.706778
20
-16.669030
11
583.696254
21
-14.280780
0
LINE
8
hello_you v6_Sketch4
10
583.696254
20
-14.280780
11
584.461207
21
-11.782604
0
LINE
8
hello_you v6_Sketch4
10
584.461207
20
-11.782604
11
584.988936
21
-9.186528
0
LINE
8
hello_you v6_Sketch4
10
584.988936
20
-9.186528
11
585.266741
21
-6.504577
0
LINE
8
hello_you v6_Sketch4
10
585.266741
20
-6.504577
11
585.282683
21
-3.808325
0
LINE
8
hello_you v6_Sketch4
10
585.282683
20
-3.808325
11
585.040834
21
-1.170216
0
LINE
8
hello_you v6_Sketch4
10
585.040834
20
-1.170216
11
584.552511
21
1.396412
0
LINE
8
hello_you v6_Sketch4
10
584.552511
20
1.396412
11
583.829028
21
3.878221
0
LINE
8
hello_you v6_Sketch4
10
583.829028
20
3.878221
11
582.881700
21
6.261873
0
LINE
8
hello_you v6_Sketch4
10
582.881700
20
6.261873
11
581.721843
21
8.534032
0
LINE
8
hello_you v6_Sketch4
10
581.721843
20
8.534032
11
580.360772
21
10.681359
0
LINE
8
hello_you v6_Sketch4
10
580.360772
20
10.681359
11
578.809803
21
12.690517
0
LINE
8
hello_you v6_Sketch4
10
578.809803
20
12.690517
11
577.080250
21
14.548169
0
LINE
8
hello_you v6_Sketch4
10
577.080250
20
14.548169
11
575.183429
21
16.240977
0
LINE
8
hello_you v6_Sketch4
10
575.183429
20
16.240977
11
573.130655
21
17.755604
0
LINE
8
hello_you v6_Sketch4
10
573.130655
20
17.755604
11
570.933244
21
19.078711
0
LINE
8
hello_you v6_Sketch4
10
570.933244
20
19.078711
11
568.602510
21
20.196962
0
LINE
8
hello_you v6_Sketch4
10
568.602510
20
20.196962
11
566.149770
21
21.097019
0
LINE
8
hello_you v6_Sketch4
10
566.149770
20
21.097019
11
563.586338
21
21.765544
0
LINE
8
hello_you v6_Sketch4
10
563.586338
20
21.765544
11
560.923530
21
22.189200
0
LINE
8
hello_you v6_Sketch4
10
435.484000
20
257.902000
11
432.821192
21
257.478344
0
LINE
8
hello_you v6_Sketch4
10
432.821192
20
257.478344
11
430.257760
21
256.809819
0
LINE
8
hello_you v6_Sketch4
10
430.257760
20
256.809819
11
427.805020
21
255.909762
0
LINE
8
hello_you v6_Sketch4
10
427.805020
20
255.909762
11
425.474286
21
254.791511
0
LINE
8
hello_you v6_Sketch4
10
425.474286
20
254.791511
11
423.276875
21
253.468404
0
LINE
8
hello_you v6_Sketch4
10
423.276875
20
253.468404
11
421.224101
21
251.953777
0
LINE
8
hello_you v6_Sketch4
10
421.224101
20
251.953777
11
419.327280
21
250.260969
0
LINE
8
hello_you v6_Sketch4
10
419.327280
20
250.260969
11
417.597727
21
248.403317
0
LINE
8
hello_you v6_Sketch4
10
417.597727
20
248.403317
11
416.046758
21
246.394159
0
LINE
8
hello_you v6_Sketch4
10
416.046758
20
246.394159
11
414.685687
21
244.246832
0
LINE
8
hello_you v6_Sketch4
10
414.685687
20
244.246832
11
413.525830
21
241.974673
0
LINE
8
hello_you v6_Sketch4
10
413.525830
20
241.974673
11
412.578502
21
239.591021
0
LINE
8
hello_you v6_Sketch4
10
412.578502
20
239.591021
11
411.855019
21
237.109212
0
LINE
8
hello_you v6_Sketch4
10
411.855019
20
237.109212
11
411.366696
21
234.542584
0
LINE
8
hello_you v6_Sketch4
10
411.366696
20
234.542584
11
411.124847
21
231.904475
0
LINE
8
hello_you v6_Sketch4
10
411.124847
20
231.904475
11
411.140789
21
229.208223
0
LINE
8
hello_you v6_Sketch4
10
411.140789
20
229.208223
11
411.418594
21
226.526272
0
LINE
8
hello_you v6_Sketch4
10
411.418594
20
226.526272
11
411.946323
21
223.930196
0
LINE
8
hello_you v6_Sketch4
10
411.946323
20
223.930196
11
412.711276
21
221.432020
0
LINE
8
hello_you v6_Sketch4
10
412.711276
20
221.432020
11
413.700752
21
219.043770
0
LINE
8
hello_you v6_Sketch4
10
413.700752
20
219.043770
11
414.902051
21
216.777471
0
LINE
8
hello_you v6_Sketch4
10
414.902051
20
216.777471
11
416.302472
21
214.645149
0
LINE
8
hello_you v6_Sketch4
10
416.302472
20
214.645149
11
417.889314
21
212.658831
0
LINE
8
hello_you v6_Sketch4
10
417.889314
20
212.658831
11
419.649877
21
210.830542
0
LINE
8
hello_you v6_Sketch4
10
419.649877
20
210.830542
11
421.571461
21
209.172308
0
LINE
8
hello_you v6_Sketch4
10
421.571461
20
209.172308
11
423.641364
21
207.696154
0
LINE
8
hello_you v6_Sketch4
10
423.641364
20
207.696154
11
425.846886
21
206.414108
0
LINE
8
hello_you v6_Sketch4
10
425.846886
20
206.414108
11
428.175327
21
205.338193
0
LINE
8
hello_you v6_Sketch4
10
428.175327
20
205.338193
11
430.613986
21
204.480437
0
LINE
8
hello_you v6_Sketch4
10
430.613986
20
204.480437
11
433.150162
21
203.852865
0
LINE
8
hello_you v6_Sketch4
10
433.150162
20
203.852865
11
435.771156
21
203.467503
0
LINE
8
hello_you v6_Sketch4
10
435.771156
20
203.467503
11
438.464265
21
203.336376
0
LINE
8
hello_you v6_Sketch4
10
438.464265
20
203.336376
11
441.157374
21
203.467503
0
LINE
8
hello_you v6_Sketch4
10
441.157374
20
203.467503
11
443.778368
21
203.852865
0
LINE
8
hello_you v6_Sketch4
10
443.778368
20
203.852865
11
446.314544
21
204.480437
0
LINE
8
hello_you v6_Sketch4
10
446.314544
20
204.480437
11
448.753203
21
205.338193
0
LINE
8
hello_you v6_Sketch4
10
448.753203
20
205.338193
11
451.081644
21
206.414108
0
LINE
8
hello_you v6_Sketch4
10
451.081644
20
206.414108
11
453.287166
21
207.696154
0
LINE
8
hello_you v6_Sketch4
10
453.287166
20
207.696154
11
455.357069
21
209.172308
0
LINE
8
hello_you v6_Sketch4
10
455.357069
20
209.172308
11
457.278653
21
210.830542
0
LINE
8
hello_you v6_Sketch4
10
457.278653
20
210.830542
11
459.039216
21
212.658831
0
LINE
8
hello_you v6_Sketch4
10
459.039216
20
212.658831
11
460.626058
21
214.645149
0
LINE
8
hello_you v6_Sketch4
10
460.626058
20
214.645149
11
462.026479
21
216.777471
0
LINE
8
hello_you v6_Sketch4
10
462.026479
20
216.777471
11
463.227778
21
219.043770
0
LINE
8
hello_you v6_Sketch4
10
463.227778
20
219.043770
11
464.217254
21
221.432020
0
LINE
8
hello_you v6_Sketch4
10
464.217254
20
221.432020
11
464.982207
21
223.930196
0
LINE
8
hello_you v6_Sketch4
10
464.982207
20
223.930196
11
465.509936
21
226.526272
0
LINE
8
hello_you v6_Sketch4
10
465.509936
20
226.526272
11
465.787741
21
229.208223
0
LINE
8
hello_you v6_Sketch4
10
465.787741
20
229.208223
11
465.803683
21
231.904475
0
LINE
8
hello_you v6_Sketch4
10
465.803683
20
231.904475
11
465.561834
21
234.542584
0
LINE
8
hello_you v6_Sketch4
10
465.561834
20
234.542584
11
465.073511
21
237.109212
0
LINE
8
hello_you v6_Sketch4
10
465.073511
20
237.109212
11
464.350028
21
239.591021
0
LINE
8
hello_you v6_Sketch4
10
464.350028
20
239.591021
11
463.402700
21
241.974673
0
LINE
8
hello_you v6_Sketch4
10
463.402700
20
241.974673
11
462.242843
21
244.246832
0
LINE
8
hello_you v6_Sketch4
10
462.242843
20
244.246832
11
460.881772
21
246.394159
0
LINE
8
hello_you v6_Sketch4
10
460.881772
20
246.394159
11
459.330803
21
248.403317
0
LINE
8
hello_you v6_Sketch4
10
459.330803
20
248.403317
11
457.601250
21
250.260969
0
LINE
8
hello_you v6_Sketch4
10
457.601250
20
250.260969
11
455.704429
21
251.953777
0
LINE
8
hello_you v6_Sketch4
10
455.704429
20
251.953777
11
453.651655
21
253.468404
0
LINE
8
hello_you v6_Sketch4
10
453.651655
20
253.468404
11
451.454244
21
254.791511
0
LINE
8
hello_you v6_Sketch4
10
451.454244
20
254.791511
11
449.123510
21
255.909762
0
LINE
8
hello_you v6_Sketch4
10
449.123510
20
255.909762
11
446.670770
21
256.809819
0
LINE
8
hello_you v6_Sketch4
10
446.670770
20
256.809819
11
444.107338
21
257.478344
0
LINE
8
hello_you v6_Sketch4
10
444.107338
20
257.478344
11
441.444530
21
257.902000
0
LINE
8
hello_you v6_Sketch4
10
554.964000
20
22.189100
11
554.964000
21
24.790400
0
LINE
8
hello_you v6_Sketch4
10
554.964000
20
24.790400
11
560.925000
21
24.790400
0
LINE
8
hello_you v6_Sketch4
10
435.483000
20
260.503000
11
441.443000
21
260.503000
0
LINE
8
hello_you v6_Sketch4
10
593.434000
20
-91.710600
11
593.434000
21
-94.312700
0
LINE
8
hello_you v6_Sketch4
10
560.925000
20
24.790400
11
560.925000
21
22.189100
0
LINE
8
hello_you v6_Sketch4
10
443.880000
20
19.479600
11
441.217192
21
19.055944
0
LINE
8
hello_you v6_Sketch4
10
441.217192
20
19.055944
11
438.653760
21
18.387419
0
LINE
8
hello_you v6_Sketch4
10
438.653760
20
18.387419
11
436.201020
21
17.487362
0
LINE
8
hello_you v6_Sketch4
10
436.201020
20
17.487362
11
433.870286
21
16.369111
0
LINE
8
hello_you v6_Sketch4
10
433.870286
20
16.369111
11
431.672875
21
15.046004
0
LINE
8
hello_you v6_Sketch4
10
431.672875
20
15.046004
11
429.620101
21
13.531377
0
LINE
8
hello_you v6_Sketch4
10
429.620101
20
13.531377
11
427.723280
21
11.838569
0
LINE
8
hello_you v6_Sketch4
10
427.723280
20
11.838569
11
425.993727
21
9.980917
0
LINE
8
hello_you v6_Sketch4
10
425.993727
20
9.980917
11
424.442758
21
7.971759
0
LINE
8
hello_you v6_Sketch4
10
424.442758
20
7.971759
11
423.081687
21
5.824432
0
LINE
8
hello_you v6_Sketch4
10
423.081687
20
5.824432
11
421.921830
21
3.552273
0
LINE
8
hello_you v6_Sketch4
10
421.921830
20
3.552273
11
420.974502
21
1.168621
0
LINE
8
hello_you v6_Sketch4
10
420.974502
20
1.168621
11
420.251019
21
-1.313188
0
LINE
8
hello_you v6_Sketch4
10
420.251019
20
-1.313188
11
419.762696
21
-3.879816
0
LINE
8
hello_you v6_Sketch4
10
419.762696
20
-3.879816
11
419.520847
21
-6.517925
0
LINE
8
hello_you v6_Sketch4
10
419.520847
20
-6.517925
11
419.536789
21
-9.214177
0
LINE
8
hello_you v6_Sketch4
10
419.536789
20
-9.214177
11
419.814594
21
-11.896128
0
LINE
8
hello_you v6_Sketch4
10
419.814594
20
-11.896128
11
420.342323
21
-14.492204
0
LINE
8
hello_you v6_Sketch4
10
420.342323
20
-14.492204
11
421.107276
21
-16.990380
0
LINE
8
hello_you v6_Sketch4
10
421.107276
20
-16.990380
11
422.096752
21
-19.378630
0
LINE
8
hello_you v6_Sketch4
10
422.096752
20
-19.378630
11
423.298051
21
-21.644929
0
LINE
8
hello_you v6_Sketch4
10
423.298051
20
-21.644929
11
424.698472
21
-23.777251
0
LINE
8
hello_you v6_Sketch4
10
424.698472
20
-23.777251
11
426.285314
21
-25.763569
0
LINE
8
hello_you v6_Sketch4
10
426.285314
20
-25.763569
11
428.045877
21
-27.591858
0
LINE
8
hello_you v6_Sketch4
10
428.045877
20
-27.591858
11
429.967461
21
-29.250092
0
LINE
8
hello_you v6_Sketch4
10
429.967461
20
-29.250092
11
432.037364
21
-30.726246
0
LINE
8
hello_you v6_Sketch4
10
432.037364
20
-30.726246
11
434.242886
21
-32.008292
0
LINE
8
hello_you v6_Sketch4
10
434.242886
20
-32.008292
11
436.571327
21
-33.084207
0
LINE
8
hello_you v6_Sketch4
10
436.571327
20
-33.084207
11
439.009986
21
-33.941963
0
LINE
8
hello_you v6_Sketch4
10
439.009986
20
-33.941963
11
441.546162
21
-34.569535
0
LINE
8
hello_you v6_Sketch4
10
441.546162
20
-34.569535
11
444.167156
21
-34.954897
0
LINE
8
hello_you v6_Sketch4
10
444.167156
20
-34.954897
11
446.860265
21
-35.086024
0
LINE
8
hello_you v6_Sketch4
10
446.860265
20
-35.086024
11
449.553374
21
-34.954897
0
LINE
8
hello_you v6_Sketch4
10
449.553374
20
-34.954897
11
452.174368
21
-34.569535
0
LINE
8
hello_you v6_Sketch4
10
452.174368
20
-34.569535
11
454.710544
21
-33.941963
0
LINE
8
hello_you v6_Sketch4
10
454.710544
20
-33.941963
11
457.149203
21
-33.084207
0
LINE
8
hello_you v6_Sketch4
10
457.149203
20
-33.084207
11
459.477644
21
-32.008292
0
LINE
8
hello_you v6_Sketch4
10
459.477644
20
-32.008292
11
461.683166
21
-30.726246
0
LINE
8
hello_you v6_Sketch4
10
461.683166
20
-30.726246
11
463.753069
21
-29.250092
0
LINE
8
hello_you v6_Sketch4
10
463.753069
20
-29.250092
11
465.674653
21
-27.591858
0
LINE
8
hello_you v6_Sketch4
10
465.674653
20
-27.591858
11
467.435216
21
-25.763569
0
LINE
8
hello_you v6_Sketch4
10
467.435216
20
-25.763569
11
469.022058
21
-23.777251
0
LINE
8
hello_you v6_Sketch4
10
469.022058
20
-23.777251
11
470.422479
21
-21.644929
0
LINE
8
hello_you v6_Sketch4
10
470.422479
20
-21.644929
11
471.623778
21
-19.378630
0
LINE
8
hello_you v6_Sketch4
10
471.623778
20
-19.378630
11
472.613254
21
-16.990380
0
LINE
8
hello_you v6_Sketch4
10
472.613254
20
-16.990380
11
473.378207
21
-14.492204
0
LINE
8
hello_you v6_Sketch4
10
473.378207
20
-14.492204
11
473.905936
21
-11.896128
0
LINE
8
hello_you v6_Sketch4
10
473.905936
20
-11.896128
11
474.183741
21
-9.214177
0
LINE
8
hello_you v6_Sketch4
10
474.183741
20
-9.214177
11
474.199683
21
-6.517925
0
LINE
8
hello_you v6_Sketch4
10
474.199683
20
-6.517925
11
473.957834
21
-3.879816
0
LINE
8
hello_you v6_Sketch4
10
473.957834
20
-3.879816
11
473.469511
21
-1.313188
0
LINE
8
hello_you v6_Sketch4
10
473.469511
20
-1.313188
11
472.746028
21
1.168621
0
LINE
8
hello_you v6_Sketch4
10
472.746028
20
1.168621
11
471.798700
21
3.552273
0
LINE
8
hello_you v6_Sketch4
10
471.798700
20
3.552273
11
470.638843
21
5.824432
0
LINE
8
hello_you v6_Sketch4
10
470.638843
20
5.824432
11
469.277772
21
7.971759
0
LINE
8
hello_you v6_Sketch4
10
469.277772
20
7.971759
11
467.726803
21
9.980917
0
LINE
8
hello_you v6_Sketch4
10
467.726803
20
9.980917
11
465.997250
21
11.838569
0
LINE
8
hello_you v6_Sketch4
10
465.997250
20
11.838569
11
464.100429
21
13.531377
0
LINE
8
hello_you v6_Sketch4
10
464.100429
20
13.531377
11
462.047655
21
15.046004
0
LINE
8
hello_you v6_Sketch4
10
462.047655
20
15.046004
11
459.850244
21
16.369111
0
LINE
8
hello_you v6_Sketch4
10
459.850244
20
16.369111
11
457.519510
21
17.487362
0
LINE
8
hello_you v6_Sketch4
10
457.519510
20
17.487362
11
455.066770
21
18.387419
0
LINE
8
hello_you v6_Sketch4
10
455.066770
20
18.387419
11
452.503338
21
19.055944
0
LINE
8
hello_you v6_Sketch4
10
452.503338
20
19.055944
11
449.840530
21
19.479600
0
LINE
8
hello_you v6_Sketch4
10
443.879000
20
19.479500
11
443.879000
21
22.080700
0
LINE
8
hello_you v6_Sketch4
10
587.473000
20
-94.312700
11
587.473000
21
-91.710600
0
LINE
8
hello_you v6_Sketch4
10
445.234000
20
-174.238000
11
442.571192
21
-174.661656
0
LINE
8
hello_you v6_Sketch4
10
442.571192
20
-174.661656
11
440.007760
21
-175.330181
0
LINE
8
hello_you v6_Sketch4
10
440.007760
20
-175.330181
11
437.555020
21
-176.230238
0
LINE
8
hello_you v6_Sketch4
10
437.555020
20
-176.230238
11
435.224286
21
-177.348489
0
LINE
8
hello_you v6_Sketch4
10
435.224286
20
-177.348489
11
433.026875
21
-178.671596
0
LINE
8
hello_you v6_Sketch4
10
433.026875
20
-178.671596
11
430.974101
21
-180.186223
0
LINE
8
hello_you v6_Sketch4
10
430.974101
20
-180.186223
11
429.077280
21
-181.879031
0
LINE
8
hello_you v6_Sketch4
10
429.077280
20
-181.879031
11
427.347727
21
-183.736683
0
LINE
8
hello_you v6_Sketch4
10
427.347727
20
-183.736683
11
425.796758
21
-185.745841
0
LINE
8
hello_you v6_Sketch4
10
425.796758
20
-185.745841
11
424.435687
21
-187.893168
0
LINE
8
hello_you v6_Sketch4
10
424.435687
20
-187.893168
11
423.275830
21
-190.165327
0
LINE
8
hello_you v6_Sketch4
10
423.275830
20
-190.165327
11
422.328502
21
-192.548979
0
LINE
8
hello_you v6_Sketch4
10
422.328502
20
-192.548979
11
421.605019
21
-195.030788
0
LINE
8
hello_you v6_Sketch4
10
421.605019
20
-195.030788
11
421.116696
21
-197.597416
0
LINE
8
hello_you v6_Sketch4
10
421.116696
20
-197.597416
11
420.874847
21
-200.235525
0
LINE
8
hello_you v6_Sketch4
10
420.874847
20
-200.235525
11
420.890789
21
-202.931777
0
LINE
8
hello_you v6_Sketch4
10
420.890789
20
-202.931777
11
421.168594
21
-205.613728
0
LINE
8
hello_you v6_Sketch4
10
421.168594
20
-205.613728
11
421.696323
21
-208.209804
0
LINE
8
hello_you v6_Sketch4
10
421.696323
20
-208.209804
11
422.461276
21
-210.707980
0
LINE
8
hello_you v6_Sketch4
10
422.461276
20
-210.707980
11
423.450752
21
-213.096230
0
LINE
8
hello_you v6_Sketch4
10
423.450752
20
-213.096230
11
424.652051
21
-215.362529
0
LINE
8
hello_you v6_Sketch4
10
424.652051
20
-215.362529
11
426.052472
21
-217.494851
0
LINE
8
hello_you v6_Sketch4
10
426.052472
20
-217.494851
11
427.639314
21
-219.481169
0
LINE
8
hello_you v6_Sketch4
10
427.639314
20
-219.481169
11
429.399877
21
-221.309458
0
LINE
8
hello_you v6_Sketch4
10
429.399877
20
-221.309458
11
431.321461
21
-222.967692
0
LINE
8
hello_you v6_Sketch4
10
431.321461
20
-222.967692
11
433.391364
21
-224.443846
0
LINE
8
hello_you v6_Sketch4
10
433.391364
20
-224.443846
11
435.596886
21
-225.725892
0
LINE
8
hello_you v6_Sketch4
10
435.596886
20
-225.725892
11
437.925327
21
-226.801807
0
LINE
8
hello_you v6_Sketch4
10
437.925327
20
-226.801807
11
440.363986
21
-227.659563
0
LINE
8
hello_you v6_Sketch4
10
440.363986
20
-227.659563
11
442.900162
21
-228.287135
0
LINE
8
hello_you v6_Sketch4
10
442.900162
20
-228.287135
11
445.521156
21
-228.672497
0
LINE
8
hello_you v6_Sketch4
10
445.521156
20
-228.672497
11
448.214265
21
-228.803624
0
LINE
8
hello_you v6_Sketch4
10
448.214265
20
-228.803624
11
450.907374
21
-228.672497
0
LINE
8
hello_you v6_Sketch4
10
450.907374
20
-228.672497
11
453.528368
21
-228.287135
0
LINE
8
hello_you v6_Sketch4
10
453.528368
20
-228.287135
11
456.064544
21
-227.659563
0
LINE
8
hello_you v6_Sketch4
10
456.064544
20
-227.659563
11
458.503203
21
-226.801807
0
LINE
8
hello_you v6_Sketch4
10
458.503203
20
-226.801807
11
460.831644
21
-225.725892
0
LINE
8
hello_you v6_Sketch4
10
460.831644
20
-225.725892
11
463.037166
21
-224.443846
0
LINE
8
hello_you v6_Sketch4
10
463.037166
20
-224.443846
11
465.107069
21
-222.967692
0
LINE
8
hello_you v6_Sketch4
10
465.107069
20
-222.967692
11
467.028653
21
-221.309458
0
LINE
8
hello_you v6_Sketch4
10
467.028653
20
-221.309458
11
468.789216
21
-219.481169
0
LINE
8
hello_you v6_Sketch4
10
468.789216
20
-219.481169
11
470.376058
21
-217.494851
0
LINE
8
hello_you v6_Sketch4
10
470.376058
20
-217.494851
11
471.776479
21
-215.362529
0
LINE
8
hello_you v6_Sketch4
10
471.776479
20
-215.362529
11
472.977778
21
-213.096230
0
LINE
8
hello_you v6_Sketch4
10
472.977778
20
-213.096230
11
473.967254
21
-210.707980
0
LINE
8
hello_you v6_Sketch4
10
473.967254
20
-210.707980
11
474.732207
21
-208.209804
0
LINE
8
hello_you v6_Sketch4
10
474.732207
20
-208.209804
11
475.259936
21
-205.613728
0
LINE
8
hello_you v6_Sketch4
10
475.259936
20
-205.613728
11
475.537741
21
-202.931777
0
LINE
8
hello_you v6_Sketch4
10
475.537741
20
-202.931777
11
475.553683
21
-200.235525
0
LINE
8
hello_you v6_Sketch4
10
475.553683
20
-200.235525
11
475.311834
21
-197.597416
0
LINE
8
hello_you v6_Sketch4
10
475.311834
20
-197.597416
11
474.823511
21
-195.030788
0
LINE
8
hello_you v6_Sketch4
10
474.823511
20
-195.030788
11
474.100028
21
-192.548979
0
LINE
8
hello_you v6_Sketch4
10
474.100028
20
-192.548979
11
473.152700
21
-190.165327
0
LINE
8
hello_you v6_Sketch4
10
473.152700
20
-190.165327
11
471.992843
21
-187.893168
0
LINE
8
hello_you v6_Sketch4
10
471.992843
20
-187.893168
11
470.631772
21
-185.745841
0
LINE
8
hello_you v6_Sketch4
10
470.631772
20
-185.745841
11
469.080803
21
-183.736683
0
LINE
8
hello_you v6_Sketch4
10
469.080803
20
-183.736683
11
467.351250
21
-181.879031
0
LINE
8
hello_you v6_Sketch4
10
467.351250
20
-181.879031
11
465.454429
21
-180.186223
0
LINE
8
hello_you v6_Sketch4
10
465.454429
20
-180.186223
11
463.401655
21
-178.671596
0
LINE
8
hello_you v6_Sketch4
10
463.401655
20
-178.671596
11
461.204244
21
-177.348489
0
LINE
8
hello_you v6_Sketch4
10
461.204244
20
-177.348489
11
458.873510
21
-176.230238
0
LINE
8
hello_you v6_Sketch4
10
458.873510
20
-176.230238
11
456.420770
21
-175.330181
0
LINE
8
hello_you v6_Sketch4
10
456.420770
20
-175.330181
11
453.857338
21
-174.661656
0
LINE
8
hello_you v6_Sketch4
10
453.857338
20
-174.661656
11
451.194530
21
-174.238000
0
LINE
8
hello_you v6_Sketch4
10
445.233000
20
-174.238000
11
445.233000
21
-171.636000
0
LINE
8
hello_you v6_Sketch4
10
517.031000
20
-132.243000
11
517.031000
21
-129.641000
0
LINE
8
hello_you v6_Sketch4
10
452.551000
20
-91.713400
11
452.551000
21
-94.312700
0
LINE
8
hello_you v6_Sketch4
10
435.483000
20
257.901000
11
435.483000
21
260.503000
0
LINE
8
hello_you v6_Sketch4
10
517.031000
20
-132.243000
11
514.368192
21
-132.666656
0
LINE
8
hello_you v6_Sketch4
10
514.368192
20
-132.666656
11
511.804760
21
-133.335181
0
LINE
8
hello_you v6_Sketch4
10
511.804760
20
-133.335181
11
509.352020
21
-134.235238
0
LINE
8
hello_you v6_Sketch4
10
509.352020
20
-134.235238
11
507.021286
21
-135.353489
0
LINE
8
hello_you v6_Sketch4
10
507.021286
20
-135.353489
11
504.823875
21
-136.676596
0
LINE
8
hello_you v6_Sketch4
10
504.823875
20
-136.676596
11
502.771101
21
-138.191223
0
LINE
8
hello_you v6_Sketch4
10
502.771101
20
-138.191223
11
500.874280
21
-139.884031
0
LINE
8
hello_you v6_Sketch4
10
500.874280
20
-139.884031
11
499.144727
21
-141.741683
0
LINE
8
hello_you v6_Sketch4
10
499.144727
20
-141.741683
11
497.593758
21
-143.750841
0
LINE
8
hello_you v6_Sketch4
10
497.593758
20
-143.750841
11
496.232687
21
-145.898168
0
LINE
8
hello_you v6_Sketch4
10
496.232687
20
-145.898168
11
495.072830
21
-148.170327
0
LINE
8
hello_you v6_Sketch4
10
495.072830
20
-148.170327
11
494.125502
21
-150.553979
0
LINE
8
hello_you v6_Sketch4
10
494.125502
20
-150.553979
11
493.402019
21
-153.035788
0
LINE
8
hello_you v6_Sketch4
10
493.402019
20
-153.035788
11
492.913696
21
-155.602416
0
LINE
8
hello_you v6_Sketch4
10
492.913696
20
-155.602416
11
492.671847
21
-158.240525
0
LINE
8
hello_you v6_Sketch4
10
492.671847
20
-158.240525
11
492.687789
21
-160.936777
0
LINE
8
hello_you v6_Sketch4
10
492.687789
20
-160.936777
11
492.965594
21
-163.618728
0
LINE
8
hello_you v6_Sketch4
10
492.965594
20
-163.618728
11
493.493323
21
-166.214804
0
LINE
8
hello_you v6_Sketch4
10
493.493323
20
-166.214804
11
494.258276
21
-168.712980
0
LINE
8
hello_you v6_Sketch4
10
494.258276
20
-168.712980
11
495.247752
21
-171.101230
0
LINE
8
hello_you v6_Sketch4
10
495.247752
20
-171.101230
11
496.449051
21
-173.367529
0
LINE
8
hello_you v6_Sketch4
10
496.449051
20
-173.367529
11
497.849472
21
-175.499851
0
LINE
8
hello_you v6_Sketch4
10
497.849472
20
-175.499851
11
499.436314
21
-177.486169
0
LINE
8
hello_you v6_Sketch4
10
499.436314
20
-177.486169
11
501.196877
21
-179.314458
0
LINE
8
hello_you v6_Sketch4
10
501.196877
20
-179.314458
11
503.118461
21
-180.972692
0
LINE
8
hello_you v6_Sketch4
10
503.118461
20
-180.972692
11
505.188364
21
-182.448846
0
LINE
8
hello_you v6_Sketch4
10
505.188364
20
-182.448846
11
507.393886
21
-183.730892
0
LINE
8
hello_you v6_Sketch4
10
507.393886
20
-183.730892
11
509.722327
21
-184.806807
0
LINE
8
hello_you v6_Sketch4
10
509.722327
20
-184.806807
11
512.160986
21
-185.664563
0
LINE
8
hello_you v6_Sketch4
10
512.160986
20
-185.664563
11
514.697162
21
-186.292135
0
LINE
8
hello_you v6_Sketch4
10
514.697162
20
-186.292135
11
517.318156
21
-186.677497
0
LINE
8
hello_you v6_Sketch4
10
517.318156
20
-186.677497
11
520.011265
21
-186.808624
0
LINE
8
hello_you v6_Sketch4
10
520.011265
20
-186.808624
11
522.704374
21
-186.677497
0
LINE
8
hello_you v6_Sketch4
10
522.704374
20
-186.677497
11
525.325368
21
-186.292135
0
LINE
8
hello_you v6_Sketch4
10
525.325368
20
-186.292135
11
527.861544
21
-185.664563
0
LINE
8
hello_you v6_Sketch4
10
527.861544
20
-185.664563
11
530.300203
21
-184.806807
0
LINE
8
hello_you v6_Sketch4
10
530.300203
20
-184.806807
11
532.628644
21
-183.730892
0
LINE
8
hello_you v6_Sketch4
10
532.628644
20
-183.730892
11
534.834166
21
-182.448846
0
LINE
8
hello_you v6_Sketch4
10
534.834166
20
-182.448846
11
536.904069
21
-180.972692
0
LINE
8
hello_you v6_Sketch4
10
536.904069
20
-180.972692
11
538.825653
21
-179.314458
0
LINE
8
hello_you v6_Sketch4
10
538.825653
20
-179.314458
11
540.586216
21
-177.486169
0
LINE
8
hello_you v6_Sketch4
10
540.586216
20
-177.486169
11
542.173058
21
-175.499851
0
LINE
8
hello_you v6_Sketch4
10
542.173058
20
-175.499851
11
543.573479
21
-173.367529
0
LINE
8
hello_you v6_Sketch4
10
543.573479
20
-173.367529
11
544.774778
21
-171.101230
0
LINE
8
hello_you v6_Sketch4
10
544.774778
20
-171.101230
11
545.764254
21
-168.712980
0
LINE
8
hello_you v6_Sketch4
10
545.764254
20
-168.712980
11
546.529207
21
-166.214804
0
LINE
8
hello_you v6_Sketch4
10
546.529207
20
-166.214804
11
547.056936
21
-163.618728
0
LINE
8
hello_you v6_Sketch4
10
547.056936
20
-163.618728
11
547.334741
21
-160.936777
0
LINE
8
hello_you v6_Sketch4
10
547.334741
20
-160.936777
11
547.350683
21
-158.240525
0
LINE
8
hello_you v6_Sketch4
10
547.350683
20
-158.240525
11
547.108834
21
-155.602416
0
LINE
8
hello_you v6_Sketch4
10
547.108834
20
-155.602416
11
546.620511
21
-153.035788
0
LINE
8
hello_you v6_Sketch4
10
546.620511
20
-153.035788
11
545.897028
21
-150.553979
0
LINE
8
hello_you v6_Sketch4
10
545.897028
20
-150.553979
11
544.949700
21
-148.170327
0
LINE
8
hello_you v6_Sketch4
10
544.949700
20
-148.170327
11
543.789843
21
-145.898168
0
LINE
8
hello_you v6_Sketch4
10
543.789843
20
-145.898168
11
542.428772
21
-143.750841
0
LINE
8
hello_you v6_Sketch4
10
542.428772
20
-143.750841
11
540.877803
21
-141.741683
0
LINE
8
hello_you v6_Sketch4
10
540.877803
20
-141.741683
11
539.148250
21
-139.884031
0
LINE
8
hello_you v6_Sketch4
10
539.148250
20
-139.884031
11
537.251429
21
-138.191223
0
LINE
8
hello_you v6_Sketch4
10
537.251429
20
-138.191223
11
535.198655
21
-136.676596
0
LINE
8
hello_you v6_Sketch4
10
535.198655
20
-136.676596
11
533.001244
21
-135.353489
0
LINE
8
hello_you v6_Sketch4
10
533.001244
20
-135.353489
11
530.670510
21
-134.235238
0
LINE
8
hello_you v6_Sketch4
10
530.670510
20
-134.235238
11
528.217770
21
-133.335181
0
LINE
8
hello_you v6_Sketch4
10
528.217770
20
-133.335181
11
525.654338
21
-132.666656
0
LINE
8
hello_you v6_Sketch4
10
525.654338
20
-132.666656
11
522.991530
21
-132.243000
0
LINE
8
hello_you v6_Sketch4
10
522.991000
20
-129.641000
11
522.991000
21
-132.243000
0
LINE
8
hello_you v6_Sketch4
10
446.591000
20
-94.312700
11
446.591000
21
-91.713400
0
LINE
8
hello_you v6_Sketch4
10
587.473000
20
-91.710600
11
593.434000
21
-91.710600
0
LINE
8
hello_you v6_Sketch4
10
-505.146000
20
-185.132000
11
-503.835182
21
-187.068776
0
LINE
8
hello_you v6_Sketch4
10
-503.835182
20
-187.068776
11
-502.387319
21
-188.868311
0
LINE
8
hello_you v6_Sketch4
10
-502.387319
20
-188.868311
11
-500.812815
21
-190.526570
0
LINE
8
hello_you v6_Sketch4
10
-500.812815
20
-190.526570
11
-499.122073
21
-192.039515
0
LINE
8
hello_you v6_Sketch4
10
-499.122073
20
-192.039515
11
-497.325497
21
-193.403109
0
LINE
8
hello_you v6_Sketch4
10
-497.325497
20
-193.403109
11
-495.433491
21
-194.613315
0
LINE
8
hello_you v6_Sketch4
10
-495.433491
20
-194.613315
11
-493.456458
21
-195.666096
0
LINE
8
hello_you v6_Sketch4
10
-493.456458
20
-195.666096
11
-491.404803
21
-196.557416
0
LINE
8
hello_you v6_Sketch4
10
-491.404803
20
-196.557416
11
-489.288929
21
-197.283236
0
LINE
8
hello_you v6_Sketch4
10
-489.288929
20
-197.283236
11
-487.119239
21
-197.839521
0
LINE
8
hello_you v6_Sketch4
10
-487.119239
20
-197.839521
11
-484.906138
21
-198.222233
0
LINE
8
hello_you v6_Sketch4
10
-484.906138
20
-198.222233
11
-482.660029
21
-198.427336
0
LINE
8
hello_you v6_Sketch4
10
-482.660029
20
-198.427336
11
-480.391315
21
-198.450791
0
LINE
8
hello_you v6_Sketch4
10
-480.391315
20
-198.450791
11
-478.110402
21
-198.288563
0
LINE
8
hello_you v6_Sketch4
10
-478.110402
20
-198.288563
11
-475.827691
21
-197.936614
0
LINE
8
hello_you v6_Sketch4
10
-475.827691
20
-197.936614
11
-473.553587
21
-197.390908
0
LINE
8
hello_you v6_Sketch4
10
-473.553587
20
-197.390908
11
-471.332292
21
-196.659341
0
LINE
8
hello_you v6_Sketch4
10
-471.332292
20
-196.659341
11
-469.205555
21
-195.758437
0
LINE
8
hello_you v6_Sketch4
10
-469.205555
20
-195.758437
11
-467.180104
21
-194.697101
0
LINE
8
hello_you v6_Sketch4
10
-467.180104
20
-194.697101
11
-465.262665
21
-193.484238
0
LINE
8
hello_you v6_Sketch4
10
-465.262665
20
-193.484238
11
-463.459965
21
-192.128751
0
LINE
8
hello_you v6_Sketch4
10
-463.459965
20
-192.128751
11
-461.778730
21
-190.639544
0
LINE
8
hello_you v6_Sketch4
10
-461.778730
20
-190.639544
11
-460.225688
21
-189.025523
0
LINE
8
hello_you v6_Sketch4
10
-460.225688
20
-189.025523
11
-458.807564
21
-187.295591
0
LINE
8
hello_you v6_Sketch4
10
-458.807564
20
-187.295591
11
-457.531087
21
-185.458652
0
LINE
8
hello_you v6_Sketch4
10
-457.531087
20
-185.458652
11
-456.402982
21
-183.523610
0
LINE
8
hello_you v6_Sketch4
10
-456.402982
20
-183.523610
11
-455.429976
21
-181.499371
0
LINE
8
hello_you v6_Sketch4
10
-455.429976
20
-181.499371
11
-454.618796
21
-179.394837
0
LINE
8
hello_you v6_Sketch4
10
-454.618796
20
-179.394837
11
-453.976169
21
-177.218914
0
LINE
8
hello_you v6_Sketch4
10
-453.976169
20
-177.218914
11
-453.508821
21
-174.980506
0
LINE
8
hello_you v6_Sketch4
10
-453.508821
20
-174.980506
11
-453.223480
21
-172.688516
0
LINE
8
hello_you v6_Sketch4
10
-453.223480
20
-172.688516
11
-453.126871
21
-170.351850
0
LINE
8
hello_you v6_Sketch4
10
-453.126871
20
-170.351850
11
-453.223480
21
-168.015184
0
LINE
8
hello_you v6_Sketch4
10
-453.223480
20
-168.015184
11
-453.508821
21
-165.723194
0
LINE
8
hello_you v6_Sketch4
10
-453.508821
20
-165.723194
11
-453.976169
21
-163.484786
0
LINE
8
hello_you v6_Sketch4
10
-453.976169
20
-163.484786
11
-454.618796
21
-161.308863
0
LINE
8
hello_you v6_Sketch4
10
-454.618796
20
-161.308863
11
-455.429976
21
-159.204329
0
LINE
8
hello_you v6_Sketch4
10
-455.429976
20
-159.204329
11
-456.402982
21
-157.180090
0
LINE
8
hello_you v6_Sketch4
10
-456.402982
20
-157.180090
11
-457.531087
21
-155.245048
0
LINE
8
hello_you v6_Sketch4
10
-457.531087
20
-155.245048
11
-458.807564
21
-153.408109
0
LINE
8
hello_you v6_Sketch4
10
-458.807564
20
-153.408109
11
-460.225688
21
-151.678177
0
LINE
8
hello_you v6_Sketch4
10
-460.225688
20
-151.678177
11
-461.778730
21
-150.064156
0
LINE
8
hello_you v6_Sketch4
10
-461.778730
20
-150.064156
11
-463.459965
21
-148.574949
0
LINE
8
hello_you v6_Sketch4
10
-463.459965
20
-148.574949
11
-465.262665
21
-147.219462
0
LINE
8
hello_you v6_Sketch4
10
-465.262665
20
-147.219462
11
-467.180104
21
-146.006599
0
LINE
8
hello_you v6_Sketch4
10
-467.180104
20
-146.006599
11
-469.205555
21
-144.945263
0
LINE
8
hello_you v6_Sketch4
10
-469.205555
20
-144.945263
11
-471.332292
21
-144.044359
0
LINE
8
hello_you v6_Sketch4
10
-471.332292
20
-144.044359
11
-473.553587
21
-143.312792
0
LINE
8
hello_you v6_Sketch4
10
-473.553587
20
-143.312792
11
-475.827691
21
-142.767086
0
LINE
8
hello_you v6_Sketch4
10
-475.827691
20
-142.767086
11
-478.110402
21
-142.415137
0
LINE
8
hello_you v6_Sketch4
10
-478.110402
20
-142.415137
11
-480.391315
21
-142.252909
0
LINE
8
hello_you v6_Sketch4
10
-480.391315
20
-142.252909
11
-482.660029
21
-142.276364
0
LINE
8
hello_you v6_Sketch4
10
-482.660029
20
-142.276364
11
-484.906138
21
-142.481467
0
LINE
8
hello_you v6_Sketch4
10
-484.906138
20
-142.481467
11
-487.119239
21
-142.864179
0
LINE
8
hello_you v6_Sketch4
10
-487.119239
20
-142.864179
11
-489.288929
21
-143.420464
0
LINE
8
hello_you v6_Sketch4
10
-489.288929
20
-143.420464
11
-491.404803
21
-144.146284
0
LINE
8
hello_you v6_Sketch4
10
-491.404803
20
-144.146284
11
-493.456458
21
-145.037604
0
LINE
8
hello_you v6_Sketch4
10
-493.456458
20
-145.037604
11
-495.433491
21
-146.090385
0
LINE
8
hello_you v6_Sketch4
10
-495.433491
20
-146.090385
11
-497.325497
21
-147.300591
0
LINE
8
hello_you v6_Sketch4
10
-497.325497
20
-147.300591
11
-499.122073
21
-148.664185
0
LINE
8
hello_you v6_Sketch4
10
-499.122073
20
-148.664185
11
-500.812815
21
-150.177130
0
LINE
8
hello_you v6_Sketch4
10
-500.812815
20
-150.177130
11
-502.387319
21
-151.835389
0
LINE
8
hello_you v6_Sketch4
10
-502.387319
20
-151.835389
11
-503.835182
21
-153.634924
0
LINE
8
hello_you v6_Sketch4
10
-503.835182
20
-153.634924
11
-505.146000
21
-155.571700
0
LINE
8
hello_you v6_Sketch4
10
506.196000
20
260.501000
11
512.157000
21
260.501000
0
LINE
8
hello_you v6_Sketch4
10
446.590000
20
-94.313300
11
443.927192
21
-94.736956
0
LINE
8
hello_you v6_Sketch4
10
443.927192
20
-94.736956
11
441.363760
21
-95.405481
0
LINE
8
hello_you v6_Sketch4
10
441.363760
20
-95.405481
11
438.911020
21
-96.305538
0
LINE
8
hello_you v6_Sketch4
10
438.911020
20
-96.305538
11
436.580286
21
-97.423789
0
LINE
8
hello_you v6_Sketch4
10
436.580286
20
-97.423789
11
434.382875
21
-98.746896
0
LINE
8
hello_you v6_Sketch4
10
434.382875
20
-98.746896
11
432.330101
21
-100.261523
0
LINE
8
hello_you v6_Sketch4
10
432.330101
20
-100.261523
11
430.433280
21
-101.954331
0
LINE
8
hello_you v6_Sketch4
10
430.433280
20
-101.954331
11
428.703727
21
-103.811983
0
LINE
8
hello_you v6_Sketch4
10
428.703727
20
-103.811983
11
427.152758
21
-105.821141
0
LINE
8
hello_you v6_Sketch4
10
427.152758
20
-105.821141
11
425.791687
21
-107.968468
0
LINE
8
hello_you v6_Sketch4
10
425.791687
20
-107.968468
11
424.631830
21
-110.240627
0
LINE
8
hello_you v6_Sketch4
10
424.631830
20
-110.240627
11
423.684502
21
-112.624279
0
LINE
8
hello_you v6_Sketch4
10
423.684502
20
-112.624279
11
422.961019
21
-115.106088
0
LINE
8
hello_you v6_Sketch4
10
422.961019
20
-115.106088
11
422.472696
21
-117.672716
0
LINE
8
hello_you v6_Sketch4
10
422.472696
20
-117.672716
11
422.230847
21
-120.310825
0
LINE
8
hello_you v6_Sketch4
10
422.230847
20
-120.310825
11
422.246789
21
-123.007077
0
LINE
8
hello_you v6_Sketch4
10
422.246789
20
-123.007077
11
422.524594
21
-125.689028
0
LINE
8
hello_you v6_Sketch4
10
422.524594
20
-125.689028
11
423.052323
21
-128.285104
0
LINE
8
hello_you v6_Sketch4
10
423.052323
20
-128.285104
11
423.817276
21
-130.783280
0
LINE
8
hello_you v6_Sketch4
10
423.817276
20
-130.783280
11
424.806752
21
-133.171530
0
LINE
8
hello_you v6_Sketch4
10
424.806752
20
-133.171530
11
426.008051
21
-135.437829
0
LINE
8
hello_you v6_Sketch4
10
426.008051
20
-135.437829
11
427.408472
21
-137.570151
0
LINE
8
hello_you v6_Sketch4
10
427.408472
20
-137.570151
11
428.995314
21
-139.556469
0
LINE
8
hello_you v6_Sketch4
10
428.995314
20
-139.556469
11
430.755877
21
-141.384758
0
LINE
8
hello_you v6_Sketch4
10
430.755877
20
-141.384758
11
432.677461
21
-143.042992
0
LINE
8
hello_you v6_Sketch4
10
432.677461
20
-143.042992
11
434.747364
21
-144.519146
0
LINE
8
hello_you v6_Sketch4
10
434.747364
20
-144.519146
11
436.952886
21
-145.801192
0
LINE
8
hello_you v6_Sketch4
10
436.952886
20
-145.801192
11
439.281327
21
-146.877107
0
LINE
8
hello_you v6_Sketch4
10
439.281327
20
-146.877107
11
441.719986
21
-147.734863
0
LINE
8
hello_you v6_Sketch4
10
441.719986
20
-147.734863
11
444.256162
21
-148.362435
0
LINE
8
hello_you v6_Sketch4
10
444.256162
20
-148.362435
11
446.877156
21
-148.747797
0
LINE
8
hello_you v6_Sketch4
10
446.877156
20
-148.747797
11
449.570265
21
-148.878924
0
LINE
8
hello_you v6_Sketch4
10
449.570265
20
-148.878924
11
452.263374
21
-148.747797
0
LINE
8
hello_you v6_Sketch4
10
452.263374
20
-148.747797
11
454.884368
21
-148.362435
0
LINE
8
hello_you v6_Sketch4
10
454.884368
20
-148.362435
11
457.420544
21
-147.734863
0
LINE
8
hello_you v6_Sketch4
10
457.420544
20
-147.734863
11
459.859203
21
-146.877107
0
LINE
8
hello_you v6_Sketch4
10
459.859203
20
-146.877107
11
462.187644
21
-145.801192
0
LINE
8
hello_you v6_Sketch4
10
462.187644
20
-145.801192
11
464.393166
21
-144.519146
0
LINE
8
hello_you v6_Sketch4
10
464.393166
20
-144.519146
11
466.463069
21
-143.042992
0
LINE
8
hello_you v6_Sketch4
10
466.463069
20
-143.042992
11
468.384653
21
-141.384758
0
LINE
8
hello_you v6_Sketch4
10
468.384653
20
-141.384758
11
470.145216
21
-139.556469
0
LINE
8
hello_you v6_Sketch4
10
470.145216
20
-139.556469
11
471.732058
21
-137.570151
0
LINE
8
hello_you v6_Sketch4
10
471.732058
20
-137.570151
11
473.132479
21
-135.437829
0
LINE
8
hello_you v6_Sketch4
10
473.132479
20
-135.437829
11
474.333778
21
-133.171530
0
LINE
8
hello_you v6_Sketch4
10
474.333778
20
-133.171530
11
475.323254
21
-130.783280
0
LINE
8
hello_you v6_Sketch4
10
475.323254
20
-130.783280
11
476.088207
21
-128.285104
0
LINE
8
hello_you v6_Sketch4
10
476.088207
20
-128.285104
11
476.615936
21
-125.689028
0
LINE
8
hello_you v6_Sketch4
10
476.615936
20
-125.689028
11
476.893741
21
-123.007077
0
LINE
8
hello_you v6_Sketch4
10
476.893741
20
-123.007077
11
476.909683
21
-120.310825
0
LINE
8
hello_you v6_Sketch4
10
476.909683
20
-120.310825
11
476.667834
21
-117.672716
0
LINE
8
hello_you v6_Sketch4
10
476.667834
20
-117.672716
11
476.179511
21
-115.106088
0
LINE
8
hello_you v6_Sketch4
10
476.179511
20
-115.106088
11
475.456028
21
-112.624279
0
LINE
8
hello_you v6_Sketch4
10
475.456028
20
-112.624279
11
474.508700
21
-110.240627
0
LINE
8
hello_you v6_Sketch4
10
474.508700
20
-110.240627
11
473.348843
21
-107.968468
0
LINE
8
hello_you v6_Sketch4
10
473.348843
20
-107.968468
11
471.987772
21
-105.821141
0
LINE
8
hello_you v6_Sketch4
10
471.987772
20
-105.821141
11
470.436803
21
-103.811983
0
LINE
8
hello_you v6_Sketch4
10
470.436803
20
-103.811983
11
468.707250
21
-101.954331
0
LINE
8
hello_you v6_Sketch4
10
468.707250
20
-101.954331
11
466.810429
21
-100.261523
0
LINE
8
hello_you v6_Sketch4
10
466.810429
20
-100.261523
11
464.757655
21
-98.746896
0
LINE
8
hello_you v6_Sketch4
10
464.757655
20
-98.746896
11
462.560244
21
-97.423789
0
LINE
8
hello_you v6_Sketch4
10
462.560244
20
-97.423789
11
460.229510
21
-96.305538
0
LINE
8
hello_you v6_Sketch4
10
460.229510
20
-96.305538
11
457.776770
21
-95.405481
0
LINE
8
hello_you v6_Sketch4
10
457.776770
20
-95.405481
11
455.213338
21
-94.736956
0
LINE
8
hello_you v6_Sketch4
10
455.213338
20
-94.736956
11
452.550530
21
-94.313300
0
LINE
8
hello_you v6_Sketch4
10
445.233000
20
-171.636000
11
451.194000
21
-171.636000
0
LINE
8
hello_you v6_Sketch4
10
-505.146000
20
-185.132000
11
-505.146000
21
-155.572000
0
LINE
8
hello_you v6_Sketch4
10
506.196000
20
257.900000
11
506.196000
21
260.501000
0
LINE
8
hello_you v6_Sketch4
10
446.591000
20
-91.713400
11
452.551000
21
-91.713400
0
LINE
8
hello_you v6_Sketch4
10
441.443000
20
260.503000
11
441.443000
21
257.901000
0
LINE
8
hello_you v6_Sketch4
10
449.839000
20
22.080700
11
449.839000
21
19.479500
0
LINE
8
hello_you v6_Sketch4
10
282.281000
20
-159.542000
11
282.069984
21
-157.951446
0
LINE
8
hello_you v6_Sketch4
10
282.069984
20
-157.951446
11
281.464291
21
-156.494000
0
LINE
8
hello_you v6_Sketch4
10
281.464291
20
-156.494000
11
280.504952
21
-155.240731
0
LINE
8
hello_you v6_Sketch4
10
280.504952
20
-155.240731
11
279.233000
21
-154.262709
0
LINE
8
hello_you v6_Sketch4
10
279.233000
20
-154.262709
11
277.750032
21
-153.650177
0
LINE
8
hello_you v6_Sketch4
10
277.750032
20
-153.650177
11
276.185000
21
-153.446000
0
LINE
8
hello_you v6_Sketch4
10
276.185000
20
-153.446000
11
274.619968
21
-153.650177
0
LINE
8
hello_you v6_Sketch4
10
274.619968
20
-153.650177
11
273.137000
21
-154.262709
0
LINE
8
hello_you v6_Sketch4
10
273.137000
20
-154.262709
11
271.865048
21
-155.240731
0
LINE
8
hello_you v6_Sketch4
10
271.865048
20
-155.240731
11
270.905709
21
-156.494000
0
LINE
8
hello_you v6_Sketch4
10
270.905709
20
-156.494000
11
270.300016
21
-157.951446
0
LINE
8
hello_you v6_Sketch4
10
270.300016
20
-157.951446
11
270.089000
21
-159.542000
0
LINE
8
hello_you v6_Sketch4
10
270.089000
20
-159.542000
11
270.300016
21
-161.132554
0
LINE
8
hello_you v6_Sketch4
10
270.300016
20
-161.132554
11
270.905709
21
-162.590000
0
LINE
8
hello_you v6_Sketch4
10
270.905709
20
-162.590000
11
271.865048
21
-163.843269
0
LINE
8
hello_you v6_Sketch4
10
271.865048
20
-163.843269
11
273.137000
21
-164.821291
0
LINE
8
hello_you v6_Sketch4
10
273.137000
20
-164.821291
11
274.619968
21
-165.433823
0
LINE
8
hello_you v6_Sketch4
10
274.619968
20
-165.433823
11
276.185000
21
-165.638000
0
LINE
8
hello_you v6_Sketch4
10
276.185000
20
-165.638000
11
277.750032
21
-165.433823
0
LINE
8
hello_you v6_Sketch4
10
277.750032
20
-165.433823
11
279.233000
21
-164.821291
0
LINE
8
hello_you v6_Sketch4
10
279.233000
20
-164.821291
11
280.504952
21
-163.843269
0
LINE
8
hello_you v6_Sketch4
10
280.504952
20
-163.843269
11
281.464291
21
-162.590000
0
LINE
8
hello_you v6_Sketch4
10
281.464291
20
-162.590000
11
282.069984
21
-161.132554
0
LINE
8
hello_you v6_Sketch4
10
282.069984
20
-161.132554
11
282.281000
21
-159.542000
0
LINE
8
hello_you v6_Sketch4
10
282.281000
20
-159.542000
11
282.281000
21
-159.542000
0
LINE
8
hello_you v6_Sketch4
10
-797.469000
20
-251.632000
11
828.130000
21
-251.632000
0
LINE
8
hello_you v6_Sketch4
10
-662.003000
20
290.235000
11
-797.470000
21
-251.631000
0
LINE
8
hello_you v6_Sketch4
10
443.879000
20
22.080700
11
449.839000
21
22.080700
0
LINE
8
hello_you v6_Sketch4
10
233.513000
20
246.885000
11
233.301984
21
248.475554
0
LINE
8
hello_you v6_Sketch4
10
233.301984
20
248.475554
11
232.696291
21
249.933000
0
LINE
8
hello_you v6_Sketch4
10
232.696291
20
249.933000
11
231.736952
21
251.186269
0
LINE
8
hello_you v6_Sketch4
10
231.736952
20
251.186269
11
230.465000
21
252.164291
0
LINE
8
hello_you v6_Sketch4
10
230.465000
20
252.164291
11
228.982032
21
252.776823
0
LINE
8
hello_you v6_Sketch4
10
228.982032
20
252.776823
11
227.417000
21
252.981000
0
LINE
8
hello_you v6_Sketch4
10
227.417000
20
252.981000
11
225.851968
21
252.776823
0
LINE
8
hello_you v6_Sketch4
10
225.851968
20
252.776823
11
224.369000
21
252.164291
0
LINE
8
hello_you v6_Sketch4
10
224.369000
20
252.164291
11
223.097048
21
251.186269
0
LINE
8
hello_you v6_Sketch4
10
223.097048
20
251.186269
11
222.137709
21
249.933000
0
LINE
8
hello_you v6_Sketch4
10
222.137709
20
249.933000
11
221.532016
21
248.475554
0
LINE
8
hello_you v6_Sketch4
10
221.532016
20
248.475554
11
221.321000
21
246.885000
0
LINE
8
hello_you v6_Sketch4
10
221.321000
20
246.885000
11
221.532016
21
245.294446
0
LINE
8
hello_you v6_Sketch4
10
221.532016
20
245.294446
11
222.137709
21
243.837000
0
LINE
8
hello_you v6_Sketch4
10
222.137709
20
243.837000
11
223.097048
21
242.583731
0
LINE
8
hello_you v6_Sketch4
10
223.097048
20
242.583731
11
224.369000
21
241.605709
0
LINE
8
hello_you v6_Sketch4
10
224.369000
20
241.605709
11
225.851968
21
240.993177
0
LINE
8
hello_you v6_Sketch4
10
225.851968
20
240.993177
11
227.417000
21
240.788999
0
LINE
8
hello_you v6_Sketch4
10
227.417000
20
240.788999
11
228.982032
21
240.993177
0
LINE
8
hello_you v6_Sketch4
10
228.982032
20
240.993177
11
230.465000
21
241.605709
0
LINE
8
hello_you v6_Sketch4
10
230.465000
20
241.605709
11
231.736952
21
242.583731
0
LINE
8
hello_you v6_Sketch4
10
231.736952
20
242.583731
11
232.696291
21
243.837000
0
LINE
8
hello_you v6_Sketch4
10
232.696291
20
243.837000
11
233.301984
21
245.294446
0
LINE
8
hello_you v6_Sketch4
10
233.301984
20
245.294446
11
233.513000
21
246.885000
0
LINE
8
hello_you v6_Sketch4
10
233.513000
20
246.885000
11
233.513000
21
246.885000
0
LINE
8
hello_you v6_Sketch4
10
-505.146000
20
-90.305300
11
-503.835182
21
-92.242076
0
LINE
8
hello_you v6_Sketch4
10
-503.835182
20
-92.242076
11
-502.387319
21
-94.041611
0
LINE
8
hello_you v6_Sketch4
10
-502.387319
20
-94.041611
11
-500.812815
21
-95.699870
0
LINE
8
hello_you v6_Sketch4
10
-500.812815
20
-95.699870
11
-499.122073
21
-97.212815
0
LINE
8
hello_you v6_Sketch4
10
-499.122073
20
-97.212815
11
-497.325497
21
-98.576409
0
LINE
8
hello_you v6_Sketch4
10
-497.325497
20
-98.576409
11
-495.433491
21
-99.786615
0
LINE
8
hello_you v6_Sketch4
10
-495.433491
20
-99.786615
11
-493.456458
21
-100.839396
0
LINE
8
hello_you v6_Sketch4
10
-493.456458
20
-100.839396
11
-491.404803
21
-101.730716
0
LINE
8
hello_you v6_Sketch4
10
-491.404803
20
-101.730716
11
-489.288929
21
-102.456536
0
LINE
8
hello_you v6_Sketch4
10
-489.288929
20
-102.456536
11
-487.119239
21
-103.012821
0
LINE
8
hello_you v6_Sketch4
10
-487.119239
20
-103.012821
11
-484.906138
21
-103.395533
0
LINE
8
hello_you v6_Sketch4
10
-484.906138
20
-103.395533
11
-482.660029
21
-103.600636
0
LINE
8
hello_you v6_Sketch4
10
-482.660029
20
-103.600636
11
-480.391315
21
-103.624091
0
LINE
8
hello_you v6_Sketch4
10
-480.391315
20
-103.624091
11
-478.110402
21
-103.461863
0
LINE
8
hello_you v6_Sketch4
10
-478.110402
20
-103.461863
11
-475.827691
21
-103.109914
0
LINE
8
hello_you v6_Sketch4
10
-475.827691
20
-103.109914
11
-473.553587
21
-102.564208
0
LINE
8
hello_you v6_Sketch4
10
-473.553587
20
-102.564208
11
-471.332292
21
-101.832641
0
LINE
8
hello_you v6_Sketch4
10
-471.332292
20
-101.832641
11
-469.205555
21
-100.931737
0
LINE
8
hello_you v6_Sketch4
10
-469.205555
20
-100.931737
11
-467.180104
21
-99.870401
0
LINE
8
hello_you v6_Sketch4
10
-467.180104
20
-99.870401
11
-465.262665
21
-98.657538
0
LINE
8
hello_you v6_Sketch4
10
-465.262665
20
-98.657538
11
-463.459965
21
-97.302051
0
LINE
8
hello_you v6_Sketch4
10
-463.459965
20
-97.302051
11
-461.778730
21
-95.812844
0
LINE
8
hello_you v6_Sketch4
10
-461.778730
20
-95.812844
11
-460.225688
21
-94.198823
0
LINE
8
hello_you v6_Sketch4
10
-460.225688
20
-94.198823
11
-458.807564
21
-92.468891
0
LINE
8
hello_you v6_Sketch4
10
-458.807564
20
-92.468891
11
-457.531087
21
-90.631952
0
LINE
8
hello_you v6_Sketch4
10
-457.531087
20
-90.631952
11
-456.402982
21
-88.696910
0
LINE
8
hello_you v6_Sketch4
10
-456.402982
20
-88.696910
11
-455.429976
21
-86.672671
0
LINE
8
hello_you v6_Sketch4
10
-455.429976
20
-86.672671
11
-454.618796
21
-84.568137
0
LINE
8
hello_you v6_Sketch4
10
-454.618796
20
-84.568137
11
-453.976169
21
-82.392214
0
LINE
8
hello_you v6_Sketch4
10
-453.976169
20
-82.392214
11
-453.508821
21
-80.153806
0
LINE
8
hello_you v6_Sketch4
10
-453.508821
20
-80.153806
11
-453.223480
21
-77.861816
0
LINE
8
hello_you v6_Sketch4
10
-453.223480
20
-77.861816
11
-453.126871
21
-75.525150
0
LINE
8
hello_you v6_Sketch4
10
-453.126871
20
-75.525150
11
-453.223480
21
-73.188484
0
LINE
8
hello_you v6_Sketch4
10
-453.223480
20
-73.188484
11
-453.508821
21
-70.896494
0
LINE
8
hello_you v6_Sketch4
10
-453.508821
20
-70.896494
11
-453.976169
21
-68.658086
0
LINE
8
hello_you v6_Sketch4
10
-453.976169
20
-68.658086
11
-454.618796
21
-66.482163
0
LINE
8
hello_you v6_Sketch4
10
-454.618796
20
-66.482163
11
-455.429976
21
-64.377629
0
LINE
8
hello_you v6_Sketch4
10
-455.429976
20
-64.377629
11
-456.402982
21
-62.353390
0
LINE
8
hello_you v6_Sketch4
10
-456.402982
20
-62.353390
11
-457.531087
21
-60.418348
0
LINE
8
hello_you v6_Sketch4
10
-457.531087
20
-60.418348
11
-458.807564
21
-58.581409
0
LINE
8
hello_you v6_Sketch4
10
-458.807564
20
-58.581409
11
-460.225688
21
-56.851477
0
LINE
8
hello_you v6_Sketch4
10
-460.225688
20
-56.851477
11
-461.778730
21
-55.237456
0
LINE
8
hello_you v6_Sketch4
10
-461.778730
20
-55.237456
11
-463.459965
21
-53.748249
0
LINE
8
hello_you v6_Sketch4
10
-463.459965
20
-53.748249
11
-465.262665
21
-52.392762
0
LINE
8
hello_you v6_Sketch4
10
-465.262665
20
-52.392762
11
-467.180104
21
-51.179899
0
LINE
8
hello_you v6_Sketch4
10
-467.180104
20
-51.179899
11
-469.205555
21
-50.118563
0
LINE
8
hello_you v6_Sketch4
10
-469.205555
20
-50.118563
11
-471.332292
21
-49.217659
0
LINE
8
hello_you v6_Sketch4
10
-471.332292
20
-49.217659
11
-473.553587
21
-48.486092
0
LINE
8
hello_you v6_Sketch4
10
-473.553587
20
-48.486092
11
-475.827691
21
-47.940386
0
LINE
8
hello_you v6_Sketch4
10
-475.827691
20
-47.940386
11
-478.110402
21
-47.588437
0
LINE
8
hello_you v6_Sketch4
10
-478.110402
20
-47.588437
11
-480.391315
21
-47.426209
0
LINE
8
hello_you v6_Sketch4
10
-480.391315
20
-47.426209
11
-482.660029
21
-47.449664
0
LINE
8
hello_you v6_Sketch4
10
-482.660029
20
-47.449664
11
-484.906138
21
-47.654767
0
LINE
8
hello_you v6_Sketch4
10
-484.906138
20
-47.654767
11
-487.119239
21
-48.037479
0
LINE
8
hello_you v6_Sketch4
10
-487.119239
20
-48.037479
11
-489.288929
21
-48.593764
0
LINE
8
hello_you v6_Sketch4
10
-489.288929
20
-48.593764
11
-491.404803
21
-49.319584
0
LINE
8
hello_you v6_Sketch4
10
-491.404803
20
-49.319584
11
-493.456458
21
-50.210904
0
LINE
8
hello_you v6_Sketch4
10
-493.456458
20
-50.210904
11
-495.433491
21
-51.263685
0
LINE
8
hello_you v6_Sketch4
10
-495.433491
20
-51.263685
11
-497.325497
21
-52.473891
0
LINE
8
hello_you v6_Sketch4
10
-497.325497
20
-52.473891
11
-499.122073
21
-53.837485
0
LINE
8
hello_you v6_Sketch4
10
-499.122073
20
-53.837485
11
-500.812815
21
-55.350430
0
LINE
8
hello_you v6_Sketch4
10
-500.812815
20
-55.350430
11
-502.387319
21
-57.008689
0
LINE
8
hello_you v6_Sketch4
10
-502.387319
20
-57.008689
11
-503.835182
21
-58.808224
0
LINE
8
hello_you v6_Sketch4
10
-503.835182
20
-58.808224
11
-505.146000
21
-60.745000
0
LINE
8
hello_you v6_Sketch4
10
-505.146000
20
-90.305100
11
-505.146000
21
-60.744900
0
LINE
8
hello_you v6_Sketch4
10
459.742000
20
106.452000
11
459.742000
21
84.820100
0
LINE
8
hello_you v6_Sketch4
10
-377.604000
20
-159.542000
11
-377.815016
21
-157.951446
0
LINE
8
hello_you v6_Sketch4
10
-377.815016
20
-157.951446
11
-378.420709
21
-156.494000
0
LINE
8
hello_you v6_Sketch4
10
-378.420709
20
-156.494000
11
-379.380048
21
-155.240731
0
LINE
8
hello_you v6_Sketch4
10
-379.380048
20
-155.240731
11
-380.652000
21
-154.262709
0
LINE
8
hello_you v6_Sketch4
10
-380.652000
20
-154.262709
11
-382.134968
21
-153.650177
0
LINE
8
hello_you v6_Sketch4
10
-382.134968
20
-153.650177
11
-383.700000
21
-153.446000
0
LINE
8
hello_you v6_Sketch4
10
-383.700000
20
-153.446000
11
-385.265032
21
-153.650177
0
LINE
8
hello_you v6_Sketch4
10
-385.265032
20
-153.650177
11
-386.748000
21
-154.262709
0
LINE
8
hello_you v6_Sketch4
10
-386.748000
20
-154.262709
11
-388.019952
21
-155.240731
0
LINE
8
hello_you v6_Sketch4
10
-388.019952
20
-155.240731
11
-388.979291
21
-156.494000
0
LINE
8
hello_you v6_Sketch4
10
-388.979291
20
-156.494000
11
-389.584984
21
-157.951446
0
LINE
8
hello_you v6_Sketch4
10
-389.584984
20
-157.951446
11
-389.796000
21
-159.542000
0
LINE
8
hello_you v6_Sketch4
10
-389.796000
20
-159.542000
11
-389.584984
21
-161.132554
0
LINE
8
hello_you v6_Sketch4
10
-389.584984
20
-161.132554
11
-388.979291
21
-162.590000
0
LINE
8
hello_you v6_Sketch4
10
-388.979291
20
-162.590000
11
-388.019952
21
-163.843269
0
LINE
8
hello_you v6_Sketch4
10
-388.019952
20
-163.843269
11
-386.748000
21
-164.821291
0
LINE
8
hello_you v6_Sketch4
10
-386.748000
20
-164.821291
11
-385.265032
21
-165.433823
0
LINE
8
hello_you v6_Sketch4
10
-385.265032
20
-165.433823
11
-383.700000
21
-165.638000
0
LINE
8
hello_you v6_Sketch4
10
-383.700000
20
-165.638000
11
-382.134968
21
-165.433823
0
LINE
8
hello_you v6_Sketch4
10
-382.134968
20
-165.433823
11
-380.652000
21
-164.821291
0
LINE
8
hello_you v6_Sketch4
10
-380.652000
20
-164.821291
11
-379.380048
21
-163.843269
0
LINE
8
hello_you v6_Sketch4
10
-379.380048
20
-163.843269
11
-378.420709
21
-162.590000
0
LINE
8
hello_you v6_Sketch4
10
-378.420709
20
-162.590000
11
-377.815016
21
-161.132554
0
LINE
8
hello_you v6_Sketch4
10
-377.815016
20
-161.132554
11
-377.604000
21
-159.542000
0
LINE
8
hello_you v6_Sketch4
10
-377.604000
20
-159.542000
11
-377.604000
21
-159.542000
0
LINE
8
hello_you v6_Sketch4
10
233.513000
20
-208.309000
11
233.301984
21
-206.718446
0
LINE
8
hello_you v6_Sketch4
10
233.301984
20
-206.718446
11
232.696291
21
-205.261000
0
LINE
8
hello_you v6_Sketch4
10
232.696291
20
-205.261000
11
231.736952
21
-204.007731
0
LINE
8
hello_you v6_Sketch4
10
231.736952
20
-204.007731
11
230.465000
21
-203.029709
0
LINE
8
hello_you v6_Sketch4
10
230.465000
20
-203.029709
11
228.982032
21
-202.417177
0
LINE
8
hello_you v6_Sketch4
10
228.982032
20
-202.417177
11
227.417000
21
-202.213000
0
LINE
8
hello_you v6_Sketch4
10
227.417000
20
-202.213000
11
225.851968
21
-202.417177
0
LINE
8
hello_you v6_Sketch4
10
225.851968
20
-202.417177
11
224.369000
21
-203.029709
0
LINE
8
hello_you v6_Sketch4
10
224.369000
20
-203.029709
11
223.097048
21
-204.007731
0
LINE
8
hello_you v6_Sketch4
10
223.097048
20
-204.007731
11
222.137709
21
-205.261000
0
LINE
8
hello_you v6_Sketch4
10
222.137709
20
-205.261000
11
221.532016
21
-206.718446
0
LINE
8
hello_you v6_Sketch4
10
221.532016
20
-206.718446
11
221.321000
21
-208.309000
0
LINE
8
hello_you v6_Sketch4
10
221.321000
20
-208.309000
11
221.532016
21
-209.899554
0
LINE
8
hello_you v6_Sketch4
10
221.532016
20
-209.899554
11
222.137709
21
-211.357000
0
LINE
8
hello_you v6_Sketch4
10
222.137709
20
-211.357000
11
223.097048
21
-212.610269
0
LINE
8
hello_you v6_Sketch4
10
223.097048
20
-212.610269
11
224.369000
21
-213.588291
0
LINE
8
hello_you v6_Sketch4
10
224.369000
20
-213.588291
11
225.851968
21
-214.200823
0
LINE
8
hello_you v6_Sketch4
10
225.851968
20
-214.200823
11
227.417000
21
-214.405001
0
LINE
8
hello_you v6_Sketch4
10
227.417000
20
-214.405001
11
228.982032
21
-214.200823
0
LINE
8
hello_you v6_Sketch4
10
228.982032
20
-214.200823
11
230.465000
21
-213.588291
0
LINE
8
hello_you v6_Sketch4
10
230.465000
20
-213.588291
11
231.736952
21
-212.610269
0
LINE
8
hello_you v6_Sketch4
10
231.736952
20
-212.610269
11
232.696291
21
-211.357000
0
LINE
8
hello_you v6_Sketch4
10
232.696291
20
-211.357000
11
233.301984
21
-209.899554
0
LINE
8
hello_you v6_Sketch4
10
233.301984
20
-209.899554
11
233.513000
21
-208.309000
0
LINE
8
hello_you v6_Sketch4
10
233.513000
20
-208.309000
11
233.513000
21
-208.309000
0
LINE
8
hello_you v6_Sketch4
10
517.033000
20
-53.671400
11
514.370192
21
-54.095056
0
LINE
8
hello_you v6_Sketch4
10
514.370192
20
-54.095056
11
511.806760
21
-54.763581
0
LINE
8
hello_you v6_Sketch4
10
511.806760
20
-54.763581
11
509.354020
21
-55.663638
0
LINE
8
hello_you v6_Sketch4
10
509.354020
20
-55.663638
11
507.023286
21
-56.781889
0
LINE
8
hello_you v6_Sketch4
10
507.023286
20
-56.781889
11
504.825875
21
-58.104996
0
LINE
8
hello_you v6_Sketch4
10
504.825875
20
-58.104996
11
502.773101
21
-59.619623
0
LINE
8
hello_you v6_Sketch4
10
502.773101
20
-59.619623
11
500.876280
21
-61.312431
0
LINE
8
hello_you v6_Sketch4
10
500.876280
20
-61.312431
11
499.146727
21
-63.170083
0
LINE
8
hello_you v6_Sketch4
10
499.146727
20
-63.170083
11
497.595758
21
-65.179241
0
LINE
8
hello_you v6_Sketch4
10
497.595758
20
-65.179241
11
496.234687
21
-67.326568
0
LINE
8
hello_you v6_Sketch4
10
496.234687
20
-67.326568
11
495.074830
21
-69.598727
0
LINE
8
hello_you v6_Sketch4
10
495.074830
20
-69.598727
11
494.127502
21
-71.982379
0
LINE
8
hello_you v6_Sketch4
10
494.127502
20
-71.982379
11
493.404019
21
-74.464188
0
LINE
8
hello_you v6_Sketch4
10
493.404019
20
-74.464188
11
492.915696
21
-77.030816
0
LINE
8
hello_you v6_Sketch4
10
492.915696
20
-77.030816
11
492.673847
21
-79.668925
0
LINE
8
hello_you v6_Sketch4
10
492.673847
20
-79.668925
11
492.689789
21
-82.365177
0
LINE
8
hello_you v6_Sketch4
10
492.689789
20
-82.365177
11
492.967594
21
-85.047128
0
LINE
8
hello_you v6_Sketch4
10
492.967594
20
-85.047128
11
493.495323
21
-87.643204
0
LINE
8
hello_you v6_Sketch4
10
493.495323
20
-87.643204
11
494.260276
21
-90.141380
0
LINE
8
hello_you v6_Sketch4
10
494.260276
20
-90.141380
11
495.249752
21
-92.529630
0
LINE
8
hello_you v6_Sketch4
10
495.249752
20
-92.529630
11
496.451051
21
-94.795929
0
LINE
8
hello_you v6_Sketch4
10
496.451051
20
-94.795929
11
497.851472
21
-96.928251
0
LINE
8
hello_you v6_Sketch4
10
497.851472
20
-96.928251
11
499.438314
21
-98.914569
0
LINE
8
hello_you v6_Sketch4
10
499.438314
20
-98.914569
11
501.198877
21
-100.742858
0
LINE
8
hello_you v6_Sketch4
10
501.198877
20
-100.742858
11
503.120461
21
-102.401092
0
LINE
8
hello_you v6_Sketch4
10
503.120461
20
-102.401092
11
505.190364
21
-103.877246
0
LINE
8
hello_you v6_Sketch4
10
505.190364
20
-103.877246
11
507.395886
21
-105.159292
0
LINE
8
hello_you v6_Sketch4
10
507.395886
20
-105.159292
11
509.724327
21
-106.235207
0
LINE
8
hello_you v6_Sketch4
10
509.724327
20
-106.235207
11
512.162986
21
-107.092963
0
LINE
8
hello_you v6_Sketch4
10
512.162986
20
-107.092963
11
514.699162
21
-107.720535
0
LINE
8
hello_you v6_Sketch4
10
514.699162
20
-107.720535
11
517.320156
21
-108.105897
0
LINE
8
hello_you v6_Sketch4
10
517.320156
20
-108.105897
11
520.013265
21
-108.237024
0
LINE
8
hello_you v6_Sketch4
10
520.013265
20
-108.237024
11
522.706374
21
-108.105897
0
LINE
8
hello_you v6_Sketch4
10
522.706374
20
-108.105897
11
525.327368
21
-107.720535
0
LINE
8
hello_you v6_Sketch4
10
525.327368
20
-107.720535
11
527.863544
21
-107.092963
0
LINE
8
hello_you v6_Sketch4
10
527.863544
20
-107.092963
11
530.302203
21
-106.235207
0
LINE
8
hello_you v6_Sketch4
10
530.302203
20
-106.235207
11
532.630644
21
-105.159292
0
LINE
8
hello_you v6_Sketch4
10
532.630644
20
-105.159292
11
534.836166
21
-103.877246
0
LINE
8
hello_you v6_Sketch4
10
534.836166
20
-103.877246
11
536.906069
21
-102.401092
0
LINE
8
hello_you v6_Sketch4
10
536.906069
20
-102.401092
11
538.827653
21
-100.742858
0
LINE
8
hello_you v6_Sketch4
10
538.827653
20
-100.742858
11
540.588216
21
-98.914569
0
LINE
8
hello_you v6_Sketch4
10
540.588216
20
-98.914569
11
542.175058
21
-96.928251
0
LINE
8
hello_you v6_Sketch4
10
542.175058
20
-96.928251
11
543.575479
21
-94.795929
0
LINE
8
hello_you v6_Sketch4
10
543.575479
20
-94.795929
11
544.776778
21
-92.529630
0
LINE
8
hello_you v6_Sketch4
10
544.776778
20
-92.529630
11
545.766254
21
-90.141380
0
LINE
8
hello_you v6_Sketch4
10
545.766254
20
-90.141380
11
546.531207
21
-87.643204
0
LINE
8
hello_you v6_Sketch4
10
546.531207
20
-87.643204
11
547.058936
21
-85.047128
0
LINE
8
hello_you v6_Sketch4
10
547.058936
20
-85.047128
11
547.336741
21
-82.365177
0
LINE
8
hello_you v6_Sketch4
10
547.336741
20
-82.365177
11
547.352683
21
-79.668925
0
LINE
8
hello_you v6_Sketch4
10
547.352683
20
-79.668925
11
547.110834
21
-77.030816
0
LINE
8
hello_you v6_Sketch4
10
547.110834
20
-77.030816
11
546.622511
21
-74.464188
0
LINE
8
hello_you v6_Sketch4
10
546.622511
20
-74.464188
11
545.899028
21
-71.982379
0
LINE
8
hello_you v6_Sketch4
10
545.899028
20
-71.982379
11
544.951700
21
-69.598727
0
LINE
8
hello_you v6_Sketch4
10
544.951700
20
-69.598727
11
543.791843
21
-67.326568
0
LINE
8
hello_you v6_Sketch4
10
543.791843
20
-67.326568
11
542.430772
21
-65.179241
0
LINE
8
hello_you v6_Sketch4
10
542.430772
20
-65.179241
11
540.879803
21
-63.170083
0
LINE
8
hello_you v6_Sketch4
10
540.879803
20
-63.170083
11
539.150250
21
-61.312431
0
LINE
8
hello_you v6_Sketch4
10
539.150250
20
-61.312431
11
537.253429
21
-59.619623
0
LINE
8
hello_you v6_Sketch4
10
537.253429
20
-59.619623
11
535.200655
21
-58.104996
0
LINE
8
hello_you v6_Sketch4
10
535.200655
20
-58.104996
11
533.003244
21
-56.781889
0
LINE
8
hello_you v6_Sketch4
10
533.003244
20
-56.781889
11
530.672510
21
-55.663638
0
LINE
8
hello_you v6_Sketch4
10
530.672510
20
-55.663638
11
528.219770
21
-54.763581
0
LINE
8
hello_you v6_Sketch4
10
528.219770
20
-54.763581
11
525.656338
21
-54.095056
0
LINE
8
hello_you v6_Sketch4
10
525.656338
20
-54.095056
11
522.993530
21
-53.671400
0
LINE
8
hello_you v6_Sketch4
10
-377.604000
20
198.117000
11
-377.815016
21
199.707554
0
LINE
8
hello_you v6_Sketch4
10
-377.815016
20
199.707554
11
-378.420709
21
201.165000
0
LINE
8
hello_you v6_Sketch4
10
-378.420709
20
201.165000
11
-379.380048
21
202.418269
0
LINE
8
hello_you v6_Sketch4
10
-379.380048
20
202.418269
11
-380.652000
21
203.396291
0
LINE
8
hello_you v6_Sketch4
10
-380.652000
20
203.396291
11
-382.134968
21
204.008823
0
LINE
8
hello_you v6_Sketch4
10
-382.134968
20
204.008823
11
-383.700000
21
204.213000
0
LINE
8
hello_you v6_Sketch4
10
-383.700000
20
204.213000
11
-385.265032
21
204.008823
0
LINE
8
hello_you v6_Sketch4
10
-385.265032
20
204.008823
11
-386.748000
21
203.396291
0
LINE
8
hello_you v6_Sketch4
10
-386.748000
20
203.396291
11
-388.019952
21
202.418269
0
LINE
8
hello_you v6_Sketch4
10
-388.019952
20
202.418269
11
-388.979291
21
201.165000
0
LINE
8
hello_you v6_Sketch4
10
-388.979291
20
201.165000
11
-389.584984
21
199.707554
0
LINE
8
hello_you v6_Sketch4
10
-389.584984
20
199.707554
11
-389.796000
21
198.117000
0
LINE
8
hello_you v6_Sketch4
10
-389.796000
20
198.117000
11
-389.584984
21
196.526446
0
LINE
8
hello_you v6_Sketch4
10
-389.584984
20
196.526446
11
-388.979291
21
195.069000
0
LINE
8
hello_you v6_Sketch4
10
-388.979291
20
195.069000
11
-388.019952
21
193.815731
0
LINE
8
hello_you v6_Sketch4
10
-388.019952
20
193.815731
11
-386.748000
21
192.837709
0
LINE
8
hello_you v6_Sketch4
10
-386.748000
20
192.837709
11
-385.265032
21
192.225177
0
LINE
8
hello_you v6_Sketch4
10
-385.265032
20
192.225177
11
-383.700000
21
192.021000
0
LINE
8
hello_you v6_Sketch4
10
-383.700000
20
192.021000
11
-382.134968
21
192.225177
0
LINE
8
hello_you v6_Sketch4
10
-382.134968
20
192.225177
11
-380.652000
21
192.837709
0
LINE
8
hello_you v6_Sketch4
10
-380.652000
20
192.837709
11
-379.380048
21
193.815731
0
LINE
8
hello_you v6_Sketch4
10
-379.380048
20
193.815731
11
-378.420709
21
195.069000
0
LINE
8
hello_you v6_Sketch4
10
-378.420709
20
195.069000
11
-377.815016
21
196.526446
0
LINE
8
hello_you v6_Sketch4
10
-377.815016
20
196.526446
11
-377.604000
21
198.117000
0
LINE
8
hello_you v6_Sketch4
10
-377.604000
20
198.117000
11
-377.604000
21
198.117000
0
LINE
8
hello_you v6_Sketch4
10
-328.836000
20
-208.309000
11
-329.047016
21
-206.718446
0
LINE
8
hello_you v6_Sketch4
10
-329.047016
20
-206.718446
11
-329.652709
21
-205.261000
0
LINE
8
hello_you v6_Sketch4
10
-329.652709
20
-205.261000
11
-330.612048
21
-204.007731
0
LINE
8
hello_you v6_Sketch4
10
-330.612048
20
-204.007731
11
-331.884000
21
-203.029709
0
LINE
8
hello_you v6_Sketch4
10
-331.884000
20
-203.029709
11
-333.366968
21
-202.417177
0
LINE
8
hello_you v6_Sketch4
10
-333.366968
20
-202.417177
11
-334.932000
21
-202.213000
0
LINE
8
hello_you v6_Sketch4
10
-334.932000
20
-202.213000
11
-336.497032
21
-202.417177
0
LINE
8
hello_you v6_Sketch4
10
-336.497032
20
-202.417177
11
-337.980000
21
-203.029709
0
LINE
8
hello_you v6_Sketch4
10
-337.980000
20
-203.029709
11
-339.251952
21
-204.007731
0
LINE
8
hello_you v6_Sketch4
10
-339.251952
20
-204.007731
11
-340.211291
21
-205.261000
0
LINE
8
hello_you v6_Sketch4
10
-340.211291
20
-205.261000
11
-340.816984
21
-206.718446
0
LINE
8
hello_you v6_Sketch4
10
-340.816984
20
-206.718446
11
-341.028000
21
-208.309000
0
LINE
8
hello_you v6_Sketch4
10
-341.028000
20
-208.309000
11
-340.816984
21
-209.899554
0
LINE
8
hello_you v6_Sketch4
10
-340.816984
20
-209.899554
11
-340.211291
21
-211.357000
0
LINE
8
hello_you v6_Sketch4
10
-340.211291
20
-211.357000
11
-339.251952
21
-212.610269
0
LINE
8
hello_you v6_Sketch4
10
-339.251952
20
-212.610269
11
-337.980000
21
-213.588291
0
LINE
8
hello_you v6_Sketch4
10
-337.980000
20
-213.588291
11
-336.497032
21
-214.200823
0
LINE
8
hello_you v6_Sketch4
10
-336.497032
20
-214.200823
11
-334.932000
21
-214.405000
0
LINE
8
hello_you v6_Sketch4
10
-334.932000
20
-214.405000
11
-333.366968
21
-214.200823
0
LINE
8
hello_you v6_Sketch4
10
-333.366968
20
-214.200823
11
-331.884000
21
-213.588291
0
LINE
8
hello_you v6_Sketch4
10
-331.884000
20
-213.588291
11
-330.612048
21
-212.610269
0
LINE
8
hello_you v6_Sketch4
10
-330.612048
20
-212.610269
11
-329.652709
21
-211.357000
0
LINE
8
hello_you v6_Sketch4
10
-329.652709
20
-211.357000
11
-329.047016
21
-209.899554
0
LINE
8
hello_you v6_Sketch4
10
-329.047016
20
-209.899554
11
-328.836000
21
-208.309000
0
LINE
8
hello_you v6_Sketch4
10
-328.836000
20
-208.309000
11
-328.836000
21
-208.309000
0
LINE
8
hello_you v6_Sketch4
10
459.742000
20
106.452000
11
458.830331
21
108.551771
0
LINE
8
hello_you v6_Sketch4
10
458.830331
20
108.551771
11
457.772504
21
110.554607
0
LINE
8
hello_you v6_Sketch4
10
457.772504
20
110.554607
11
456.576296
21
112.455191
0
LINE
8
hello_you v6_Sketch4
10
456.576296
20
112.455191
11
455.249483
21
114.248206
0
LINE
8
hello_you v6_Sketch4
10
455.249483
20
114.248206
11
453.799842
21
115.928334
0
LINE
8
hello_you v6_Sketch4
10
453.799842
20
115.928334
11
452.235151
21
117.490259
0
LINE
8
hello_you v6_Sketch4
10
452.235151
20
117.490259
11
450.563185
21
118.928664
0
LINE
8
hello_you v6_Sketch4
10
450.563185
20
118.928664
11
448.791723
21
120.238231
0
LINE
8
hello_you v6_Sketch4
10
448.791723
20
120.238231
11
446.928540
21
121.413644
0
LINE
8
hello_you v6_Sketch4
10
446.928540
20
121.413644
11
444.981414
21
122.449587
0
LINE
8
hello_you v6_Sketch4
10
444.981414
20
122.449587
11
442.958122
21
123.340741
0
LINE
8
hello_you v6_Sketch4
10
442.958122
20
123.340741
11
440.866439
21
124.081790
0
LINE
8
hello_you v6_Sketch4
10
440.866439
20
124.081790
11
438.714144
21
124.667416
0
LINE
8
hello_you v6_Sketch4
10
438.714144
20
124.667416
11
436.509013
21
125.092304
0
LINE
8
hello_you v6_Sketch4
10
436.509013
20
125.092304
11
434.258823
21
125.351136
0
LINE
8
hello_you v6_Sketch4
10
434.258823
20
125.351136
11
431.971350
21
125.438595
0
LINE
8
hello_you v6_Sketch4
10
431.971350
20
125.438595
11
429.683877
21
125.351136
0
LINE
8
hello_you v6_Sketch4
10
429.683877
20
125.351136
11
427.433687
21
125.092304
0
LINE
8
hello_you v6_Sketch4
10
427.433687
20
125.092304
11
425.228556
21
124.667416
0
LINE
8
hello_you v6_Sketch4
10
425.228556
20
124.667416
11
423.076261
21
124.081790
0
LINE
8
hello_you v6_Sketch4
10
423.076261
20
124.081790
11
420.984578
21
123.340741
0
LINE
8
hello_you v6_Sketch4
10
420.984578
20
123.340741
11
418.961286
21
122.449587
0
LINE
8
hello_you v6_Sketch4
10
418.961286
20
122.449587
11
417.014160
21
121.413644
0
LINE
8
hello_you v6_Sketch4
10
417.014160
20
121.413644
11
415.150977
21
120.238231
0
LINE
8
hello_you v6_Sketch4
10
415.150977
20
120.238231
11
413.379515
21
118.928664
0
LINE
8
hello_you v6_Sketch4
10
413.379515
20
118.928664
11
411.707549
21
117.490259
0
LINE
8
hello_you v6_Sketch4
10
411.707549
20
117.490259
11
410.142858
21
115.928334
0
LINE
8
hello_you v6_Sketch4
10
410.142858
20
115.928334
11
408.693217
21
114.248206
0
LINE
8
hello_you v6_Sketch4
10
408.693217
20
114.248206
11
407.366404
21
112.455191
0
LINE
8
hello_you v6_Sketch4
10
407.366404
20
112.455191
11
406.170196
21
110.554607
0
LINE
8
hello_you v6_Sketch4
10
406.170196
20
110.554607
11
405.112369
21
108.551771
0
LINE
8
hello_you v6_Sketch4
10
405.112369
20
108.551771
11
404.200700
21
106.452000
0
LINE
8
hello_you v6_Sketch4
10
404.200000
20
84.820100
11
405.111669
21
82.720329
0
LINE
8
hello_you v6_Sketch4
10
405.111669
20
82.720329
11
406.169496
21
80.717493
0
LINE
8
hello_you v6_Sketch4
10
406.169496
20
80.717493
11
407.365704
21
78.816909
0
LINE
8
hello_you v6_Sketch4
10
407.365704
20
78.816909
11
408.692517
21
77.023894
0
LINE
8
hello_you v6_Sketch4
10
408.692517
20
77.023894
11
410.142158
21
75.343766
0
LINE
8
hello_you v6_Sketch4
10
410.142158
20
75.343766
11
411.706849
21
73.781841
0
LINE
8
hello_you v6_Sketch4
10
411.706849
20
73.781841
11
413.378815
21
72.343436
0
LINE
8
hello_you v6_Sketch4
10
413.378815
20
72.343436
11
415.150277
21
71.033869
0
LINE
8
hello_you v6_Sketch4
10
415.150277
20
71.033869
11
417.013460
21
69.858456
0
LINE
8
hello_you v6_Sketch4
10
417.013460
20
69.858456
11
418.960586
21
68.822513
0
LINE
8
hello_you v6_Sketch4
10
418.960586
20
68.822513
11
420.983878
21
67.931359
0
LINE
8
hello_you v6_Sketch4
10
420.983878
20
67.931359
11
423.075561
21
67.190310
0
LINE
8
hello_you v6_Sketch4
10
423.075561
20
67.190310
11
425.227856
21
66.604684
0
LINE
8
hello_you v6_Sketch4
10
425.227856
20
66.604684
11
427.432987
21
66.179796
0
LINE
8
hello_you v6_Sketch4
10
427.432987
20
66.179796
11
429.683177
21
65.920964
0
LINE
8
hello_you v6_Sketch4
10
429.683177
20
65.920964
11
431.970650
21
65.833505
0
LINE
8
hello_you v6_Sketch4
10
431.970650
20
65.833505
11
434.258123
21
65.920964
0
LINE
8
hello_you v6_Sketch4
10
434.258123
20
65.920964
11
436.508313
21
66.179796
0
LINE
8
hello_you v6_Sketch4
10
436.508313
20
66.179796
11
438.713444
21
66.604684
0
LINE
8
hello_you v6_Sketch4
10
438.713444
20
66.604684
11
440.865739
21
67.190310
0
LINE
8
hello_you v6_Sketch4
10
440.865739
20
67.190310
11
442.957422
21
67.931359
0
LINE
8
hello_you v6_Sketch4
10
442.957422
20
67.931359
11
444.980714
21
68.822513
0
LINE
8
hello_you v6_Sketch4
10
444.980714
20
68.822513
11
446.927840
21
69.858456
0
LINE
8
hello_you v6_Sketch4
10
446.927840
20
69.858456
11
448.791023
21
71.033869
0
LINE
8
hello_you v6_Sketch4
10
448.791023
20
71.033869
11
450.562485
21
72.343436
0
LINE
8
hello_you v6_Sketch4
10
450.562485
20
72.343436
11
452.234451
21
73.781841
0
LINE
8
hello_you v6_Sketch4
10
452.234451
20
73.781841
11
453.799142
21
75.343766
0
LINE
8
hello_you v6_Sketch4
10
453.799142
20
75.343766
11
455.248783
21
77.023894
0
LINE
8
hello_you v6_Sketch4
10
455.248783
20
77.023894
11
456.575596
21
78.816909
0
LINE
8
hello_you v6_Sketch4
10
456.575596
20
78.816909
11
457.771804
21
80.717493
0
LINE
8
hello_you v6_Sketch4
10
457.771804
20
80.717493
11
458.829631
21
82.720329
0
LINE
8
hello_you v6_Sketch4
10
458.829631
20
82.720329
11
459.741300
21
84.820100
0
LINE
8
hello_you v6_Sketch4
10
-328.836000
20
246.885000
11
-329.047016
21
248.475554
0
LINE
8
hello_you v6_Sketch4
10
-329.047016
20
248.475554
11
-329.652709
21
249.933000
0
LINE
8
hello_you v6_Sketch4
10
-329.652709
20
249.933000
11
-330.612048
21
251.186269
0
LINE
8
hello_you v6_Sketch4
10
-330.612048
20
251.186269
11
-331.884000
21
252.164291
0
LINE
8
hello_you v6_Sketch4
10
-331.884000
20
252.164291
11
-333.366968
21
252.776823
0
LINE
8
hello_you v6_Sketch4
10
-333.366968
20
252.776823
11
-334.932000
21
252.981000
0
LINE
8
hello_you v6_Sketch4
10
-334.932000
20
252.981000
11
-336.497032
21
252.776823
0
LINE
8
hello_you v6_Sketch4
10
-336.497032
20
252.776823
11
-337.980000
21
252.164291
0
LINE
8
hello_you v6_Sketch4
10
-337.980000
20
252.164291
11
-339.251952
21
251.186269
0
LINE
8
hello_you v6_Sketch4
10
-339.251952
20
251.186269
11
-340.211291
21
249.933000
0
LINE
8
hello_you v6_Sketch4
10
-340.211291
20
249.933000
11
-340.816984
21
248.475554
0
LINE
8
hello_you v6_Sketch4
10
-340.816984
20
248.475554
11
-341.028000
21
246.885000
0
LINE
8
hello_you v6_Sketch4
10
-341.028000
20
246.885000
11
-340.816984
21
245.294446
0
LINE
8
hello_you v6_Sketch4
10
-340.816984
20
245.294446
11
-340.211291
21
243.837000
0
LINE
8
hello_you v6_Sketch4
10
-340.211291
20
243.837000
11
-339.251952
21
242.583731
0
LINE
8
hello_you v6_Sketch4
10
-339.251952
20
242.583731
11
-337.980000
21
241.605709
0
LINE
8
hello_you v6_Sketch4
10
-337.980000
20
241.605709
11
-336.497032
21
240.993177
0
LINE
8
hello_you v6_Sketch4
10
-336.497032
20
240.993177
11
-334.932000
21
240.789000
0
LINE
8
hello_you v6_Sketch4
10
-334.932000
20
240.789000
11
-333.366968
21
240.993177
0
LINE
8
hello_you v6_Sketch4
10
-333.366968
20
240.993177
11
-331.884000
21
241.605709
0
LINE
8
hello_you v6_Sketch4
10
-331.884000
20
241.605709
11
-330.612048
21
242.583731
0
LINE
8
hello_you v6_Sketch4
10
-330.612048
20
242.583731
11
-329.652709
21
243.837000
0
LINE
8
hello_you v6_Sketch4
10
-329.652709
20
243.837000
11
-329.047016
21
245.294446
0
LINE
8
hello_you v6_Sketch4
10
-329.047016
20
245.294446
11
-328.836000
21
246.885000
0
LINE
8
hello_you v6_Sketch4
10
-328.836000
20
246.885000
11
-328.836000
21
246.885000
0
LINE
8
hello_you v6_Sketch4
10
828.130000
20
-251.632000
11
692.663000
21
290.234000
0
LINE
8
hello_you v6_Sketch4
10
522.994000
20
-51.070100
11
522.994000
21
-53.671300
0
LINE
8
hello_you v6_Sketch4
10
517.034000
20
-51.070100
11
522.994000
21
-51.070100
0
LINE
8
hello_you v6_Sketch4
10
517.034000
20
-53.671300
11
517.034000
21
-51.070100
0
LINE
8
hello_you v6_Sketch4
10
282.281000
20
246.885000
11
282.069984
21
248.475554
0
LINE
8
hello_you v6_Sketch4
10
282.069984
20
248.475554
11
281.464291
21
249.933000
0
LINE
8
hello_you v6_Sketch4
10
281.464291
20
249.933000
11
280.504952
21
251.186269
0
LINE
8
hello_you v6_Sketch4
10
280.504952
20
251.186269
11
279.233000
21
252.164291
0
LINE
8
hello_you v6_Sketch4
10
279.233000
20
252.164291
11
277.750032
21
252.776823
0
LINE
8
hello_you v6_Sketch4
10
277.750032
20
252.776823
11
276.185000
21
252.981000
0
LINE
8
hello_you v6_Sketch4
10
276.185000
20
252.981000
11
274.619968
21
252.776823
0
LINE
8
hello_you v6_Sketch4
10
274.619968
20
252.776823
11
273.137000
21
252.164291
0
LINE
8
hello_you v6_Sketch4
10
273.137000
20
252.164291
11
271.865048
21
251.186269
0
LINE
8
hello_you v6_Sketch4
10
271.865048
20
251.186269
11
270.905709
21
249.933000
0
LINE
8
hello_you v6_Sketch4
10
270.905709
20
249.933000
11
270.300016
21
248.475554
0
LINE
8
hello_you v6_Sketch4
10
270.300016
20
248.475554
11
270.089000
21
246.885000
0
LINE
8
hello_you v6_Sketch4
10
270.089000
20
246.885000
11
270.300016
21
245.294446
0
LINE
8
hello_you v6_Sketch4
10
270.300016
20
245.294446
11
270.905709
21
243.837000
0
LINE
8
hello_you v6_Sketch4
10
270.905709
20
243.837000
11
271.865048
21
242.583731
0
LINE
8
hello_you v6_Sketch4
10
271.865048
20
242.583731
11
273.137000
21
241.605709
0
LINE
8
hello_you v6_Sketch4
10
273.137000
20
241.605709
11
274.619968
21
240.993177
0
LINE
8
hello_you v6_Sketch4
10
274.619968
20
240.993177
11
276.185000
21
240.789000
0
LINE
8
hello_you v6_Sketch4
10
276.185000
20
240.789000
11
277.750032
21
240.993177
0
LINE
8
hello_you v6_Sketch4
10
277.750032
20
240.993177
11
279.233000
21
241.605709
0
LINE
8
hello_you v6_Sketch4
10
279.233000
20
241.605709
11
280.504952
21
242.583731
0
LINE
8
hello_you v6_Sketch4
10
280.504952
20
242.583731
11
281.464291
21
243.837000
0
LINE
8
hello_you v6_Sketch4
10
281.464291
20
243.837000
11
282.069984
21
245.294446
0
LINE
8
hello_you v6_Sketch4
10
282.069984
20
245.294446
11
282.281000
21
246.885000
0
LINE
8
hello_you v6_Sketch4
10
282.281000
20
246.885000
11
282.281000
21
246.885000
0
LINE
8
hello_you v6_Sketch4
10
692.663000
20
290.235000
11
-662.003000
21
290.235000
0
LINE
8
hello_you v6_Sketch4
10
404.201000
20
84.820100
11
404.201000
21
106.452000
 0 
ENDSEC
 0 
EOF